<svg xmlns="http://www.w3.org/2000/svg" xmlns:xlink="http://www.w3.org/1999/xlink" viewBox="0 0 30 30"><defs><radialGradient id="prefix__prefix__bac32c22-0321-4c9f-803b-0bf86f982e05" cx="18.711" cy="8.685" r="21.245" gradientTransform="rotate(.405 15.295 12.851)" gradientUnits="userSpaceOnUse"><stop offset="0" stop-color="#ca0000"/><stop offset=".741" stop-color="#c80000"/><stop offset="1" stop-color="#ca0000"/></radialGradient><radialGradient id="prefix__prefix__e8c42025-d8b4-44c6-938c-f14c5b3b42b0" cx="18.751" cy="8.701" r="21.24" gradientTransform="rotate(.811 15.33 12.789)" gradientUnits="userSpaceOnUse"><stop offset="0" stop-color="#ca0000"/><stop offset=".741" stop-color="#c60000"/><stop offset=".971" stop-color="#c90000"/><stop offset="1" stop-color="#ca0000"/></radialGradient><radialGradient id="prefix__prefix__e0e7507d-c368-4c26-83d1-81aaf147413a" cx="18.792" cy="8.718" r="21.233" gradientTransform="rotate(1.217 15.364 12.725)" gradientUnits="userSpaceOnUse"><stop offset="0" stop-color="#ca0000"/><stop offset=".741" stop-color="#c40000"/><stop offset=".938" stop-color="#c70000"/><stop offset="1" stop-color="#ca0000"/></radialGradient><radialGradient id="prefix__prefix__a3536005-ccab-4610-a6ec-5b1db4120d38" cx="18.833" cy="8.734" r="21.226" gradientTransform="rotate(1.624 15.4 12.662)" gradientUnits="userSpaceOnUse"><stop offset="0" stop-color="#c90000"/><stop offset=".741" stop-color="#c20000"/><stop offset=".918" stop-color="#c50000"/><stop offset="1" stop-color="#ca0000"/></radialGradient><radialGradient id="prefix__prefix__fce63ccc-ee03-4b85-bd82-8ad48d8f1f23" cx="18.874" cy="8.75" r="21.218" gradientTransform="rotate(2.031 15.434 12.6)" gradientUnits="userSpaceOnUse"><stop offset="0" stop-color="#c90000"/><stop offset=".741" stop-color="#c00000"/><stop offset=".903" stop-color="#c30000"/><stop offset="1" stop-color="#ca0000"/></radialGradient><radialGradient id="prefix__prefix__b53af292-2399-4c2e-aefa-5bf769de98dc" cx="18.915" cy="8.765" r="21.208" gradientTransform="rotate(2.439 15.47 12.537)" gradientUnits="userSpaceOnUse"><stop offset="0" stop-color="#c90000"/><stop offset=".741" stop-color="#be0000"/><stop offset=".897" stop-color="#c10000"/><stop offset="1" stop-color="#c90000"/></radialGradient><radialGradient id="prefix__prefix__b4208044-5e66-4ca9-8a52-f30cd032e968" cx="18.957" cy="8.781" r="21.198" gradientTransform="rotate(2.848 15.507 12.475) scale(.99574)" gradientUnits="userSpaceOnUse"><stop offset="0" stop-color="#c90000"/><stop offset=".662" stop-color="#be0000"/><stop offset=".741" stop-color="#bc0000"/><stop offset=".888" stop-color="#bf0000"/><stop offset=".994" stop-color="#c80000"/><stop offset="1" stop-color="#c90000"/></radialGradient><radialGradient id="prefix__prefix__e1b8fe36-3cec-48d4-a340-e43fdcdb4672" cx="18.998" cy="8.796" r="21.186" gradientTransform="rotate(3.255 15.543 12.414)" gradientUnits="userSpaceOnUse"><stop offset="0" stop-color="#c90000"/><stop offset=".562" stop-color="#be0000"/><stop offset=".741" stop-color="#b90000"/><stop offset=".877" stop-color="#bc0000"/><stop offset=".975" stop-color="#c50000"/><stop offset="1" stop-color="#c90000"/></radialGradient><radialGradient id="prefix__prefix__eaff0cc7-76ab-4eb3-b992-10a32e576b2f" cx="19.039" cy="8.812" r="21.173" gradientTransform="matrix(.99295 .06358 -.06358 .99295 .821 -.97)" gradientUnits="userSpaceOnUse"><stop offset="0" stop-color="#c90000"/><stop offset=".513" stop-color="#be0000"/><stop offset=".741" stop-color="#b70000"/><stop offset=".871" stop-color="#ba0000"/><stop offset=".965" stop-color="#c30000"/><stop offset="1" stop-color="#c90000"/></radialGradient><radialGradient id="prefix__prefix__b1ec1937-ccd1-4b6f-b175-09c7d1d17962" cx="19.08" cy="8.827" r="21.16" gradientTransform="rotate(4.073 15.617 12.292) scale(.99467)" gradientUnits="userSpaceOnUse"><stop offset="0" stop-color="#c80000"/><stop offset=".491" stop-color="#bd0000"/><stop offset=".741" stop-color="#b50000"/><stop offset=".866" stop-color="#b80000"/><stop offset=".956" stop-color="#c10000"/><stop offset="1" stop-color="#c90000"/></radialGradient><radialGradient id="prefix__prefix__b8ce2080-3796-4d0c-89fe-1d1848b3605c" cx="19.121" cy="8.842" r="21.145" gradientTransform="rotate(4.482 15.655 12.23) scale(.99442)" gradientUnits="userSpaceOnUse"><stop offset="0" stop-color="#c80000"/><stop offset=".454" stop-color="#bd0000"/><stop offset=".741" stop-color="#b30000"/><stop offset=".861" stop-color="#b60000"/><stop offset=".948" stop-color="#bf0000"/><stop offset="1" stop-color="#c90000"/></radialGradient><radialGradient id="prefix__prefix__f8428747-f2bf-4fa4-9dcd-f65d0859a985" cx="19.162" cy="8.856" r="21.129" gradientTransform="rotate(4.891 15.693 12.17) scale(.99421)" gradientUnits="userSpaceOnUse"><stop offset="0" stop-color="#c80000"/><stop offset=".423" stop-color="#bd0000"/><stop offset=".741" stop-color="#b10000"/><stop offset=".857" stop-color="#b40000"/><stop offset=".942" stop-color="#bd0000"/><stop offset="1" stop-color="#c90000"/></radialGradient><radialGradient id="prefix__prefix__a1fe0d11-7348-40a2-8a23-902440038bf6" cx="19.203" cy="8.871" r="21.112" gradientTransform="rotate(5.3 15.73 12.11) scale(.99406)" gradientUnits="userSpaceOnUse"><stop offset="0" stop-color="#c80000"/><stop offset=".396" stop-color="#bd0000"/><stop offset=".741" stop-color="#af0000"/><stop offset=".854" stop-color="#b20000"/><stop offset=".936" stop-color="#b00"/><stop offset="1" stop-color="#c90000"/></radialGradient><radialGradient id="prefix__prefix__ba7977dc-ce99-428b-ab2f-351c6c76f668" cx="19.244" cy="8.885" r="21.094" gradientTransform="scale(.99396) rotate(5.71 15.872 12.12)" gradientUnits="userSpaceOnUse"><stop offset="0" stop-color="#c80000"/><stop offset=".373" stop-color="#bd0000"/><stop offset=".741" stop-color="#ad0000"/><stop offset=".851" stop-color="#b00000"/><stop offset=".93" stop-color="#b90000"/><stop offset="1" stop-color="#c90000"/></radialGradient><radialGradient id="prefix__prefix__bb1e22a4-4a2d-4281-b827-aa4825f8cfc2" cx="19.285" cy="8.899" r="21.074" gradientTransform="rotate(6.12 15.81 11.992) scale(.99391)" gradientUnits="userSpaceOnUse"><stop offset="0" stop-color="#c80000"/><stop offset=".353" stop-color="#bd0000"/><stop offset=".741" stop-color="#ab0000"/><stop offset=".848" stop-color="#ae0000"/><stop offset=".925" stop-color="#b70000"/><stop offset=".993" stop-color="#c70000"/><stop offset="1" stop-color="#c90000"/></radialGradient><radialGradient id="prefix__prefix__ecc263f9-1316-48ec-9b3f-e7c9e95280a2" cx="19.325" cy="8.913" r="21.054" gradientTransform="rotate(6.531 15.85 11.933) scale(.99391)" gradientUnits="userSpaceOnUse"><stop offset="0" stop-color="#c70000"/><stop offset=".344" stop-color="#bc0000"/><stop offset=".741" stop-color="#a90000"/><stop offset=".847" stop-color="#ac0000"/><stop offset=".923" stop-color="#b50000"/><stop offset=".99" stop-color="#c50000"/><stop offset="1" stop-color="#c80000"/></radialGradient><radialGradient id="prefix__prefix__b1318c7f-a07f-44f3-907f-b29c830e90f8" cx="19.366" cy="8.927" r="21.033" gradientTransform="rotate(6.94 15.888 11.874) scale(.99395)" gradientUnits="userSpaceOnUse"><stop offset="0" stop-color="#c70000"/><stop offset=".327" stop-color="#bc0000"/><stop offset=".741" stop-color="#a70000"/><stop offset=".844" stop-color="#a00"/><stop offset=".919" stop-color="#b30000"/><stop offset=".984" stop-color="#c30000"/><stop offset="1" stop-color="#c80000"/></radialGradient><radialGradient id="prefix__prefix__a1712a5e-ccf9-4485-bdfd-077f4745558f" cx="19.406" cy="8.941" r="21.01" gradientTransform="rotate(7.349 15.93 11.816) scale(.99406)" gradientUnits="userSpaceOnUse"><stop offset="0" stop-color="#c70000"/><stop offset=".312" stop-color="#bc0000"/><stop offset=".741" stop-color="#a50000"/><stop offset=".842" stop-color="#a80000"/><stop offset=".915" stop-color="#b10000"/><stop offset=".979" stop-color="#c10000"/><stop offset="1" stop-color="#c80000"/></radialGradient><radialGradient id="prefix__prefix__b6aa009b-2a87-40ac-8fee-76fcc8293a82" cx="19.447" cy="8.954" r="20.987" gradientTransform="rotate(7.759 15.97 11.758) scale(.99421)" gradientUnits="userSpaceOnUse"><stop offset="0" stop-color="#c70000"/><stop offset=".298" stop-color="#bc0000"/><stop offset=".741" stop-color="#a30000"/><stop offset=".84" stop-color="#a60000"/><stop offset=".911" stop-color="#af0000"/><stop offset=".974" stop-color="#bf0000"/><stop offset="1" stop-color="#c80000"/></radialGradient><radialGradient id="prefix__prefix__a5575226-829c-4619-b101-52656e2d91a8" cx="19.487" cy="8.967" r="20.962" gradientTransform="rotate(8.168 16.011 11.7) scale(.99441)" gradientUnits="userSpaceOnUse"><stop offset="0" stop-color="#c70000"/><stop offset=".286" stop-color="#bc0000"/><stop offset=".741" stop-color="#a10000"/><stop offset=".838" stop-color="#a40000"/><stop offset=".908" stop-color="#ad0000"/><stop offset=".969" stop-color="#bd0000"/><stop offset="1" stop-color="#c80000"/></radialGradient><radialGradient id="prefix__prefix__afcf2b6e-bc80-47aa-acd8-7ed7b5cd911a" cx="19.527" cy="8.98" r="20.937" gradientTransform="rotate(8.577 16.054 11.644) scale(.99467)" gradientUnits="userSpaceOnUse"><stop offset="0" stop-color="#c70000"/><stop offset=".274" stop-color="#bc0000"/><stop offset=".741" stop-color="#9f0000"/><stop offset=".836" stop-color="#a20000"/><stop offset=".905" stop-color="#ab0000"/><stop offset=".965" stop-color="#b00"/><stop offset="1" stop-color="#c80000"/></radialGradient><radialGradient id="prefix__prefix__b544eaf6-aaad-431a-9f6a-eb58d1c3f8d0" cx="19.567" cy="8.993" r="20.91" gradientTransform="rotate(8.987 16.095 11.586) scale(.99497)" gradientUnits="userSpaceOnUse"><stop offset="0" stop-color="#c60000"/><stop offset=".269" stop-color="#b00"/><stop offset=".741" stop-color="#9d0000"/><stop offset=".834" stop-color="#a00000"/><stop offset=".902" stop-color="#a90000"/><stop offset=".961" stop-color="#b90000"/><stop offset="1" stop-color="#c80000"/></radialGradient><radialGradient id="prefix__prefix__b6f55cb8-13e7-4930-a93b-59cbc0d8b23c" cx="19.607" cy="9.005" r="20.882" gradientTransform="rotate(9.395 16.137 11.53)" gradientUnits="userSpaceOnUse"><stop offset="0" stop-color="#c60000"/><stop offset=".259" stop-color="#b00"/><stop offset=".717" stop-color="#9d0000"/><stop offset=".741" stop-color="#9b0000"/><stop offset=".833" stop-color="#9e0000"/><stop offset=".899" stop-color="#a70000"/><stop offset=".957" stop-color="#b70000"/><stop offset="1" stop-color="#c80000"/></radialGradient><radialGradient id="prefix__prefix__e0bd1358-436c-4c5c-b54b-0cd15aeb29f7" cx="19.646" cy="9.017" r="20.853" gradientTransform="rotate(9.804 16.18 11.473)" gradientUnits="userSpaceOnUse"><stop offset="0" stop-color="#c60000"/><stop offset=".246" stop-color="#b00"/><stop offset=".68" stop-color="#9d0000"/><stop offset=".741" stop-color="#980000"/><stop offset=".83" stop-color="#9b0000"/><stop offset=".895" stop-color="#a40000"/><stop offset=".952" stop-color="#b40000"/><stop offset="1" stop-color="#c80000"/></radialGradient><radialGradient id="prefix__prefix__a22330d6-d7ac-4d03-b59e-0621be0b885e" cx="19.685" cy="9.029" r="20.824" gradientTransform="rotate(10.212 16.223 11.417)" gradientUnits="userSpaceOnUse"><stop offset="0" stop-color="#c60000"/><stop offset=".238" stop-color="#b00"/><stop offset=".658" stop-color="#9d0000"/><stop offset=".741" stop-color="#960000"/><stop offset=".829" stop-color="#900"/><stop offset=".893" stop-color="#a20000"/><stop offset=".949" stop-color="#b20000"/><stop offset="1" stop-color="#c80000"/></radialGradient><radialGradient id="prefix__prefix__f8f5b852-92b0-47fa-a58d-fe07096cd462" cx="19.724" cy="9.041" r="20.793" gradientTransform="rotate(10.62 16.267 11.361)" gradientUnits="userSpaceOnUse"><stop offset="0" stop-color="#c60000"/><stop offset=".23" stop-color="#b00"/><stop offset=".637" stop-color="#9d0000"/><stop offset=".741" stop-color="#940000"/><stop offset=".828" stop-color="#970000"/><stop offset=".892" stop-color="#a00000"/><stop offset=".947" stop-color="#b00000"/><stop offset=".998" stop-color="#c60000"/><stop offset="1" stop-color="#c70000"/></radialGradient><radialGradient id="prefix__prefix__e61f70d5-6efc-4132-be5c-9a27ffa01a82" cx="19.763" cy="9.052" r="20.761" gradientTransform="rotate(11.027 16.31 11.306)" gradientUnits="userSpaceOnUse"><stop offset="0" stop-color="#c60000"/><stop offset=".223" stop-color="#b00"/><stop offset=".618" stop-color="#9d0000"/><stop offset=".741" stop-color="#920000"/><stop offset=".827" stop-color="#950000"/><stop offset=".89" stop-color="#9e0000"/><stop offset=".944" stop-color="#ae0000"/><stop offset=".995" stop-color="#c40000"/><stop offset="1" stop-color="#c70000"/></radialGradient><radialGradient id="prefix__prefix__e00703c3-9384-4f01-8276-7cd1e241ad07" cx="19.802" cy="9.064" r="20.728" gradientTransform="rotate(11.434 16.355 11.25)" gradientUnits="userSpaceOnUse"><stop offset="0" stop-color="#c50000"/><stop offset=".22" stop-color="#ba0000"/><stop offset=".609" stop-color="#9c0000"/><stop offset=".741" stop-color="#900000"/><stop offset=".826" stop-color="#930000"/><stop offset=".887" stop-color="#9c0000"/><stop offset=".942" stop-color="#ac0000"/><stop offset=".991" stop-color="#c20000"/><stop offset="1" stop-color="#c70000"/></radialGradient><radialGradient id="prefix__prefix__a1180d03-ddb8-44b7-9c6d-3d7fc634a6b1" cx="19.84" cy="9.075" r="20.695" gradientTransform="rotate(11.84 16.4 11.196) scale(.99851)" gradientUnits="userSpaceOnUse"><stop offset="0" stop-color="#c50000"/><stop offset=".214" stop-color="#ba0000"/><stop offset=".591" stop-color="#9c0000"/><stop offset=".741" stop-color="#8e0000"/><stop offset=".825" stop-color="#910000"/><stop offset=".885" stop-color="#9a0000"/><stop offset=".939" stop-color="#a00"/><stop offset=".988" stop-color="#c00000"/><stop offset="1" stop-color="#c70000"/></radialGradient><radialGradient id="prefix__prefix__b4b97752-9cbb-431f-998f-45037ce80207" cx="19.878" cy="9.085" r="20.66" gradientTransform="rotate(12.246 16.444 11.141) scale(.99922)" gradientUnits="userSpaceOnUse"><stop offset="0" stop-color="#c50000"/><stop offset=".208" stop-color="#ba0000"/><stop offset=".575" stop-color="#9c0000"/><stop offset=".741" stop-color="#8c0000"/><stop offset=".824" stop-color="#8f0000"/><stop offset=".884" stop-color="#980000"/><stop offset=".936" stop-color="#a80000"/><stop offset=".985" stop-color="#be0000"/><stop offset="1" stop-color="#c70000"/></radialGradient><radialGradient id="prefix__prefix__f26fb322-56cf-46c4-b219-eb802ef54b9d" cx="19.916" cy="9.096" r="20.624" gradientTransform="rotate(12.651 16.49 11.087)" gradientUnits="userSpaceOnUse"><stop offset="0" stop-color="#c50000"/><stop offset=".202" stop-color="#ba0000"/><stop offset=".56" stop-color="#9c0000"/><stop offset=".741" stop-color="#8a0000"/><stop offset=".823" stop-color="#8d0000"/><stop offset=".882" stop-color="#960000"/><stop offset=".934" stop-color="#a60000"/><stop offset=".982" stop-color="#bc0000"/><stop offset="1" stop-color="#c70000"/></radialGradient><radialGradient id="prefix__prefix__b85dfd20-a3da-4e28-a184-40785a559255" cx="15.515" cy="-34.059" r="8.118" gradientTransform="matrix(.9757 .219 -.1266 .5641 -7.266 42.058)" gradientUnits="userSpaceOnUse"><stop offset="0" stop-color="#cfcfd0"/><stop offset=".048" stop-color="#d3d3d4"/><stop offset=".402" stop-color="#ebebec"/><stop offset=".729" stop-color="#fafafa"/><stop offset="1" stop-color="#fff"/></radialGradient><radialGradient id="prefix__prefix__ac38a34d-3578-4c8f-a0a5-1b2f592eb055" cx="87.187" cy="-216.225" r="8.845" gradientTransform="matrix(.6515 -.7586 .5829 .5005 79.582 187.818)" gradientUnits="userSpaceOnUse"><stop offset="0" stop-color="red"/><stop offset=".199" stop-color="#bc0000"/><stop offset=".414" stop-color="#7a0000"/><stop offset=".61" stop-color="#450000"/><stop offset=".779" stop-color="#200000"/><stop offset=".915" stop-color="#080000"/><stop offset="1"/></radialGradient><radialGradient id="prefix__prefix__fa2ffe2a-8886-4498-89ab-291843812d05" cx="87.993" cy="-216.929" r="7.303" gradientTransform="matrix(.6515 -.7586 .5829 .5005 79.582 187.818)" gradientUnits="userSpaceOnUse"><stop offset="0" stop-color="#e80000"/><stop offset=".145" stop-color="#b20000"/><stop offset=".308" stop-color="#7c0000"/><stop offset=".467" stop-color="#500000"/><stop offset=".619" stop-color="#2d0000"/><stop offset=".762" stop-color="#140000"/><stop offset=".893" stop-color="#050000"/><stop offset="1"/></radialGradient><radialGradient id="prefix__prefix__f261c6de-4a96-41a1-b6de-bc28b1b4be46" cx="88.548" cy="-217.425" r="5.847" gradientTransform="matrix(.6515 -.7586 .5829 .5005 79.582 187.818)" gradientUnits="userSpaceOnUse"><stop offset="0" stop-color="red"/><stop offset=".096" stop-color="#d30000"/><stop offset=".231" stop-color="#9c0000"/><stop offset=".366" stop-color="#6c0000"/><stop offset=".5" stop-color="#450000"/><stop offset=".632" stop-color="#270000"/><stop offset=".76" stop-color="#100"/><stop offset=".884" stop-color="#040000"/><stop offset="1"/></radialGradient><radialGradient id="prefix__prefix__e806007a-0e2d-4c44-94d6-9aad1778bd4f" cx="269.086" cy="231.807" r="8.018" gradientTransform="matrix(-.3448 -1.2557 -.9195 .2523 326.723 296.533)" gradientUnits="userSpaceOnUse"><stop offset="0" stop-color="red"/><stop offset=".031" stop-color="#f20000"/><stop offset=".189" stop-color="#b30000"/><stop offset=".345" stop-color="#7c0000"/><stop offset=".496" stop-color="#500000"/><stop offset=".64" stop-color="#2d0000"/><stop offset=".775" stop-color="#140000"/><stop offset=".899" stop-color="#050000"/><stop offset="1"/></radialGradient><radialGradient id="prefix__prefix__bb4ae0dd-7cac-4625-943c-92cacd71b589" cx="269.817" cy="231.168" r="6.621" gradientTransform="matrix(-.3448 -1.2557 -.9195 .2523 326.723 296.533)" xlink:href="#prefix__prefix__fa2ffe2a-8886-4498-89ab-291843812d05"/><radialGradient id="prefix__prefix__b381b6c3-1562-4654-ae92-0ca8fe17080d" cx="270.32" cy="230.719" r="5.3" gradientTransform="matrix(-.3448 -1.2557 -.9195 .2523 326.723 296.533)" xlink:href="#prefix__prefix__f261c6de-4a96-41a1-b6de-bc28b1b4be46"/><radialGradient id="prefix__prefix__e7d321df-fc45-4900-90e2-7ca5dff25499" cx="268.943" cy="214.695" r="5.3" gradientTransform="matrix(-1.3543 -1.3531 -.8955 .8962 565.37 195.718)" gradientUnits="userSpaceOnUse"><stop offset="0" stop-color="#740000"/><stop offset=".169" stop-color="#5c0000"/><stop offset=".549" stop-color="#2a0000"/><stop offset=".838" stop-color="#0c0000"/><stop offset="1"/></radialGradient><radialGradient id="prefix__prefix__e10dc4ea-9777-4ccf-9f73-bcb418bc7976" cx="20.04" cy="14.864" r="10.761" gradientTransform="rotate(12.651 16.49 11.087)" gradientUnits="userSpaceOnUse"><stop offset="0" stop-color="#c1b7b8"/><stop offset=".268" stop-color="#c19497"/><stop offset=".857" stop-color="#c13d42"/><stop offset="1" stop-color="#c1272d"/></radialGradient><radialGradient id="prefix__prefix__b7db35c0-a990-4169-afa4-0f7879859931" cx="-256.937" cy="123.005" r="4.831" gradientTransform="scale(-1 1) rotate(32.35 63.442 493.438)" gradientUnits="userSpaceOnUse"><stop offset="0" stop-color="#fefefe"/><stop offset=".127" stop-color="#dfdfdf"/><stop offset=".403" stop-color="#919191"/><stop offset=".462" stop-color="gray"/><stop offset="1" stop-color="#0c0c0c"/></radialGradient><radialGradient id="prefix__prefix__e0f85fa0-8086-4cf2-b1a7-c3141024e6d0" cx="-255.711" cy="122.53" r="4.741" gradientTransform="scale(-1 1) rotate(32.35 63.442 493.438)" gradientUnits="userSpaceOnUse"><stop offset="0" stop-color="#cdcdcd"/><stop offset=".247" stop-color="gray"/><stop offset="1" stop-color="#2f2f2f"/></radialGradient><radialGradient id="prefix__prefix__e95e8b77-ee4a-448a-acf5-0c61b678cd3d" cx="-323.615" cy="137.815" r="3.669" gradientTransform="scale(1 -1) rotate(-57.65 -290.59 -245.467)" xlink:href="#prefix__prefix__b7db35c0-a990-4169-afa4-0f7879859931"/><radialGradient id="prefix__prefix__e3675059-12b2-4f9a-a5f4-3e37818c091d" cx="-322.683" cy="137.455" r="3.6" gradientTransform="scale(1 -1) rotate(-57.65 -290.59 -245.467)" xlink:href="#prefix__prefix__e0f85fa0-8086-4cf2-b1a7-c3141024e6d0"/><radialGradient id="prefix__prefix__f6e106e2-f029-4283-ba0e-ed0474650261" cx="-289.41" cy="203.865" r="4.832" gradientTransform="scale(1 -1) rotate(77.349 1.918 290.66)" xlink:href="#prefix__prefix__b7db35c0-a990-4169-afa4-0f7879859931"/><radialGradient id="prefix__prefix__b4b9fe2e-8b04-4fee-a8d8-62a5b2878c3a" cx="-288.184" cy="203.391" r="4.741" gradientTransform="scale(1 -1) rotate(77.349 1.918 290.66)" xlink:href="#prefix__prefix__e0f85fa0-8086-4cf2-b1a7-c3141024e6d0"/><radialGradient id="prefix__prefix__b17c1714-228f-4733-a64a-46afad62aa57" cx="-263.537" cy="198.722" r="4.024" gradientTransform="scale(-1 1) rotate(-57.65 -308.5 -107.767)" xlink:href="#prefix__prefix__b7db35c0-a990-4169-afa4-0f7879859931"/><radialGradient id="prefix__prefix__a333e032-1a92-43c6-a348-9941a68547a3" cx="-262.516" cy="198.326" r="3.949" gradientTransform="scale(-1 1) rotate(-57.65 -308.5 -107.767)" xlink:href="#prefix__prefix__e0f85fa0-8086-4cf2-b1a7-c3141024e6d0"/><radialGradient id="prefix__prefix__a0b0e87b-b4e7-459d-9b59-3422308ded60" cx="-259.809" cy="210.82" r="4.024" gradientTransform="scale(-1 1) rotate(-57.65 -308.5 -107.767)" xlink:href="#prefix__prefix__b7db35c0-a990-4169-afa4-0f7879859931"/><radialGradient id="prefix__prefix__bd5272dc-b79b-461f-b189-6be4b10ccbb8" cx="-258.788" cy="210.425" r="3.949" gradientTransform="scale(-1 1) rotate(-57.65 -308.5 -107.767)" xlink:href="#prefix__prefix__e0f85fa0-8086-4cf2-b1a7-c3141024e6d0"/><radialGradient id="prefix__prefix__b68ccdf9-4b21-4672-b790-af21340bf39c" cx="-249.27" cy="153.876" r="4.832" gradientTransform="scale(-1 1) rotate(-12.651 -798.149 -967.365)" xlink:href="#prefix__prefix__b7db35c0-a990-4169-afa4-0f7879859931"/><radialGradient id="prefix__prefix__b826ccaf-4238-46e5-8a00-1fadb80359f6" cx="-248.044" cy="153.402" r="4.741" gradientTransform="scale(-1 1) rotate(-12.651 -798.149 -967.365)" xlink:href="#prefix__prefix__e0f85fa0-8086-4cf2-b1a7-c3141024e6d0"/><radialGradient id="prefix__prefix__b8a8435a-1e92-488c-a8e6-ea13fd9142e3" cx="-275.7" cy="142.217" r="4.741" gradientTransform="scale(-1 1) rotate(55.585 -32.626 305.768)" xlink:href="#prefix__prefix__e0f85fa0-8086-4cf2-b1a7-c3141024e6d0"/><linearGradient id="prefix__prefix__b956a9b2-b4bf-4d67-ad3c-76b304404636" x1="59.699" y1="-8.927" x2="59.699" y2="41.073" gradientUnits="userSpaceOnUse"><stop offset="0" stop-color="#fff"/><stop offset=".565" stop-color="#fafafa"/><stop offset="1" stop-color="#f2f2f2"/></linearGradient><linearGradient id="prefix__prefix__baf527ec-e051-4dc6-9cdf-0938eeb4c140" x1="14.187" y1="5.448" x2="21.321" y2="5.448" gradientTransform="matrix(.9992 .0071 -.0071 .9992 -.33 .049)" gradientUnits="userSpaceOnUse"><stop offset="0" stop-color="#d30000"/><stop offset=".263" stop-color="#d60000"/><stop offset=".753" stop-color="#d40000"/><stop offset="1" stop-color="#d30000"/></linearGradient><linearGradient id="prefix__prefix__e4e2c3df-84f7-43d3-bdff-3ca95a659aeb" x1="13.785" y1="6.089" x2="20.894" y2="6.089" gradientTransform="rotate(.811 50.74 10.796) scale(.9985)" gradientUnits="userSpaceOnUse"><stop offset="0" stop-color="#d10000"/><stop offset=".263" stop-color="#d70000"/><stop offset=".753" stop-color="#d20000"/><stop offset="1" stop-color="#cf0000"/></linearGradient><linearGradient id="prefix__prefix__beb4426b-5dbe-459a-8445-6cb8fb1d5b23" x1="13.361" y1="5.101" x2="20.442" y2="5.101" gradientTransform="rotate(1.217 -6.785 30.229)" gradientUnits="userSpaceOnUse"><stop offset="0" stop-color="#ce0000"/><stop offset=".057" stop-color="#d10000"/><stop offset=".263" stop-color="#d70000"/><stop offset=".753" stop-color="#d00000"/><stop offset="1" stop-color="#c00"/></linearGradient><linearGradient id="prefix__prefix__b3230b2d-8e09-4b0c-8e98-fc6b17bd9718" x1="13.763" y1="4.915" x2="20.816" y2="4.915" gradientTransform="rotate(1.626 -6.886 11.044)" gradientUnits="userSpaceOnUse"><stop offset="0" stop-color="#cb0000"/><stop offset=".1" stop-color="#d20000"/><stop offset=".263" stop-color="#d80000"/><stop offset=".753" stop-color="#cd0000"/><stop offset="1" stop-color="#c90000"/></linearGradient><linearGradient id="prefix__prefix__bd64d5ff-3155-4cb5-a4a0-317e612b11e2" x1="13.372" y1="5.569" x2="20.397" y2="5.569" gradientTransform="rotate(2.03 16.333 22.248)" gradientUnits="userSpaceOnUse"><stop offset="0" stop-color="#c90000"/><stop offset=".114" stop-color="#d20000"/><stop offset=".263" stop-color="#d80000"/><stop offset=".753" stop-color="#cb0000"/><stop offset="1" stop-color="#c60000"/></linearGradient><linearGradient id="prefix__prefix__eb73d890-609f-42b6-b747-60489dfd7d67" x1="13.775" y1="5.378" x2="20.771" y2="5.378" gradientTransform="rotate(2.439 12.342 10.737)" gradientUnits="userSpaceOnUse"><stop offset="0" stop-color="#c60000"/><stop offset=".131" stop-color="#d20000"/><stop offset=".263" stop-color="#d80000"/><stop offset=".753" stop-color="#c90000"/><stop offset="1" stop-color="#c20000"/></linearGradient><linearGradient id="prefix__prefix__a293de83-19b9-4d68-9d6e-41c3f8e189eb" x1="14.177" y1="5.182" x2="21.143" y2="5.182" gradientTransform="rotate(2.849 9.451 2.546)" gradientUnits="userSpaceOnUse"><stop offset="0" stop-color="#c30000"/><stop offset=".147" stop-color="#d30000"/><stop offset=".263" stop-color="#d90000"/><stop offset=".698" stop-color="#c90000"/><stop offset=".753" stop-color="#c70000"/><stop offset="1" stop-color="#bf0000"/></linearGradient><linearGradient id="prefix__prefix__acf84888-c640-4742-8ab7-47a90f7c2bef" x1="13.803" y1="5.844" x2="20.738" y2="5.844" gradientTransform="rotate(3.249 21.98 10.4) scale(.9953)" gradientUnits="userSpaceOnUse"><stop offset="0" stop-color="#c10000"/><stop offset=".003" stop-color="#c10000"/><stop offset=".153" stop-color="#d30000"/><stop offset=".263" stop-color="#d90000"/><stop offset=".661" stop-color="#c90000"/><stop offset=".753" stop-color="#c50000"/><stop offset="1" stop-color="#bc0000"/></linearGradient><linearGradient id="prefix__prefix__a2f52880-f462-4ab3-b54b-561f36c8209d" x1="13.337" y1="4.874" x2="20.24" y2="4.874" gradientTransform="rotate(3.665 6.253 17.148)" gradientUnits="userSpaceOnUse"><stop offset="0" stop-color="#be0000"/><stop offset=".022" stop-color="#c10000"/><stop offset=".161" stop-color="#d30000"/><stop offset=".263" stop-color="#d90000"/><stop offset=".631" stop-color="#c90000"/><stop offset=".753" stop-color="#c30000"/><stop offset="1" stop-color="#b90000"/></linearGradient><linearGradient id="prefix__prefix__bdb75d3a-0734-48ae-8123-c4c0ac213018" x1="12.97" y1="5.549" x2="19.84" y2="5.549" gradientTransform="rotate(4.07 16.683 21.9) scale(.99471)" gradientUnits="userSpaceOnUse"><stop offset="0" stop-color="#b00"/><stop offset=".043" stop-color="#c20000"/><stop offset=".17" stop-color="#d40000"/><stop offset=".263" stop-color="#da0000"/><stop offset=".593" stop-color="#ca0000"/><stop offset=".753" stop-color="#c10000"/><stop offset="1" stop-color="#b50000"/></linearGradient><linearGradient id="prefix__prefix__e73396d1-2297-4f7e-8c22-81a9a1604e46" x1="13.369" y1="5.349" x2="20.207" y2="5.349" gradientTransform="matrix(.9914 .0777 -.0777 .9914 1.266 -1.08)" gradientUnits="userSpaceOnUse"><stop offset="0" stop-color="#b90000"/><stop offset=".051" stop-color="#c20000"/><stop offset=".173" stop-color="#d40000"/><stop offset=".263" stop-color="#da0000"/><stop offset=".572" stop-color="#ca0000"/><stop offset=".753" stop-color="#bf0000"/><stop offset="1" stop-color="#b20000"/></linearGradient><linearGradient id="prefix__prefix__fbbb0e80-e1f5-40e9-8942-bb77753ea414" x1="13.766" y1="5.143" x2="20.57" y2="5.143" gradientTransform="rotate(4.893 12.536 10.442) scale(.99422)" gradientUnits="userSpaceOnUse"><stop offset="0" stop-color="#b60000"/><stop offset=".066" stop-color="#c30000"/><stop offset=".18" stop-color="#d50000"/><stop offset=".263" stop-color="#db0000"/><stop offset=".539" stop-color="#cb0000"/><stop offset=".753" stop-color="#bc0000"/><stop offset="1" stop-color="#af0000"/></linearGradient><linearGradient id="prefix__prefix__afa3d6de-af30-4378-941a-a9e0983d666c" x1="13.417" y1="5.825" x2="20.186" y2="5.825" gradientTransform="rotate(5.299 20.112 14.488) scale(.99405)" gradientUnits="userSpaceOnUse"><stop offset="0" stop-color="#b30000"/><stop offset=".076" stop-color="#c30000"/><stop offset=".184" stop-color="#d50000"/><stop offset=".263" stop-color="#db0000"/><stop offset=".524" stop-color="#cb0000"/><stop offset=".753" stop-color="#ba0000"/><stop offset="1" stop-color="#ac0000"/></linearGradient><linearGradient id="prefix__prefix__e66b8ce1-6d10-4f40-a5b3-a9317433ea55" x1="13.816" y1="5.615" x2="20.549" y2="5.615" gradientTransform="rotate(5.711 18.057 10.093) scale(.99393)" gradientUnits="userSpaceOnUse"><stop offset="0" stop-color="#b10000"/><stop offset=".082" stop-color="#c30000"/><stop offset=".186" stop-color="#d50000"/><stop offset=".263" stop-color="#db0000"/><stop offset=".512" stop-color="#cb0000"/><stop offset=".753" stop-color="#b80000"/><stop offset="1" stop-color="#a80000"/></linearGradient><linearGradient id="prefix__prefix__ba19146f-0070-41a6-98d0-0cf874da223d" x1="13.309" y1="4.668" x2="20.005" y2="4.668" gradientTransform="matrix(.9883 .106 -.106 .9883 1.577 -.88)" gradientUnits="userSpaceOnUse"><stop offset="0" stop-color="#ae0000"/><stop offset=".092" stop-color="#c40000"/><stop offset=".19" stop-color="#d60000"/><stop offset=".263" stop-color="#dc0000"/><stop offset=".496" stop-color="#c00"/><stop offset=".753" stop-color="#b60000"/><stop offset="1" stop-color="#a50000"/></linearGradient><linearGradient id="prefix__prefix__fb2ac886-6b03-4d25-b980-5d52ff1b271c" x1="12.972" y1="5.362" x2="19.632" y2="5.362" gradientTransform="rotate(6.528 15.45 17.279) scale(.99394)" gradientUnits="userSpaceOnUse"><stop offset="0" stop-color="#ab0000"/><stop offset=".098" stop-color="#c40000"/><stop offset=".193" stop-color="#d60000"/><stop offset=".263" stop-color="#dc0000"/><stop offset=".486" stop-color="#c00"/><stop offset=".753" stop-color="#b40000"/><stop offset="1" stop-color="#a20000"/></linearGradient><linearGradient id="prefix__prefix__a56554f1-508a-4761-bdba-94e087291028" x1="13.364" y1="5.148" x2="19.986" y2="5.148" gradientTransform="rotate(6.94 14.025 13.505) scale(.99398)" gradientUnits="userSpaceOnUse"><stop offset="0" stop-color="#a80000"/><stop offset=".003" stop-color="#a90000"/><stop offset=".107" stop-color="#c50000"/><stop offset=".197" stop-color="#d70000"/><stop offset=".263" stop-color="#d00"/><stop offset=".473" stop-color="#cd0000"/><stop offset=".753" stop-color="#b20000"/><stop offset="1" stop-color="#9f0000"/></linearGradient><linearGradient id="prefix__prefix__b93a9245-b3e0-4fa6-a782-1c64bf569226" x1="13.753" y1="4.929" x2="20.336" y2="4.929" gradientTransform="rotate(7.352 12.74 10.159) scale(.994)" gradientUnits="userSpaceOnUse"><stop offset="0" stop-color="#a60000"/><stop offset=".009" stop-color="#a90000"/><stop offset=".11" stop-color="#c50000"/><stop offset=".198" stop-color="#d70000"/><stop offset=".263" stop-color="#d00"/><stop offset=".465" stop-color="#cd0000"/><stop offset=".753" stop-color="#b00000"/><stop offset="1" stop-color="#9b0000"/></linearGradient><linearGradient id="prefix__prefix__b537ed88-3c8f-4031-a324-d02bd9dc1ac3" x1="13.434" y1="5.628" x2="19.979" y2="5.628" gradientTransform="rotate(7.758 17.988 12.798) scale(.9942)" gradientUnits="userSpaceOnUse"><stop offset="0" stop-color="#a30000"/><stop offset=".018" stop-color="#a90000"/><stop offset=".115" stop-color="#c50000"/><stop offset=".2" stop-color="#d70000"/><stop offset=".263" stop-color="#d00"/><stop offset=".458" stop-color="#cd0000"/><stop offset=".753" stop-color="#ae0000"/><stop offset="1" stop-color="#980000"/></linearGradient><linearGradient id="prefix__prefix__bf58fb67-2745-4620-8849-7d521981cef1" x1="13.824" y1="5.404" x2="20.329" y2="5.404" gradientTransform="rotate(8.169 16.62 9.806) scale(.99439)" gradientUnits="userSpaceOnUse"><stop offset="0" stop-color="#a00000"/><stop offset=".028" stop-color="#a00"/><stop offset=".121" stop-color="#c60000"/><stop offset=".203" stop-color="#d80000"/><stop offset=".263" stop-color="#de0000"/><stop offset=".445" stop-color="#ce0000"/><stop offset=".753" stop-color="#ab0000"/><stop offset="1" stop-color="#950000"/></linearGradient><linearGradient id="prefix__prefix__b3ca864c-a6df-446d-ab3a-f7b986f51fab" x1="13.278" y1="4.484" x2="19.742" y2="4.484" gradientTransform="rotate(8.58 10.326 12.934) scale(.9947)" gradientUnits="userSpaceOnUse"><stop offset="0" stop-color="#9e0000"/><stop offset=".033" stop-color="#a00"/><stop offset=".124" stop-color="#c60000"/><stop offset=".204" stop-color="#d80000"/><stop offset=".263" stop-color="#de0000"/><stop offset=".439" stop-color="#ce0000"/><stop offset=".753" stop-color="#a90000"/><stop offset="1" stop-color="#920000"/></linearGradient><linearGradient id="prefix__prefix__b262eec3-76eb-4f2b-8be8-3b44e9cc47c9" x1="12.973" y1="5.194" x2="19.396" y2="5.194" gradientTransform="rotate(8.985 15.012 15.037)" gradientUnits="userSpaceOnUse"><stop offset="0" stop-color="#9b0000"/><stop offset=".041" stop-color="#ab0000"/><stop offset=".13" stop-color="#c70000"/><stop offset=".207" stop-color="#d90000"/><stop offset=".263" stop-color="#df0000"/><stop offset=".431" stop-color="#cf0000"/><stop offset=".753" stop-color="#a70000"/><stop offset="1" stop-color="#8e0000"/></linearGradient><linearGradient id="prefix__prefix__bae5ab6c-574f-4e56-a48b-8b3c6e4b4f9f" x1="13.356" y1="4.967" x2="19.737" y2="4.967" gradientTransform="rotate(9.396 13.946 12.347)" gradientUnits="userSpaceOnUse"><stop offset="0" stop-color="#980000"/><stop offset=".047" stop-color="#ab0000"/><stop offset=".133" stop-color="#c70000"/><stop offset=".208" stop-color="#d90000"/><stop offset=".263" stop-color="#df0000"/><stop offset=".426" stop-color="#cf0000"/><stop offset=".742" stop-color="#a70000"/><stop offset=".753" stop-color="#a50000"/><stop offset="1" stop-color="#8b0000"/></linearGradient><linearGradient id="prefix__prefix__eb2c0417-1573-4f78-b4d8-e296a26c8058" x1="13.735" y1="4.736" x2="20.074" y2="4.736" gradientTransform="rotate(9.807 12.956 9.884)" gradientUnits="userSpaceOnUse"><stop offset="0" stop-color="#960000"/><stop offset=".051" stop-color="#ab0000"/><stop offset=".136" stop-color="#c70000"/><stop offset=".209" stop-color="#d90000"/><stop offset=".263" stop-color="#df0000"/><stop offset=".422" stop-color="#cf0000"/><stop offset=".729" stop-color="#a70000"/><stop offset=".753" stop-color="#a30000"/><stop offset="1" stop-color="#800"/></linearGradient><linearGradient id="prefix__prefix__b5a4072d-d33e-4358-bae4-84057a60d019" x1="13.448" y1="5.45" x2="19.744" y2="5.45" gradientTransform="rotate(10.218 17 11.793) scale(.9962)" gradientUnits="userSpaceOnUse"><stop offset="0" stop-color="#930000"/><stop offset=".058" stop-color="#ac0000"/><stop offset=".14" stop-color="#c80000"/><stop offset=".211" stop-color="#da0000"/><stop offset=".263" stop-color="#e00000"/><stop offset=".415" stop-color="#d00000"/><stop offset=".71" stop-color="#a80000"/><stop offset=".753" stop-color="#a10000"/><stop offset="1" stop-color="#850000"/></linearGradient><linearGradient id="prefix__prefix__eb1258e0-6d50-4aee-bb82-9fa308768394" x1="13.828" y1="5.213" x2="20.08" y2="5.213" gradientTransform="rotate(10.621 15.957 9.532)" gradientUnits="userSpaceOnUse"><stop offset="0" stop-color="#900000"/><stop offset=".063" stop-color="#ac0000"/><stop offset=".143" stop-color="#c80000"/><stop offset=".212" stop-color="#da0000"/><stop offset=".263" stop-color="#e00000"/><stop offset=".411" stop-color="#d00000"/><stop offset=".698" stop-color="#a80000"/><stop offset=".753" stop-color="#9f0000"/><stop offset="1" stop-color="#810000"/></linearGradient><linearGradient id="prefix__prefix__a56562ae-ccbd-46cb-8b3b-312cb0ef6fce" x1="13.246" y1="4.324" x2="19.453" y2="4.324" gradientTransform="rotate(11.023 11.154 12.062) scale(.9973)" gradientUnits="userSpaceOnUse"><stop offset="0" stop-color="#8e0000"/><stop offset=".066" stop-color="#ac0000"/><stop offset=".145" stop-color="#c80000"/><stop offset=".213" stop-color="#da0000"/><stop offset=".263" stop-color="#e00000"/><stop offset=".408" stop-color="#d00000"/><stop offset=".688" stop-color="#a80000"/><stop offset=".753" stop-color="#9d0000"/><stop offset="1" stop-color="#7e0000"/></linearGradient><linearGradient id="prefix__prefix__bb728747-578d-4917-ab8e-66d20f527a90" x1="12.973" y1="5.048" x2="19.136" y2="5.048" gradientTransform="rotate(11.433 14.865 13.652) scale(.9979)" gradientUnits="userSpaceOnUse"><stop offset="0" stop-color="#8b0000"/><stop offset=".072" stop-color="#ad0000"/><stop offset=".148" stop-color="#c90000"/><stop offset=".214" stop-color="#db0000"/><stop offset=".263" stop-color="#e10000"/><stop offset=".401" stop-color="#d10000"/><stop offset=".667" stop-color="#a90000"/><stop offset=".753" stop-color="#9a0000"/><stop offset="1" stop-color="#7b0000"/></linearGradient><linearGradient id="prefix__prefix__af6856a7-e367-4c17-8601-459ddb6d3880" x1="13.345" y1="4.81" x2="19.463" y2="4.81" gradientTransform="rotate(11.841 14 11.565)" gradientUnits="userSpaceOnUse"><stop offset="0" stop-color="#800"/><stop offset=".076" stop-color="#ad0000"/><stop offset=".151" stop-color="#c90000"/><stop offset=".215" stop-color="#db0000"/><stop offset=".263" stop-color="#e10000"/><stop offset=".398" stop-color="#d10000"/><stop offset=".658" stop-color="#a90000"/><stop offset=".753" stop-color="#980000"/><stop offset="1" stop-color="#780000"/></linearGradient><linearGradient id="prefix__prefix__a640f68a-596d-4d5b-b6a5-546ab591ff3a" x1="13.086" y1="5.537" x2="19.158" y2="5.537" gradientTransform="rotate(12.243 17.388 13.029)" gradientUnits="userSpaceOnUse"><stop offset="0" stop-color="#860000"/><stop offset=".08" stop-color="#ae0000"/><stop offset=".153" stop-color="#ca0000"/><stop offset=".217" stop-color="#dc0000"/><stop offset=".263" stop-color="#e20000"/><stop offset=".393" stop-color="#d20000"/><stop offset=".645" stop-color="#a00"/><stop offset=".753" stop-color="#960000"/><stop offset="1" stop-color="#740000"/></linearGradient><linearGradient id="prefix__prefix__e8e21830-92eb-4cb8-b9ca-d63a6c540d19" x1="13.459" y1="5.294" x2="19.484" y2="5.294" gradientTransform="rotate(12.651 16.49 11.087)" gradientUnits="userSpaceOnUse"><stop offset="0" stop-color="#830000"/><stop offset=".006" stop-color="#860000"/><stop offset=".084" stop-color="#ae0000"/><stop offset=".155" stop-color="#ca0000"/><stop offset=".217" stop-color="#dc0000"/><stop offset=".263" stop-color="#e20000"/><stop offset=".39" stop-color="#d20000"/><stop offset=".637" stop-color="#a00"/><stop offset=".753" stop-color="#940000"/><stop offset="1" stop-color="#710000"/></linearGradient><linearGradient id="prefix__prefix__a85ffe04-9f24-439b-8837-df48a8eaee97" x1="18.603" y1="13.848" x2="24.15" y2="27.283" gradientTransform="rotate(12.651 16.49 11.087)" gradientUnits="userSpaceOnUse"><stop offset="0" stop-color="#f2fbff"/><stop offset=".305" stop-color="#e6e6e4"/><stop offset=".434" stop-color="#c7c7c7"/><stop offset=".57" stop-color="#e2e1e1"/><stop offset=".949" stop-color="#e6f7ff"/></linearGradient><style>.prefix__prefix__a198579d-265c-451a-9832-ec884fbb68f6{isolation:isolate}.prefix__prefix__edf608c3-b4c1-4b06-87a3-bb3347ea4c3b{fill:#474747}.prefix__prefix__eecf4740-020d-4839-ab68-e763b8d14601{fill:#c2c2c2}.prefix__prefix__b20a8981-2f4c-4144-ac64-ad03d10432cb{fill:#fff}</style></defs><g class="prefix__prefix__a198579d-265c-451a-9832-ec884fbb68f6"><g id="prefix__prefix__efbc5b31-c09a-4a1b-8461-9ed001a99c16" data-name="Layer 8"><path d="M15.534 3.858l4.707 1.057-.277 1.217a.758.758 0 00-.02.166.64.64 0 00.011.116.597.597 0 00.026.123.783.783 0 00.03.082.832.832 0 00.066.126.997.997 0 00.285.29l.155.099.406.258c-.6-.148-2.134-.486-3.662-.822a325.772 325.772 0 00-3.455-.75l.262-.035.452-.066a1.045 1.045 0 00.242-.068.914.914 0 00.143-.075.821.821 0 00.17-.145.58.58 0 00.075-.1.705.705 0 00.115-.258z" opacity=".032" fill="url(#prefix__prefix__baf527ec-e051-4dc6-9cdf-0938eeb4c140)"/><path d="M15.534 3.858l4.707 1.057-.28 1.21a.768.768 0 00-.02.166.646.646 0 00.01.116.598.598 0 00.024.122.77.77 0 00.03.082.836.836 0 00.064.126.975.975 0 00.28.289l.154.099.404.257c-.615-.163-2.118-.496-3.637-.83-1.459-.321-2.841-.624-3.439-.733l.26-.036c.01-.002.443-.063.448-.069a1.039 1.039 0 00.238-.07.892.892 0 00.14-.076.811.811 0 00.167-.145.578.578 0 00.074-.1.718.718 0 00.112-.257z" opacity=".065" fill="url(#prefix__prefix__e4e2c3df-84f7-43d3-bdff-3ca95a659aeb)"/><path d="M15.534 3.858l4.707 1.057-.284 1.205a.787.787 0 00-.02.164.638.638 0 00.008.115.6.6 0 00.024.122.788.788 0 00.029.082.832.832 0 00.063.125.953.953 0 00.275.29l.153.098.403.257c-.63-.18-2.104-.507-3.613-.84-1.455-.32-2.805-.615-3.422-.716l.258-.036a9.53 9.53 0 00.443-.072 1.044 1.044 0 00.234-.073.885.885 0 00.138-.077.803.803 0 00.165-.145.583.583 0 00.072-.1.732.732 0 00.11-.256z" opacity=".097" fill="url(#prefix__prefix__beb4426b-5dbe-459a-8445-6cb8fb1d5b23)"/><path d="M15.534 3.858l4.707 1.057-.287 1.199a.814.814 0 00-.022.163.642.642 0 00.008.114.598.598 0 00.023.121.76.76 0 00.028.082.814.814 0 00.062.126.931.931 0 00.27.29l.152.098.4.256c-.643-.195-2.088-.518-3.587-.848-1.45-.32-2.77-.608-3.405-.7l.256-.037c.02-.003.428-.064.438-.075a1.045 1.045 0 00.23-.076.878.878 0 00.136-.077.8.8 0 00.162-.146.577.577 0 00.07-.1.745.745 0 00.107-.254z" opacity=".129" fill="url(#prefix__prefix__b3230b2d-8e09-4b0c-8e98-fc6b17bd9718)"/><path d="M15.534 3.858l4.707 1.057-.29 1.193a.833.833 0 00-.023.162.645.645 0 00.007.114.605.605 0 00.023.12.754.754 0 00.027.082.806.806 0 00.06.126.908.908 0 00.265.289l.15.098.4.256c-.658-.212-2.073-.529-3.563-.857-1.447-.32-2.733-.6-3.389-.684l.254-.037a5.5 5.5 0 00.434-.078 1.048 1.048 0 00.226-.078.86.86 0 00.134-.078.792.792 0 00.159-.146.589.589 0 00.07-.1.76.76 0 00.102-.254z" opacity=".161" fill="url(#prefix__prefix__bd64d5ff-3155-4cb5-a4a0-317e612b11e2)"/><path d="M15.534 3.858l4.707 1.057-.293 1.187a.859.859 0 00-.024.16.638.638 0 00.006.114.603.603 0 00.022.12.747.747 0 00.026.082.803.803 0 00.06.125.888.888 0 00.259.29c.006.005.14.09.15.098l.397.255c-.672-.228-2.058-.54-3.538-.866-1.442-.319-2.697-.592-3.372-.668l.251-.037c.03-.004.414-.065.43-.08a1.042 1.042 0 00.223-.081.837.837 0 00.131-.08.778.778 0 00.156-.146.595.595 0 00.068-.1.78.78 0 00.1-.252z" opacity=".194" fill="url(#prefix__prefix__eb73d890-609f-42b6-b747-60489dfd7d67)"/><path d="M15.534 3.858l4.707 1.057-.296 1.18a.882.882 0 00-.025.16.651.651 0 00.005.114.61.61 0 00.02.119.742.742 0 00.026.082.794.794 0 00.059.125.87.87 0 00.254.289c.007.006.136.09.148.098l.397.254c-.687-.243-2.044-.55-3.514-.875-1.438-.317-2.662-.583-3.355-.65l.249-.038a3.948 3.948 0 00.424-.084 1.05 1.05 0 00.22-.083.84.84 0 00.13-.08.776.776 0 00.152-.147.594.594 0 00.067-.1.8.8 0 00.096-.25z" opacity=".226" fill="url(#prefix__prefix__a293de83-19b9-4d68-9d6e-41c3f8e189eb)"/><path d="M15.534 3.858l4.707 1.057-.3 1.175a.908.908 0 00-.026.159.654.654 0 00.005.112.616.616 0 00.02.119.742.742 0 00.025.081.79.79 0 00.057.125.851.851 0 00.249.29c.008.007.134.088.147.098l.395.253a33.62 33.62 0 00-3.489-.884 31.665 31.665 0 00-3.339-.634l.247-.037a3.359 3.359 0 00.42-.088 1.05 1.05 0 00.216-.085.815.815 0 00.127-.081.773.773 0 00.15-.147.592.592 0 00.066-.1.82.82 0 00.093-.25z" opacity=".258" fill="url(#prefix__prefix__acf84888-c640-4742-8ab7-47a90f7c2bef)"/><path d="M15.534 3.858l4.707 1.057-.303 1.169a.949.949 0 00-.027.158.659.659 0 00.004.111.61.61 0 00.019.119.744.744 0 00.024.081.777.777 0 00.056.125.83.83 0 00.244.289c.009.008.13.088.146.098l.393.253a29.832 29.832 0 00-3.464-.893 27.899 27.899 0 00-3.322-.618l.245-.037a2.915 2.915 0 00.415-.09 1.062 1.062 0 00.212-.089.806.806 0 00.125-.081.762.762 0 00.148-.148.6.6 0 00.063-.1.842.842 0 00.09-.248z" opacity=".29" fill="url(#prefix__prefix__a2f52880-f462-4ab3-b54b-561f36c8209d)"/><path d="M15.534 3.858l4.707 1.057-.306 1.163a.98.98 0 00-.028.157.652.652 0 00.003.11.604.604 0 00.018.118.732.732 0 00.024.082.767.767 0 00.054.125.813.813 0 00.24.288c.009.01.127.087.144.099l.391.252a26.809 26.809 0 00-3.439-.902 24.905 24.905 0 00-3.305-.602l.242-.037a2.563 2.563 0 00.411-.094 1.07 1.07 0 00.208-.09.81.81 0 00.123-.083.758.758 0 00.145-.147.602.602 0 00.062-.101.867.867 0 00.087-.247z" opacity=".323" fill="url(#prefix__prefix__bdb75d3a-0734-48ae-8123-c4c0ac213018)"/><path d="M15.534 3.858l4.707 1.057-.309 1.157a1.003 1.003 0 00-.029.156.656.656 0 00.002.11.615.615 0 00.017.117.732.732 0 00.023.081.756.756 0 00.053.125.797.797 0 00.234.289c.01.01.125.085.144.098l.39.251a24.305 24.305 0 00-3.415-.91 22.485 22.485 0 00-3.288-.586l.24-.037a2.268 2.268 0 00.406-.097 1.083 1.083 0 00.204-.093.785.785 0 00.121-.083.754.754 0 00.142-.148.606.606 0 00.06-.101.894.894 0 00.085-.245z" opacity=".355" fill="url(#prefix__prefix__e73396d1-2297-4f7e-8c22-81a9a1604e46)"/><path d="M15.534 3.858l4.707 1.057-.312 1.15a1.057 1.057 0 00-.03.155.67.67 0 00.001.11.626.626 0 00.016.117.72.72 0 00.023.081.75.75 0 00.051.125.782.782 0 00.23.289c.01.011.121.084.142.097l.388.251a22.214 22.214 0 00-3.39-.919 20.45 20.45 0 00-3.272-.57l.238-.037a2.023 2.023 0 00.402-.1 1.096 1.096 0 00.2-.095.778.778 0 00.119-.084.744.744 0 00.139-.149.599.599 0 00.06-.1.925.925 0 00.08-.245z" opacity=".387" fill="url(#prefix__prefix__fbbb0e80-e1f5-40e9-8942-bb77753ea414)"/><path d="M15.534 3.858l4.707 1.057-.315 1.145a1.105 1.105 0 00-.031.153.665.665 0 000 .11.622.622 0 00.015.116.72.72 0 00.022.08.754.754 0 00.05.126.767.767 0 00.224.288c.013.012.12.083.142.098l.386.25a20.448 20.448 0 00-3.365-.928 18.744 18.744 0 00-3.255-.553l.236-.038a1.83 1.83 0 00.397-.103 1.105 1.105 0 00.197-.098.762.762 0 00.116-.084.734.734 0 00.136-.15.605.605 0 00.058-.1.959.959 0 00.078-.243z" opacity=".419" fill="url(#prefix__prefix__afa3d6de-af30-4378-941a-a9e0983d666c)"/><path d="M15.534 3.858l4.707 1.057-.319 1.139a1.153 1.153 0 00-.031.152.657.657 0 00-.001.109.633.633 0 00.014.116.69.69 0 00.021.08.738.738 0 00.05.125.752.752 0 00.218.289c.014.013.117.081.14.097l.385.25a18.946 18.946 0 00-3.34-.937 17.3 17.3 0 00-3.238-.537l.233-.038a1.654 1.654 0 00.393-.106 1.131 1.131 0 00.193-.1.755.755 0 00.114-.086.728.728 0 00.133-.149.606.606 0 00.057-.101 1.004 1.004 0 00.075-.242z" opacity=".452" fill="url(#prefix__prefix__e66b8ce1-6d10-4f40-a5b3-a9317433ea55)"/><path d="M15.534 3.858l4.707 1.057-.322 1.133a1.228 1.228 0 00-.033.151.673.673 0 00-.001.108.63.63 0 00.013.116.711.711 0 00.02.08.72.72 0 00.049.125.736.736 0 00.213.288c.015.015.114.08.14.098l.382.248a17.61 17.61 0 00-3.315-.945 16.042 16.042 0 00-3.222-.52l.231-.038a1.511 1.511 0 00.389-.11 1.156 1.156 0 00.189-.102.739.739 0 00.112-.087.726.726 0 00.13-.15.61.61 0 00.056-.101 1.048 1.048 0 00.071-.24z" opacity=".484" fill="url(#prefix__prefix__ba19146f-0070-41a6-98d0-0cf874da223d)"/><path d="M15.534 3.858l4.707 1.057-.325 1.127a1.275 1.275 0 00-.034.15.678.678 0 00-.002.108.623.623 0 00.012.115.697.697 0 00.02.08.918.918 0 00.255.413c.016.015.111.079.139.097l.38.248a16.466 16.466 0 00-3.29-.954 14.948 14.948 0 00-3.205-.504l.229-.038a1.377 1.377 0 00.384-.113 1.188 1.188 0 00.185-.105.734.734 0 00.11-.087.72.72 0 00.128-.15.608.608 0 00.053-.102 1.1 1.1 0 00.069-.239z" opacity=".516" fill="url(#prefix__prefix__fb2ac886-6b03-4d25-b980-5d52ff1b271c)"/><path d="M15.534 3.858l4.707 1.057-.328 1.12a1.375 1.375 0 00-.035.15.686.686 0 00-.003.107.629.629 0 00.011.114.698.698 0 00.02.08.92.92 0 00.248.413c.017.017.108.078.137.098l.38.247a15.448 15.448 0 00-3.266-.963 13.98 13.98 0 00-3.188-.488l.226-.038a1.266 1.266 0 00.38-.116 1.218 1.218 0 00.181-.107.882.882 0 00.233-.239.618.618 0 00.052-.102 1.174 1.174 0 00.066-.237z" opacity=".548" fill="url(#prefix__prefix__a56554f1-508a-4761-bdba-94e087291028)"/><path d="M15.534 3.858l4.707 1.057-.331 1.115a1.452 1.452 0 00-.036.148.677.677 0 00-.004.106.64.64 0 00.01.114.97.97 0 00.063.205.698.698 0 00.198.288c.018.017.106.076.136.097l.378.247a14.55 14.55 0 00-3.24-.972 13.127 13.127 0 00-3.172-.472l.224-.038a1.167 1.167 0 00.374-.119 1.26 1.26 0 00.178-.11.696.696 0 00.106-.089.711.711 0 00.122-.15.622.622 0 00.05-.103 1.242 1.242 0 00.063-.236z" opacity=".581" fill="url(#prefix__prefix__b93a9245-b3e0-4fa6-a782-1c64bf569226)"/><path d="M15.534 3.858l4.707 1.057-.334 1.109c-.005.021-.037.125-.037.147a.682.682 0 00-.005.106.645.645 0 00.01.113.975.975 0 00.06.204.688.688 0 00.193.288c.019.019.103.076.135.098l.376.246a13.739 13.739 0 00-3.216-.981 12.37 12.37 0 00-3.155-.456l.222-.038a1.083 1.083 0 00.37-.122 1.314 1.314 0 00.174-.112.696.696 0 00.103-.09.71.71 0 00.12-.151.62.62 0 00.05-.102 1.323 1.323 0 00.059-.235z" opacity=".613" fill="url(#prefix__prefix__b537ed88-3c8f-4031-a324-d02bd9dc1ac3)"/><path d="M15.534 3.858l4.707 1.057-.338 1.103c-.004.02-.037.126-.037.146a.702.702 0 00-.006.105.64.64 0 00.009.113.68.68 0 00.017.08.687.687 0 00.041.124.676.676 0 00.189.288 1.577 1.577 0 00.133.097l.375.245a13.013 13.013 0 00-3.191-.99 11.68 11.68 0 00-3.139-.438l.22-.039a1.003 1.003 0 00.365-.125 1.37 1.37 0 00.17-.115.675.675 0 00.101-.09.7.7 0 00.117-.152.624.624 0 00.048-.102 1.42 1.42 0 00.056-.234z" opacity=".645" fill="url(#prefix__prefix__bf58fb67-2745-4620-8849-7d521981cef1)"/><path d="M15.534 3.858l4.707 1.057-.34 1.097c-.005.018-.04.127-.04.145a.696.696 0 00-.006.104.712.712 0 00.024.192.67.67 0 00.04.124.664.664 0 00.184.289 1.442 1.442 0 00.132.096l.373.245a12.36 12.36 0 00-3.166-.999 11.062 11.062 0 00-3.122-.422l.217-.039a.934.934 0 00.361-.128 1.43 1.43 0 00.166-.117.67.67 0 00.1-.091.703.703 0 00.113-.153.63.63 0 00.047-.102 1.539 1.539 0 00.053-.232z" opacity=".677" fill="url(#prefix__prefix__b3ca864c-a6df-446d-ab3a-f7b986f51fab)"/><path d="M15.534 3.858l4.707 1.057-.344 1.09c-.004.017-.04.128-.04.145a.702.702 0 00-.007.104.7.7 0 00.023.191.662.662 0 00.039.124.655.655 0 00.178.288 1.36 1.36 0 00.131.097l.371.244a11.759 11.759 0 00-3.141-1.008 10.507 10.507 0 00-3.106-.406l.216-.039a.87.87 0 00.356-.13 1.512 1.512 0 00.163-.12.663.663 0 00.096-.093.7.7 0 00.111-.152.634.634 0 00.045-.103 1.681 1.681 0 00.05-.23z" opacity=".71" fill="url(#prefix__prefix__b262eec3-76eb-4f2b-8be8-3b44e9cc47c9)"/><path d="M15.534 3.858l4.707 1.057L19.894 6c-.003.014-.04.128-.04.143a.706.706 0 00-.01.103.886.886 0 00.06.315.645.645 0 00.173.288 1.256 1.256 0 00.13.096l.37.244a11.217 11.217 0 00-3.117-1.017 9.996 9.996 0 00-3.089-.39l.213-.038a.814.814 0 00.352-.135 1.602 1.602 0 00.159-.122.649.649 0 00.094-.093.692.692 0 00.109-.153.642.642 0 00.043-.102 1.857 1.857 0 00.047-.23z" opacity=".742" fill="url(#prefix__prefix__bae5ab6c-574f-4e56-a48b-8b3c6e4b4f9f)"/><path d="M15.534 3.858l4.707 1.057-.35 1.079c-.003.012-.042.129-.042.142a.716.716 0 00-.01.103.65.65 0 00.006.11.661.661 0 00.015.08.65.65 0 00.036.123.636.636 0 00.168.288 1.187 1.187 0 00.129.097l.367.242a10.72 10.72 0 00-3.091-1.025 9.53 9.53 0 00-3.072-.373l.21-.04a.763.763 0 00.348-.137 1.725 1.725 0 00.155-.124.645.645 0 00.092-.094.694.694 0 00.106-.153.648.648 0 00.042-.103 2.093 2.093 0 00.044-.229z" opacity=".774" fill="url(#prefix__prefix__eb2c0417-1573-4f78-b4d8-e296a26c8058)"/><path d="M15.534 3.858l4.707 1.057-.353 1.073c-.003.01-.043.13-.043.14a.723.723 0 00-.01.103.664.664 0 00.004.11 1.087 1.087 0 00.049.203.63.63 0 00.163.288 1.123 1.123 0 00.128.096l.366.242a10.266 10.266 0 00-3.067-1.034 9.1 9.1 0 00-3.056-.357l.209-.04a.716.716 0 00.343-.14 1.895 1.895 0 00.151-.127.636.636 0 00.09-.095.691.691 0 00.103-.153.658.658 0 00.04-.103c.011-.015.037-.209.041-.227z" opacity=".806" fill="url(#prefix__prefix__b5a4072d-d33e-4358-bae4-84057a60d019)"/><path d="M15.534 3.858l4.707 1.057-.357 1.067c-.002.009-.043.13-.043.14a.714.714 0 00-.011.101.67.67 0 00.003.11 1.093 1.093 0 00.047.203.619.619 0 00.158.287 1.042 1.042 0 00.127.097l.364.241a9.845 9.845 0 00-3.042-1.043 8.71 8.71 0 00-3.039-.34l.206-.04a.673.673 0 00.339-.144c.049-.037.095-.081.147-.13a.629.629 0 00.088-.095.695.695 0 00.1-.154.662.662 0 00.04-.103c.008-.012.034-.21.037-.226z" opacity=".839" fill="url(#prefix__prefix__eb1258e0-6d50-4aee-bb82-9fa308768394)"/><path d="M15.534 3.858l4.707 1.057-.36 1.06c-.001.008-.044.132-.044.14a.723.723 0 00-.012.1.674.674 0 00.002.11.631.631 0 00.013.079.618.618 0 00.032.123.613.613 0 00.153.288.99.99 0 00.126.096l.362.24a9.457 9.457 0 00-3.017-1.05 8.348 8.348 0 00-3.022-.325l.204-.04a.636.636 0 00.334-.147c.047-.038.092-.083.143-.132a.62.62 0 00.086-.096.692.692 0 00.097-.154.666.666 0 00.038-.104c.007-.01.032-.212.035-.224z" opacity=".871" fill="url(#prefix__prefix__a56562ae-ccbd-46cb-8b3b-312cb0ef6fce)"/><path d="M15.534 3.858l4.707 1.057-.363 1.055c-.001.005-.045.132-.045.137a.746.746 0 00-.013.101.67.67 0 00.001.109 1.141 1.141 0 00.043.202.607.607 0 00.148.288.938.938 0 00.124.096l.361.24a9.097 9.097 0 00-2.992-1.061 8.01 8.01 0 00-3.005-.308l.201-.04a.6.6 0 00.33-.15c.046-.039.09-.085.14-.134a.613.613 0 00.083-.097.69.69 0 00.094-.155.68.68 0 00.037-.103c.005-.008.03-.214.031-.223z" opacity=".903" fill="url(#prefix__prefix__bb728747-578d-4917-ab8e-66d20f527a90)"/><path d="M15.534 3.858l4.707 1.057-.366 1.049-.046.136a.738.738 0 00-.014.1.685.685 0 000 .109.626.626 0 00.012.078.6.6 0 00.03.123.6.6 0 00.142.288.89.89 0 00.123.096l.36.24a8.762 8.762 0 00-2.968-1.07 7.7 7.7 0 00-2.989-.292l.2-.04a.569.569 0 00.324-.153c.045-.04.088-.086.137-.136a.608.608 0 00.08-.099.692.692 0 00.127-.258c.004-.005.027-.216.029-.222z" opacity=".935" fill="url(#prefix__prefix__af6856a7-e367-4c17-8601-459ddb6d3880)"/><path d="M15.534 3.858l4.707 1.057-.37 1.043-.047.135a.764.764 0 00-.014.1.678.678 0 000 .107.623.623 0 00.01.079.599.599 0 00.028.123.595.595 0 00.138.288.84.84 0 00.122.095l.358.24a8.453 8.453 0 00-2.943-1.08 7.41 7.41 0 00-2.972-.275l.197-.04a.539.539 0 00.32-.156c.044-.04.085-.088.133-.139a.596.596 0 00.079-.099.687.687 0 00.089-.155.679.679 0 00.033-.104l.025-.22z" opacity=".968" fill="url(#prefix__prefix__a640f68a-596d-4d5b-b6a5-546ab591ff3a)"/><path d="M20.45 7.115a8.163 8.163 0 00-2.918-1.087 7.137 7.137 0 00-2.955-.26l.195-.04c.23-.033.309-.151.444-.3a.577.577 0 00.077-.1.696.696 0 00.118-.26l.123-1.21 4.707 1.057-.42 1.171a.693.693 0 00-.007.285.583.583 0 00.027.123.508.508 0 00.253.383z" fill="url(#prefix__prefix__e8e21830-92eb-4cb8-b9ca-d63a6c540d19)"/><path d="M19.96 6.422c-.628-.159-.992-.566-.896-1.128-.158.563-.853.736-1.515.587-.658-.147-1.205-.56-1.106-1.137-.154.55-.666.724-1.301.597a.73.73 0 00.116-.261l.305-1.356 4.707 1.057-.304 1.355a.731.731 0 00-.006.286z" style="mix-blend-mode:multiply" fill="#f2f2f2"/><path d="M18.757.523a1.682 1.682 0 101.276 2.01 1.684 1.684 0 00-1.276-2.01zm-.711 3.17a1.564 1.564 0 111.874-1.185 1.57 1.57 0 01-1.874 1.185z" fill="#828282"/><path d="M18.747.568a1.638 1.638 0 101.244 1.956A1.639 1.639 0 0018.747.568zm-.701 3.125a1.564 1.564 0 111.874-1.185 1.57 1.57 0 01-1.874 1.185z" fill="#bababa"/><path d="M18.74.604a1.6 1.6 0 101.213 1.91A1.602 1.602 0 0018.74.604zm-.693 3.088a1.563 1.563 0 111.872-1.185 1.57 1.57 0 01-1.872 1.185z" fill="#6e6e6e"/><path class="prefix__prefix__edf608c3-b4c1-4b06-87a3-bb3347ea4c3b" d="M20.52 4.59l-.377 1.677-.067.045a1.33 1.33 0 01-.958-1.522l.001-.006.263-1.17.615.138a.697.697 0 01.522.838zm-5.088-1.142l-.377 1.677.042.07a1.33 1.33 0 001.516-.967l.002-.007.262-1.169-.615-.138a.697.697 0 00-.83.534z"/><path class="prefix__prefix__edf608c3-b4c1-4b06-87a3-bb3347ea4c3b" d="M19.426 3.603l-.266 1.188-.002.006a1.325 1.325 0 01-2.584-.58l.001-.007.267-1.187z"/><path class="prefix__prefix__eecf4740-020d-4839-ab68-e763b8d14601" d="M16.857 3.048l-.255 1.135-.002.007a1.307 1.307 0 01-1.544.932l.38-1.69a.684.684 0 01.748-.532.44.44 0 01.068.012z"/><path class="prefix__prefix__b20a8981-2f4c-4144-ac64-ad03d10432cb" d="M19.402 3.619l-.255 1.136-.001.006a1.306 1.306 0 01-2.546-.57l.002-.008.255-1.135z"/><path d="M20.523 4.573l-.38 1.69a1.307 1.307 0 01-.997-1.502l.001-.006.255-1.136.605.136a.685.685 0 01.516.818z" fill="#858585"/><path class="prefix__prefix__eecf4740-020d-4839-ab68-e763b8d14601" d="M20.127 3.796l.004-.007a17.25 17.25 0 00-1.96-.553 17.725 17.725 0 00-1.987-.336.44.44 0 01.068.012l3.755.843a.692.692 0 01.08.023c.014.005.026.012.04.018z"/><path d="M26.113 19.597a11.385 11.385 0 11-8.615-13.601 11.385 11.385 0 018.615 13.601z" opacity=".032" fill="url(#prefix__prefix__bac32c22-0321-4c9f-803b-0bf86f982e05)"/><path d="M26.102 19.595a11.374 11.374 0 11-8.607-13.589 11.374 11.374 0 018.607 13.589z" opacity=".065" fill="url(#prefix__prefix__e8c42025-d8b4-44c6-938c-f14c5b3b42b0)"/><path d="M26.092 19.593a11.363 11.363 0 11-8.599-13.577 11.363 11.363 0 018.599 13.577z" opacity=".097" fill="url(#prefix__prefix__e0e7507d-c368-4c26-83d1-81aaf147413a)"/><path d="M26.081 19.59a11.352 11.352 0 11-8.59-13.563 11.352 11.352 0 018.59 13.563z" opacity=".129" fill="url(#prefix__prefix__a3536005-ccab-4610-a6ec-5b1db4120d38)"/><path d="M26.07 19.588a11.342 11.342 0 11-8.582-13.55 11.342 11.342 0 018.583 13.55z" opacity=".161" fill="url(#prefix__prefix__fce63ccc-ee03-4b85-bd82-8ad48d8f1f23)"/><path d="M26.06 19.585a11.331 11.331 0 11-8.574-13.537 11.331 11.331 0 018.574 13.537z" opacity=".194" fill="url(#prefix__prefix__b53af292-2399-4c2e-aefa-5bf769de98dc)"/><path d="M26.05 19.583a11.32 11.32 0 11-8.566-13.525 11.32 11.32 0 018.566 13.525z" opacity=".226" fill="url(#prefix__prefix__b4208044-5e66-4ca9-8a52-f30cd032e968)"/><path d="M26.04 19.58a11.31 11.31 0 11-8.56-13.51 11.31 11.31 0 018.56 13.51z" opacity=".258" fill="url(#prefix__prefix__e1b8fe36-3cec-48d4-a340-e43fdcdb4672)"/><path d="M26.029 19.578a11.299 11.299 0 11-8.55-13.499 11.299 11.299 0 018.55 13.5z" opacity=".29" fill="url(#prefix__prefix__eaff0cc7-76ab-4eb3-b992-10a32e576b2f)"/><path d="M26.018 19.576A11.288 11.288 0 1117.477 6.09a11.288 11.288 0 018.541 13.486z" opacity=".323" fill="url(#prefix__prefix__b1ec1937-ccd1-4b6f-b175-09c7d1d17962)"/><path d="M26.008 19.574A11.277 11.277 0 1117.474 6.1a11.277 11.277 0 018.534 13.474z" opacity=".355" fill="url(#prefix__prefix__b8ce2080-3796-4d0c-89fe-1d1848b3605c)"/><path d="M25.997 19.571a11.267 11.267 0 11-8.525-13.46 11.267 11.267 0 018.525 13.46z" opacity=".387" fill="url(#prefix__prefix__f8428747-f2bf-4fa4-9dcd-f65d0859a985)"/><path d="M25.987 19.569A11.256 11.256 0 1117.47 6.121a11.256 11.256 0 018.517 13.448z" opacity=".419" fill="url(#prefix__prefix__a1fe0d11-7348-40a2-8a23-902440038bf6)"/><path d="M25.976 19.567a11.245 11.245 0 11-8.509-13.435 11.245 11.245 0 018.51 13.435z" opacity=".452" fill="url(#prefix__prefix__ba7977dc-ce99-428b-ab2f-351c6c76f668)"/><path d="M25.966 19.564a11.234 11.234 0 11-8.501-13.422 11.234 11.234 0 018.501 13.422z" opacity=".484" fill="url(#prefix__prefix__bb1e22a4-4a2d-4281-b827-aa4825f8cfc2)"/><path d="M25.956 19.562a11.224 11.224 0 11-8.494-13.41 11.224 11.224 0 018.494 13.41z" opacity=".516" fill="url(#prefix__prefix__ecc263f9-1316-48ec-9b3f-e7c9e95280a2)"/><path d="M25.945 19.56A11.213 11.213 0 1117.46 6.163a11.213 11.213 0 018.485 13.397z" opacity=".548" fill="url(#prefix__prefix__b1318c7f-a07f-44f3-907f-b29c830e90f8)"/><path d="M25.935 19.557a11.202 11.202 0 11-8.477-13.383 11.202 11.202 0 018.477 13.383z" opacity=".581" fill="url(#prefix__prefix__a1712a5e-ccf9-4485-bdfd-077f4745558f)"/><path d="M25.924 19.555a11.191 11.191 0 11-8.469-13.371 11.191 11.191 0 018.47 13.37z" opacity=".613" fill="url(#prefix__prefix__b6aa009b-2a87-40ac-8fee-76fcc8293a82)"/><path d="M25.914 19.553a11.18 11.18 0 11-8.461-13.358 11.18 11.18 0 018.46 13.358z" opacity=".645" fill="url(#prefix__prefix__a5575226-829c-4619-b101-52656e2d91a8)"/><path d="M25.903 19.55a11.17 11.17 0 11-8.452-13.345 11.17 11.17 0 018.452 13.345z" opacity=".677" fill="url(#prefix__prefix__afcf2b6e-bc80-47aa-acd8-7ed7b5cd911a)"/><path d="M25.893 19.548a11.16 11.16 0 11-8.445-13.333 11.16 11.16 0 018.445 13.333z" opacity=".71" fill="url(#prefix__prefix__b544eaf6-aaad-431a-9f6a-eb58d1c3f8d0)"/><path d="M25.882 19.545a11.149 11.149 0 11-8.436-13.32 11.149 11.149 0 018.436 13.32z" opacity=".742" fill="url(#prefix__prefix__b6f55cb8-13e7-4930-a93b-59cbc0d8b23c)"/><path d="M25.872 19.543a11.138 11.138 0 11-8.428-13.307 11.138 11.138 0 018.428 13.307z" opacity=".774" fill="url(#prefix__prefix__e0bd1358-436c-4c5c-b54b-0cd15aeb29f7)"/><path d="M25.861 19.54a11.127 11.127 0 11-8.42-13.293 11.127 11.127 0 018.42 13.294z" opacity=".806" fill="url(#prefix__prefix__a22330d6-d7ac-4d03-b59e-0621be0b885e)"/><path d="M25.85 19.538a11.116 11.116 0 11-8.411-13.28 11.116 11.116 0 018.412 13.28z" opacity=".839" fill="url(#prefix__prefix__f8f5b852-92b0-47fa-a58d-fe07096cd462)"/><path d="M25.84 19.536a11.106 11.106 0 11-8.403-13.268 11.106 11.106 0 018.403 13.268z" opacity=".871" fill="url(#prefix__prefix__e61f70d5-6efc-4132-be5c-9a27ffa01a82)"/><path d="M25.83 19.534a11.095 11.095 0 11-8.396-13.256 11.095 11.095 0 018.396 13.256z" opacity=".903" fill="url(#prefix__prefix__e00703c3-9384-4f01-8276-7cd1e241ad07)"/><path d="M25.82 19.531A11.084 11.084 0 1117.431 6.29a11.084 11.084 0 018.387 13.242z" opacity=".935" fill="url(#prefix__prefix__a1180d03-ddb8-44b7-9c6d-3d7fc634a6b1)"/><path d="M25.809 19.529a11.073 11.073 0 11-8.38-13.23 11.073 11.073 0 018.38 13.23z" opacity=".968" fill="url(#prefix__prefix__b4b97752-9cbb-431f-998f-45037ce80207)"/><path d="M25.798 19.527a11.063 11.063 0 11-8.37-13.217 11.063 11.063 0 018.37 13.217z" fill="url(#prefix__prefix__f26fb322-56cf-46c4-b219-eb802ef54b9d)"/><path d="M14.25 7.517c1.772 1.521 1.604 4.623-.376 6.93-1.98 2.305-5.02 2.94-6.792 1.42-1.772-1.522-1.603-4.624.377-6.93 1.98-2.305 5.02-2.94 6.792-1.42z" style="mix-blend-mode:screen" fill="url(#prefix__prefix__f261c6de-4a96-41a1-b6de-bc28b1b4be46)"/><path d="M19.578 8.83c-2.533.694-3.817 4.063-2.867 7.522.95 3.46 3.773 5.7 6.306 5.005 2.533-.695 3.817-4.063 2.868-7.523-.95-3.46-3.773-5.7-6.307-5.005z" style="mix-blend-mode:screen" fill="url(#prefix__prefix__b381b6c3-1562-4654-ae92-0ca8fe17080d)"/><path d="M11.44 27.916a9.12 9.12 0 001.011.289c-.185-.042-.38-.086-.564-.137-.151-.055-.305-.1-.447-.152zm6-21.938a9.115 9.115 0 00-1.037-.172c.15.013.309.039.47.054.185.042.382.076.567.118z" fill="#ccc"/><path d="M11.86 28.01a3.175 3.175 0 00.591.195c-.107-.025-.215-.049-.31-.08a3.21 3.21 0 01-.282-.115zm5.58-22.032a2.84 2.84 0 00-.588-.066c.077.004.155-.003.233.006.02.005.029.007.04 0 .11.014.208.035.315.06zm-.588-.066l-.056-.001.056.001z" fill="#999"/><path class="prefix__prefix__b20a8981-2f4c-4144-ac64-ad03d10432cb" d="M17.126 5.917c-.012.008-.022.006-.041.001a4.36 4.36 0 00-.517-.075 5.07 5.07 0 01.558.074zm.31.08l.004-.02c.01.003.012-.007-.004.02z"/><path class="prefix__prefix__b20a8981-2f4c-4144-ac64-ad03d10432cb" d="M17.438 5.973a11.395 11.395 0 01-4.99 22.234 11.394 11.394 0 004.99-22.234z"/><path d="M23.784 22.299c.644-.603.938-.878.892-1.3l-.06-.045a.482.482 0 00-.122.085c-.277.293-.664.669-.962.942l-.272-.29c.628-.536.666-.568.68-.857 0-.004.002-.362-.273-.15-.227.202-.544.455-.78.647l-.365-.336c.304-.236.343-.266.39-.457.048-.191-.031-.514-.338-.332l-.52.373a38.26 38.26 0 00-1.11-.907 13.226 13.226 0 001.38-.902l.41.328a.674.674 0 00.2.024.483.483 0 00.124-.716l-.146-.121.46-.425c.183.148.423.35.604.5l.137.024a.538.538 0 00.09-.734l-.356-.296.354-.448c.221.187.512.44.727.634l.106.012a.483.483 0 00.126-.385.538.538 0 00-.105-.348c-.15-.136-.356-.31-.51-.442.727-1.29.15-1.31.083-1.307l-.05.062c-.083.192-.215.437-.31.622q-.093-.576-.236-1.139a.625.625 0 00-.16-.294c-.097-.082-.286-.056-.21.366.094.473.198 1.107.265 1.584l-.341.436q-.025-.353-.067-.703a.532.532 0 00-.14-.303c-.106-.088-.347-.075-.33.35q.056.576.07 1.161l-.454.415.002-.255a.49.49 0 00-.081-.278c-.147-.197-.447-.124-.485.294q-.005.351-.025.704a12.724 12.724 0 01-1.365.883c.08-.605.132-1.211.158-1.814.61-.407.61-.407.65-.566.04-.161-.083-.634-.451-.446l-.179.113q.001-.382-.012-.76c.72-.51.763-.606.779-.642.1-.222-.084-.734-.414-.55l-.414.325q-.028-.371-.07-.735c.558-.478.846-.78.856-.896.015-.173-.178-.62-.437-.46-.152.163-.372.364-.535.516q-.078-.484-.179-.949c-.084-.234-.135-.293-.307-.349-.157.036-.188.09-.182.319q.077.463.133.946c-.863-.655-.863-.655-.906-.658-.139-.012-.438.25-.11.633.326.262.765.607 1.096.863q.027.363.043.733c-.572-.44-.572-.44-.655-.449-.182-.018-.489.28-.156.677.247.193.58.447.83.637q.002.377-.008.759c-.253-.183-.274-.198-.354-.205-.17-.015-.577.281-.206.703l.518.4c-.04.602-.102 1.208-.188 1.812q-.672-.521-1.337-1.052.048-.35.089-.699a.427.427 0 00-.072-.293.364.364 0 00-.65.196l-.036.252-.566-.479q.09-.577.166-1.146a.419.419 0 00-.064-.28.344.344 0 00-.629.16l-.107.693-.536-.494c.1-.524.197-1.041.289-1.547a.557.557 0 00-.018-.215c-.091-.252-.49-.364-.629.077l-.245 1.109c-.753-.755-.753-.755-.814-.77a.383.383 0 00-.346.634c.198.216.468.498.67.71a6.86 6.86 0 00-1.127.37.393.393 0 00.06.718l.19-.005a99.4 99.4 0 001.487-.491l.532.502a4.393 4.393 0 00-.716.264.397.397 0 00.109.722l.194-.013c.32-.115.745-.275 1.063-.395l.568.49a2.093 2.093 0 00-.303.131.39.39 0 00.121.715l.196-.022.655-.26c.451.371.552.451 1.337 1.071-.564.265-.606.283-1.683.734-.648-.54-.648-.54-.8-.524a.405.405 0 00-.25.69l.188.165-.743.266c-.993-.857-.993-.857-1.13-.849a.39.39 0 00-.254.672l.522.46-.722.227c-1.344-1.19-1.344-1.19-1.458-1.19a.37.37 0 00-.234.65c.252.24.594.552.85.787-.286.08-.675.157-.954.257-.32.114-.341.508.056.659l.185.001c.284-.071.662-.172.945-.246q-.116.51-.225.978a.634.634 0 000 .124.386.386 0 00.714.029q.168-.641.345-1.36l.73-.219c-.064.242-.258.59-.156.819a.406.406 0 00.728-.066q.14-.495.277-1.03l.745-.267-.063.247a.479.479 0 00.044.267.413.413 0 00.712-.166q.088-.33.17-.673c.606-.242.626-.252 1.697-.743q-.048.24-.102.479-.149.657-.328 1.263a5.819 5.819 0 00-.74.31c-.23.139-.36.528.047.617l.193-.028.245-.097q-.115.332-.238.646a4.072 4.072 0 00-1.23.446c-.168.131-.29.418.078.5l.197-.02.656-.219q-.13.287-.267.555a6.973 6.973 0 00-1.617.496c-.102.061-.326.334.054.414l.175-.013c.317-.082.737-.201 1.053-.29q-.2.339-.412.637a.38.38 0 00-.04.09c-.016.126.287.268.624-.054q.23-.297.448-.634c.15.113.346.269.493.385.482.064.636-.307.58-.414a37.937 37.937 0 00-.713-.577q.148-.267.286-.554l.364.282a.743.743 0 00.13.04c.142.014.625-.232.435-.545-.182-.147-.428-.339-.611-.483q.13-.313.25-.645l.15.121a.817.817 0 00.146.05c.155.017.645-.274.389-.632l-.42-.34q.183-.606.332-1.263.055-.24.103-.48c.373.301.74.61 1.106.918q-.088.344-.188.672a.444.444 0 00.012.25c.082.141.412.161.58-.267q.038-.122.074-.246l.362.338c-.116.354-.245.695-.41 1.088a.546.546 0 00-.012.113c.022.183.337.17.543-.23q.134-.301.253-.619l.264.283c-.238.524-.703.942-.729 1.565.141.047.298-.056.467-.306a10.11 10.11 0 00.521-.96c.07.093.155.224.22.32.223.008.452-.385.46-.617-.063-.103-.158-.232-.227-.33z" style="mix-blend-mode:multiply" fill="url(#prefix__prefix__e10dc4ea-9777-4ccf-9f73-bcb418bc7976)"/><path class="prefix__prefix__b20a8981-2f4c-4144-ac64-ad03d10432cb" d="M23.608 22.131c.644-.602.938-.877.892-1.3l-.06-.044a.487.487 0 00-.122.084c-.277.294-.664.67-.962.942l-.272-.289c.628-.536.666-.569.68-.857 0-.004.002-.363-.272-.151-.227.202-.544.456-.781.647l-.365-.336c.305-.235.344-.266.39-.457.048-.19-.031-.514-.338-.332l-.52.374a36.71 36.71 0 00-1.11-.908 13.215 13.215 0 001.38-.902l.41.328a.673.673 0 00.201.025.483.483 0 00.123-.716l-.146-.122.46-.424c.183.147.424.349.604.5l.137.023a.538.538 0 00.09-.733l-.356-.297.354-.447c.221.186.512.44.727.633l.107.013a.484.484 0 00.125-.385.537.537 0 00-.105-.349c-.15-.135-.356-.31-.51-.441.728-1.29.15-1.31.083-1.308l-.05.063c-.083.191-.215.436-.31.621q-.093-.575-.236-1.138a.624.624 0 00-.16-.295c-.097-.081-.286-.055-.21.367.094.472.198 1.106.265 1.583l-.34.436q-.026-.353-.067-.703a.533.533 0 00-.14-.302c-.107-.089-.348-.076-.332.35q.057.576.07 1.16l-.453.415q.002-.127.002-.255a.49.49 0 00-.081-.278c-.147-.196-.447-.124-.484.295q-.006.35-.026.703a12.709 12.709 0 01-1.365.884c.08-.605.132-1.212.158-1.814.611-.407.611-.407.65-.566.04-.162-.083-.635-.451-.447l-.178.113q0-.382-.013-.76c.72-.51.763-.605.779-.641.1-.222-.084-.735-.414-.55l-.414.324q-.028-.37-.07-.734c.558-.478.846-.78.856-.897.015-.173-.177-.62-.437-.459-.152.162-.372.363-.535.515q-.078-.484-.179-.949c-.084-.234-.135-.292-.306-.348-.158.035-.189.088-.183.318q.077.463.133.946c-.863-.654-.863-.654-.906-.658-.138-.012-.438.251-.11.633.326.263.765.607 1.096.863q.027.363.043.733c-.572-.44-.572-.44-.655-.448-.182-.018-.489.278-.156.676.248.194.58.447.83.638q.002.376-.008.758c-.253-.182-.274-.197-.354-.205-.17-.015-.577.281-.206.704l.518.4a24.4 24.4 0 01-.187 1.812q-.672-.522-1.338-1.052.048-.35.089-.7a.426.426 0 00-.072-.292.364.364 0 00-.65.195l-.036.253-.566-.48q.09-.577.166-1.145a.42.42 0 00-.064-.282.344.344 0 00-.628.16l-.108.694-.536-.493c.1-.525.197-1.042.289-1.548a.56.56 0 00-.018-.215c-.091-.252-.49-.364-.628.077l-.245 1.109c-.753-.754-.753-.754-.815-.77a.383.383 0 00-.346.634c.198.216.469.498.67.71a6.864 6.864 0 00-1.127.37.393.393 0 00.06.719l.19-.006c.447-.143 1.042-.34 1.487-.49l.533.502a4.392 4.392 0 00-.717.263.397.397 0 00.109.722l.194-.012c.32-.115.745-.276 1.064-.396l.568.49a2.093 2.093 0 00-.304.132.39.39 0 00.122.715l.195-.022.655-.26c.451.37.552.45 1.338 1.07-.564.266-.606.283-1.684.734-.648-.54-.648-.54-.8-.523a.405.405 0 00-.25.69l.188.164-.742.266c-.994-.856-.994-.856-1.13-.848a.39.39 0 00-.255.671l.523.46-.723.227c-1.344-1.19-1.344-1.19-1.458-1.189a.37.37 0 00-.234.65c.252.24.594.552.85.786-.285.08-.675.157-.954.257-.32.115-.341.508.057.66h.184c.284-.071.662-.171.946-.245l-.226.978a.643.643 0 000 .124.386.386 0 00.715.028q.167-.64.344-1.36l.73-.219c-.064.242-.258.59-.156.82a.406.406 0 00.728-.066q.14-.496.277-1.03l.745-.268-.063.247a.478.478 0 00.044.267.413.413 0 00.712-.165q.088-.33.17-.674c.606-.242.627-.251 1.698-.743q-.05.24-.103.48-.149.656-.328 1.263a5.818 5.818 0 00-.74.31c-.23.138-.359.527.047.617l.193-.028.245-.097q-.115.331-.238.645a4.074 4.074 0 00-1.23.447c-.168.13-.289.417.078.499l.197-.02.656-.218q-.13.287-.267.555a6.963 6.963 0 00-1.617.495c-.102.061-.326.334.054.415l.175-.013c.317-.083.738-.202 1.053-.29q-.2.338-.412.637a.378.378 0 00-.04.089c-.015.127.287.268.624-.053q.23-.297.448-.635c.15.114.346.27.494.386.481.064.635-.308.58-.415a37.944 37.944 0 00-.714-.577q.148-.267.287-.553l.363.281a.755.755 0 00.13.04c.142.014.625-.231.435-.545a71.978 71.978 0 00-.611-.483q.13-.313.25-.645l.15.122a.815.815 0 00.146.049c.155.017.645-.273.389-.632l-.42-.34q.183-.606.333-1.263.054-.239.102-.48c.373.301.74.61 1.106.918q-.087.344-.188.673a.443.443 0 00.013.249c.082.142.41.162.58-.266l.073-.247.363.338a14.74 14.74 0 01-.41 1.089.56.56 0 00-.013.112c.022.184.337.17.543-.229q.134-.302.253-.62l.264.283c-.238.524-.703.943-.729 1.566.141.047.298-.056.468-.307a10.118 10.118 0 00.52-.959c.071.092.155.223.22.32.223.007.452-.386.46-.618-.063-.103-.158-.232-.227-.33z"/><path d="M23.725 22.179c.644-.603.938-.878.893-1.3l-.06-.045a.485.485 0 00-.122.085 20.64 20.64 0 01-.962.942l-.272-.29c.628-.536.665-.568.68-.857 0-.004.002-.362-.273-.15-.227.202-.544.456-.78.647l-.365-.336c.304-.235.343-.266.39-.457.047-.19-.032-.514-.338-.332l-.521.373a36.879 36.879 0 00-1.109-.907 13.209 13.209 0 001.38-.902l.41.328a.677.677 0 00.2.024.483.483 0 00.124-.716l-.147-.121.46-.425c.183.148.424.35.605.5l.136.024a.538.538 0 00.091-.734l-.357-.296.354-.448c.222.187.512.44.728.634l.106.013a.484.484 0 00.126-.385.538.538 0 00-.105-.35c-.15-.134-.356-.31-.51-.44.727-1.29.15-1.31.082-1.308l-.05.063c-.082.19-.214.436-.31.621q-.093-.576-.236-1.139a.624.624 0 00-.16-.294c-.097-.082-.286-.056-.21.366.094.473.199 1.107.265 1.584l-.34.436q-.025-.353-.067-.703a.532.532 0 00-.14-.303c-.107-.088-.348-.075-.332.35q.058.577.071 1.161l-.453.415.002-.255a.49.49 0 00-.082-.278c-.146-.197-.447-.124-.484.295q-.006.35-.026.703a12.736 12.736 0 01-1.365.884c.08-.606.132-1.212.159-1.815.61-.407.61-.407.65-.565.04-.162-.083-.635-.452-.447l-.178.113q0-.382-.013-.76c.72-.51.763-.605.78-.641.1-.223-.084-.735-.415-.55l-.413.324q-.029-.37-.07-.735c.557-.477.845-.779.855-.896.015-.173-.177-.62-.436-.46-.153.163-.372.364-.535.516q-.078-.484-.18-.949c-.083-.234-.135-.293-.306-.349-.158.036-.188.09-.183.319q.077.463.133.946c-.862-.655-.862-.655-.906-.658-.138-.012-.438.251-.11.633.326.262.765.607 1.096.863q.027.363.043.733c-.571-.44-.571-.44-.655-.448-.181-.018-.488.278-.156.676.248.193.581.447.831.637q.002.377-.009.759c-.253-.183-.273-.197-.354-.205-.17-.015-.577.281-.205.703l.517.4a23.772 23.772 0 01-.187 1.812q-.672-.521-1.338-1.052.049-.35.09-.699a.426.426 0 00-.072-.293.363.363 0 00-.65.196l-.037.252-.565-.479q.09-.577.166-1.146a.42.42 0 00-.065-.28.344.344 0 00-.628.16l-.107.693-.537-.493a154.6 154.6 0 00.29-1.548.554.554 0 00-.019-.215c-.09-.252-.489-.364-.628.077l-.245 1.109c-.753-.755-.753-.755-.814-.77a.383.383 0 00-.346.634c.197.216.468.498.67.71a6.863 6.863 0 00-1.128.37.393.393 0 00.06.718l.19-.005c.448-.143 1.043-.34 1.488-.491l.532.502a4.415 4.415 0 00-.716.264.397.397 0 00.108.722l.194-.013c.32-.115.745-.275 1.064-.395l.568.49a2.087 2.087 0 00-.304.131.39.39 0 00.122.715l.195-.022.655-.26c.452.371.553.451 1.338 1.071-.564.266-.606.283-1.684.734-.647-.54-.647-.54-.799-.524a.405.405 0 00-.251.69l.189.165-.743.266c-.993-.856-.993-.856-1.13-.849a.39.39 0 00-.255.672l.523.46-.723.227c-1.343-1.19-1.343-1.19-1.458-1.189a.37.37 0 00-.234.65c.252.239.594.551.85.786-.285.08-.675.157-.954.257-.32.115-.34.508.057.659l.185.001c.284-.071.661-.171.945-.246l-.225.978a.644.644 0 000 .124.386.386 0 00.714.029q.168-.64.344-1.36l.73-.219c-.064.242-.257.59-.155.819a.406.406 0 00.728-.066q.14-.495.276-1.03l.745-.267-.063.247a.477.477 0 00.045.267.413.413 0 00.711-.165q.088-.33.171-.674c.605-.242.626-.252 1.697-.743q-.049.24-.103.48-.149.656-.327 1.262a5.842 5.842 0 00-.74.31c-.231.139-.36.528.046.617l.194-.028.244-.097q-.115.332-.238.646a4.077 4.077 0 00-1.23.446c-.167.131-.289.418.079.5l.196-.02.657-.218q-.13.287-.268.554a6.97 6.97 0 00-1.616.496c-.102.061-.326.334.054.414l.174-.013c.317-.082.738-.2 1.054-.29q-.2.339-.412.638a.38.38 0 00-.04.089c-.016.126.287.268.624-.053q.23-.298.447-.635c.15.114.346.27.494.386.481.063.635-.308.58-.415a37.543 37.543 0 00-.713-.577q.147-.267.286-.553l.364.281a.755.755 0 00.13.04c.141.014.625-.232.435-.545-.182-.147-.428-.339-.612-.483q.13-.313.25-.645l.15.122a.812.812 0 00.146.049c.155.017.646-.274.39-.632l-.42-.34q.183-.606.332-1.263.054-.239.102-.48c.373.301.74.61 1.107.918q-.088.344-.189.673a.443.443 0 00.013.249c.082.141.411.162.58-.266q.038-.123.074-.247l.362.338c-.116.354-.246.696-.41 1.088a.56.56 0 00-.013.113c.022.184.337.17.543-.23q.134-.301.253-.618l.264.282c-.238.524-.703.942-.728 1.565.14.047.298-.056.467-.306a10.108 10.108 0 00.52-.96c.071.093.156.224.22.32.223.008.453-.385.46-.617-.062-.103-.158-.232-.227-.33z" fill="url(#prefix__prefix__a85ffe04-9f24-439b-8837-df48a8eaee97)"/></g></g></svg>