<svg xmlns="http://www.w3.org/2000/svg" xmlns:xlink="http://www.w3.org/1999/xlink" viewBox="0 0 30 30"><defs><radialGradient id="prefix__prefix__a04c58ae-adc8-46be-9f2c-cdfefbfaeca8" cx="18.492" cy="8.644" r="21.239" gradientTransform="rotate(52.788 14.831 17.113) scale(.99947)" gradientUnits="userSpaceOnUse"><stop offset="0" stop-color="#ca0000"/><stop offset=".741" stop-color="#c80000"/><stop offset="1" stop-color="#ca0000"/></radialGradient><radialGradient id="prefix__prefix__a56b8243-72ff-497c-b4bd-922c9de6fea9" cx="18.457" cy="8.648" r="21.229" gradientTransform="rotate(49.906 14.8 17.154) scale(.99898)" gradientUnits="userSpaceOnUse"><stop offset="0" stop-color="#ca0000"/><stop offset=".741" stop-color="#c60000"/><stop offset=".971" stop-color="#c90000"/><stop offset="1" stop-color="#ca0000"/></radialGradient><radialGradient id="prefix__prefix__eb80f062-1ebf-422e-a8fb-742e59d71800" cx="18.422" cy="8.651" r="21.219" gradientTransform="rotate(46.666 14.77 17.204)" gradientUnits="userSpaceOnUse"><stop offset="0" stop-color="#ca0000"/><stop offset=".741" stop-color="#c40000"/><stop offset=".938" stop-color="#c70000"/><stop offset="1" stop-color="#ca0000"/></radialGradient><radialGradient id="prefix__prefix__bfdade68-02f1-4667-b8a2-8eae1f81b233" cx="18.387" cy="8.654" r="21.208" gradientTransform="rotate(43.639 14.736 17.26)" gradientUnits="userSpaceOnUse"><stop offset="0" stop-color="#c90000"/><stop offset=".741" stop-color="#c20000"/><stop offset=".918" stop-color="#c50000"/><stop offset="1" stop-color="#ca0000"/></radialGradient><radialGradient id="prefix__prefix__a88c0fb4-b58d-4ca7-957b-a4b9de1a1722" cx="18.351" cy="8.657" r="21.196" gradientTransform="rotate(39.109 14.699 17.336)" gradientUnits="userSpaceOnUse"><stop offset="0" stop-color="#c90000"/><stop offset=".741" stop-color="#c00000"/><stop offset=".903" stop-color="#c30000"/><stop offset="1" stop-color="#ca0000"/></radialGradient><radialGradient id="prefix__prefix__b4b9f47d-2b0a-462f-b40d-f81b78e75d88" cx="18.316" cy="8.66" r="21.183" gradientTransform="rotate(34.892 14.66 17.43) scale(.99735)" gradientUnits="userSpaceOnUse"><stop offset="0" stop-color="#c90000"/><stop offset=".741" stop-color="#be0000"/><stop offset=".897" stop-color="#c10000"/><stop offset="1" stop-color="#c90000"/></radialGradient><radialGradient id="prefix__prefix__a8f0dbcf-7ba3-40fe-ba0e-c2dbbe8aabea" cx="18.28" cy="8.662" r="21.17" gradientTransform="rotate(30.531 14.612 17.552)" gradientUnits="userSpaceOnUse"><stop offset="0" stop-color="#c90000"/><stop offset=".662" stop-color="#be0000"/><stop offset=".741" stop-color="#bc0000"/><stop offset=".888" stop-color="#bf0000"/><stop offset=".994" stop-color="#c80000"/><stop offset="1" stop-color="#c90000"/></radialGradient><radialGradient id="prefix__prefix__ba65c1cd-bb29-4ddb-8aaf-d9a9db9576f3" cx="18.245" cy="8.665" r="21.156" gradientTransform="rotate(26.177 14.558 17.717)" gradientUnits="userSpaceOnUse"><stop offset="0" stop-color="#c90000"/><stop offset=".562" stop-color="#be0000"/><stop offset=".741" stop-color="#b90000"/><stop offset=".877" stop-color="#bc0000"/><stop offset=".975" stop-color="#c50000"/><stop offset="1" stop-color="#c90000"/></radialGradient><radialGradient id="prefix__prefix__e9fe6f20-2d56-4d2d-a241-1dbd404d873f" cx="18.209" cy="8.668" r="21.141" gradientTransform="rotate(21.982 14.49 17.94)" gradientUnits="userSpaceOnUse"><stop offset="0" stop-color="#c90000"/><stop offset=".513" stop-color="#be0000"/><stop offset=".741" stop-color="#b70000"/><stop offset=".871" stop-color="#ba0000"/><stop offset=".965" stop-color="#c30000"/><stop offset="1" stop-color="#c90000"/></radialGradient><radialGradient id="prefix__prefix__f047ca0a-9a2a-4bd2-b659-dedc3b6100a7" cx="18.173" cy="8.67" r="21.125" gradientTransform="rotate(18.063 14.406 18.25)" gradientUnits="userSpaceOnUse"><stop offset="0" stop-color="#c80000"/><stop offset=".491" stop-color="#bd0000"/><stop offset=".741" stop-color="#b50000"/><stop offset=".866" stop-color="#b80000"/><stop offset=".956" stop-color="#c10000"/><stop offset="1" stop-color="#c90000"/></radialGradient><radialGradient id="prefix__prefix__eb984d81-2277-44a8-8a49-51d86276c795" cx="18.137" cy="8.672" r="21.108" gradientTransform="rotate(14.49 14.294 18.692)" gradientUnits="userSpaceOnUse"><stop offset="0" stop-color="#c80000"/><stop offset=".454" stop-color="#bd0000"/><stop offset=".741" stop-color="#b30000"/><stop offset=".861" stop-color="#b60000"/><stop offset=".948" stop-color="#bf0000"/><stop offset="1" stop-color="#c90000"/></radialGradient><radialGradient id="prefix__prefix__f99a6a9f-fbbd-46ab-b77a-63155624e24c" cx="18.101" cy="8.675" r="21.091" gradientTransform="rotate(11.285 14.14 19.342)" gradientUnits="userSpaceOnUse"><stop offset="0" stop-color="#c80000"/><stop offset=".423" stop-color="#bd0000"/><stop offset=".741" stop-color="#b10000"/><stop offset=".857" stop-color="#b40000"/><stop offset=".942" stop-color="#bd0000"/><stop offset="1" stop-color="#c90000"/></radialGradient><radialGradient id="prefix__prefix__fcfbd49c-e894-476e-a53a-e69fb93e5b60" cx="18.065" cy="8.677" r="21.073" gradientTransform="rotate(8.436 13.908 20.358) scale(.99585)" gradientUnits="userSpaceOnUse"><stop offset="0" stop-color="#c80000"/><stop offset=".396" stop-color="#bd0000"/><stop offset=".741" stop-color="#af0000"/><stop offset=".854" stop-color="#b20000"/><stop offset=".936" stop-color="#b00"/><stop offset="1" stop-color="#c90000"/></radialGradient><radialGradient id="prefix__prefix__b6ce4161-6989-4961-9f46-501f25d5abf9" cx="18.028" cy="8.679" r="21.054" gradientTransform="rotate(5.911 13.526 22.112) scale(.99578)" gradientUnits="userSpaceOnUse"><stop offset="0" stop-color="#c80000"/><stop offset=".373" stop-color="#bd0000"/><stop offset=".741" stop-color="#ad0000"/><stop offset=".851" stop-color="#b00000"/><stop offset=".93" stop-color="#b90000"/><stop offset="1" stop-color="#c90000"/></radialGradient><radialGradient id="prefix__prefix__a8331046-f39b-4a63-9e87-ab2b5bf338d2" cx="17.992" cy="8.681" r="21.035" gradientTransform="matrix(.9937 .0638 -.0638 .9937 1.675 -.764)" gradientUnits="userSpaceOnUse"><stop offset="0" stop-color="#c80000"/><stop offset=".353" stop-color="#bd0000"/><stop offset=".741" stop-color="#ab0000"/><stop offset=".848" stop-color="#ae0000"/><stop offset=".925" stop-color="#b70000"/><stop offset=".993" stop-color="#c70000"/><stop offset="1" stop-color="#c90000"/></radialGradient><radialGradient id="prefix__prefix__f3ad1d05-c1f8-485a-916f-5e09c6a897f2" cx="17.956" cy="8.683" r="21.015" gradientTransform="rotate(1.684 10.37 37.16) scale(.99575)" gradientUnits="userSpaceOnUse"><stop offset="0" stop-color="#c70000"/><stop offset=".344" stop-color="#bc0000"/><stop offset=".741" stop-color="#a90000"/><stop offset=".847" stop-color="#ac0000"/><stop offset=".923" stop-color="#b50000"/><stop offset=".99" stop-color="#c50000"/><stop offset="1" stop-color="#c80000"/></radialGradient><radialGradient id="prefix__prefix__b947a2bb-be22-4f36-b5eb-011fcf2a72ef" cx="17.919" cy="8.685" r="20.994" gradientTransform="rotate(-.096 91.894 -356.446)" gradientUnits="userSpaceOnUse"><stop offset="0" stop-color="#c70000"/><stop offset=".327" stop-color="#bc0000"/><stop offset=".741" stop-color="#a70000"/><stop offset=".844" stop-color="#a00"/><stop offset=".919" stop-color="#b30000"/><stop offset=".984" stop-color="#c30000"/><stop offset="1" stop-color="#c80000"/></radialGradient><radialGradient id="prefix__prefix__a0850188-a79d-45ba-863d-b4d8970a3c96" cx="17.883" cy="8.686" r="20.972" gradientTransform="rotate(-1.696 19.091 -5.135)" gradientUnits="userSpaceOnUse"><stop offset="0" stop-color="#c70000"/><stop offset=".312" stop-color="#bc0000"/><stop offset=".741" stop-color="#a50000"/><stop offset=".842" stop-color="#a80000"/><stop offset=".915" stop-color="#b10000"/><stop offset=".979" stop-color="#c10000"/><stop offset="1" stop-color="#c80000"/></radialGradient><radialGradient id="prefix__prefix__b722e20c-a6c0-4e55-8684-a29f56669c02" cx="17.846" cy="8.688" r="20.949" gradientTransform="rotate(-3.145 17.075 4.502)" gradientUnits="userSpaceOnUse"><stop offset="0" stop-color="#c70000"/><stop offset=".298" stop-color="#bc0000"/><stop offset=".741" stop-color="#a30000"/><stop offset=".84" stop-color="#a60000"/><stop offset=".911" stop-color="#af0000"/><stop offset=".974" stop-color="#bf0000"/><stop offset="1" stop-color="#c80000"/></radialGradient><radialGradient id="prefix__prefix__fbbc35a2-2a45-4a41-8a4f-a12d4a3ab07f" cx="17.81" cy="8.689" r="20.926" gradientTransform="rotate(-4.465 16.372 7.81) scale(.9961)" gradientUnits="userSpaceOnUse"><stop offset="0" stop-color="#c70000"/><stop offset=".286" stop-color="#bc0000"/><stop offset=".741" stop-color="#a10000"/><stop offset=".838" stop-color="#a40000"/><stop offset=".908" stop-color="#ad0000"/><stop offset=".969" stop-color="#bd0000"/><stop offset="1" stop-color="#c80000"/></radialGradient><radialGradient id="prefix__prefix__b8478c19-4b2b-40e2-8fe3-63ab69eed425" cx="17.773" cy="8.691" r="20.902" gradientTransform="rotate(-5.676 16.008 9.47)" gradientUnits="userSpaceOnUse"><stop offset="0" stop-color="#c70000"/><stop offset=".274" stop-color="#bc0000"/><stop offset=".741" stop-color="#9f0000"/><stop offset=".836" stop-color="#a20000"/><stop offset=".905" stop-color="#ab0000"/><stop offset=".965" stop-color="#b00"/><stop offset="1" stop-color="#c80000"/></radialGradient><radialGradient id="prefix__prefix__abd5a618-863d-4cff-b299-2193507f79c2" cx="17.736" cy="8.692" r="20.878" gradientTransform="rotate(-6.794 15.784 10.462)" gradientUnits="userSpaceOnUse"><stop offset="0" stop-color="#c60000"/><stop offset=".269" stop-color="#b00"/><stop offset=".741" stop-color="#9d0000"/><stop offset=".834" stop-color="#a00000"/><stop offset=".902" stop-color="#a90000"/><stop offset=".961" stop-color="#b90000"/><stop offset="1" stop-color="#c80000"/></radialGradient><radialGradient id="prefix__prefix__b34eec84-360f-466b-a5e7-4cfdaa2b7b13" cx="17.7" cy="8.693" r="20.852" gradientTransform="rotate(-7.859 15.625 11.14)" gradientUnits="userSpaceOnUse"><stop offset="0" stop-color="#c60000"/><stop offset=".259" stop-color="#b00"/><stop offset=".717" stop-color="#9d0000"/><stop offset=".741" stop-color="#9b0000"/><stop offset=".833" stop-color="#9e0000"/><stop offset=".899" stop-color="#a70000"/><stop offset=".957" stop-color="#b70000"/><stop offset="1" stop-color="#c80000"/></radialGradient><radialGradient id="prefix__prefix__e131a4f8-0ac3-4662-aebc-004f0ce51337" cx="17.663" cy="8.694" r="20.826" gradientTransform="rotate(81.2 14.35 17.48)" gradientUnits="userSpaceOnUse"><stop offset="0" stop-color="#c60000"/><stop offset=".246" stop-color="#b00"/><stop offset=".68" stop-color="#9d0000"/><stop offset=".741" stop-color="#980000"/><stop offset=".83" stop-color="#9b0000"/><stop offset=".895" stop-color="#a40000"/><stop offset=".952" stop-color="#b40000"/><stop offset="1" stop-color="#c80000"/></radialGradient><radialGradient id="prefix__prefix__a3427aaa-d3c2-4f77-a5e2-937aeac8abd2" cx="17.627" cy="8.695" r="20.799" gradientTransform="rotate(80.292 14.332 17.502)" gradientUnits="userSpaceOnUse"><stop offset="0" stop-color="#c60000"/><stop offset=".238" stop-color="#b00"/><stop offset=".658" stop-color="#9d0000"/><stop offset=".741" stop-color="#960000"/><stop offset=".829" stop-color="#900"/><stop offset=".893" stop-color="#a20000"/><stop offset=".949" stop-color="#b20000"/><stop offset="1" stop-color="#c80000"/></radialGradient><radialGradient id="prefix__prefix__b45c93d5-6dc4-49cd-83a3-91ffe3bfabe3" cx="17.59" cy="8.696" r="20.772" gradientTransform="rotate(79.436 14.314 17.523) scale(.99771)" gradientUnits="userSpaceOnUse"><stop offset="0" stop-color="#c60000"/><stop offset=".23" stop-color="#b00"/><stop offset=".637" stop-color="#9d0000"/><stop offset=".741" stop-color="#940000"/><stop offset=".828" stop-color="#970000"/><stop offset=".892" stop-color="#a00000"/><stop offset=".947" stop-color="#b00000"/><stop offset=".998" stop-color="#c60000"/><stop offset="1" stop-color="#c70000"/></radialGradient><radialGradient id="prefix__prefix__ac91b2ea-6c6c-4603-b2af-7bcb7a42fa0d" cx="17.553" cy="8.697" r="20.743" gradientTransform="rotate(78.625 14.298 17.546) scale(.9981)" gradientUnits="userSpaceOnUse"><stop offset="0" stop-color="#c60000"/><stop offset=".223" stop-color="#b00"/><stop offset=".618" stop-color="#9d0000"/><stop offset=".741" stop-color="#920000"/><stop offset=".827" stop-color="#950000"/><stop offset=".89" stop-color="#9e0000"/><stop offset=".944" stop-color="#ae0000"/><stop offset=".995" stop-color="#c40000"/><stop offset="1" stop-color="#c70000"/></radialGradient><radialGradient id="prefix__prefix__b7047902-23b2-4d48-b68c-7b08b5a1a5b8" cx="17.517" cy="8.698" r="20.715" gradientTransform="rotate(77.854 14.28 17.567)" gradientUnits="userSpaceOnUse"><stop offset="0" stop-color="#c50000"/><stop offset=".22" stop-color="#ba0000"/><stop offset=".609" stop-color="#9c0000"/><stop offset=".741" stop-color="#900000"/><stop offset=".826" stop-color="#930000"/><stop offset=".887" stop-color="#9c0000"/><stop offset=".942" stop-color="#ac0000"/><stop offset=".991" stop-color="#c20000"/><stop offset="1" stop-color="#c70000"/></radialGradient><radialGradient id="prefix__prefix__fb16fdd9-ef1a-4fd1-91b4-f07a4c8bd03d" cx="17.48" cy="8.699" r="20.685" gradientTransform="rotate(77.119 14.265 17.589) scale(.99899)" gradientUnits="userSpaceOnUse"><stop offset="0" stop-color="#c50000"/><stop offset=".214" stop-color="#ba0000"/><stop offset=".591" stop-color="#9c0000"/><stop offset=".741" stop-color="#8e0000"/><stop offset=".825" stop-color="#910000"/><stop offset=".885" stop-color="#9a0000"/><stop offset=".939" stop-color="#a00"/><stop offset=".988" stop-color="#c00000"/><stop offset="1" stop-color="#c70000"/></radialGradient><radialGradient id="prefix__prefix__b0f2f2eb-c02b-40f8-b12c-b3335b26ee5c" cx="17.444" cy="8.699" r="20.655" gradientTransform="rotate(-10.245 15.406 11.476)" gradientUnits="userSpaceOnUse"><stop offset="0" stop-color="#c50000"/><stop offset=".208" stop-color="#ba0000"/><stop offset=".575" stop-color="#9c0000"/><stop offset=".741" stop-color="#8c0000"/><stop offset=".824" stop-color="#8f0000"/><stop offset=".884" stop-color="#980000"/><stop offset=".936" stop-color="#a80000"/><stop offset=".985" stop-color="#be0000"/><stop offset="1" stop-color="#c70000"/></radialGradient><radialGradient id="prefix__prefix__e7024f75-de36-499b-89b0-3878016ce306" cx="17.408" cy="8.7" r="20.624" gradientTransform="rotate(-10.585 15.376 11.524)" gradientUnits="userSpaceOnUse"><stop offset="0" stop-color="#c50000"/><stop offset=".202" stop-color="#ba0000"/><stop offset=".56" stop-color="#9c0000"/><stop offset=".741" stop-color="#8a0000"/><stop offset=".823" stop-color="#8d0000"/><stop offset=".882" stop-color="#960000"/><stop offset=".934" stop-color="#a60000"/><stop offset=".982" stop-color="#bc0000"/><stop offset="1" stop-color="#c70000"/></radialGradient><radialGradient id="prefix__prefix__be873a71-cd32-47b4-8a9a-912218bc1469" cx="13.064" cy="-34.24" r="8.118" gradientTransform="matrix(.983 -.1837 .1062 .5683 6.67 48.446)" gradientUnits="userSpaceOnUse"><stop offset="0" stop-color="#cfcfd0"/><stop offset=".048" stop-color="#d3d3d4"/><stop offset=".402" stop-color="#ebebec"/><stop offset=".729" stop-color="#fafafa"/><stop offset="1" stop-color="#fff"/></radialGradient><radialGradient id="prefix__prefix__f56b49be-ca47-4f5a-8773-e805d5008e0a" cx="69.986" cy="-183.928" r="8.845" gradientTransform="matrix(.2993 -.9541 .7331 .2299 123.035 124.622)" gradientUnits="userSpaceOnUse"><stop offset="0" stop-color="red"/><stop offset=".199" stop-color="#bc0000"/><stop offset=".414" stop-color="#7a0000"/><stop offset=".61" stop-color="#450000"/><stop offset=".779" stop-color="#200000"/><stop offset=".915" stop-color="#080000"/><stop offset="1"/></radialGradient><radialGradient id="prefix__prefix__b6c4d6b3-6160-4e48-a6f9-118a9cb737c2" cx="70.792" cy="-184.632" r="7.303" gradientTransform="matrix(.2993 -.9541 .7331 .2299 123.035 124.622)" gradientUnits="userSpaceOnUse"><stop offset="0" stop-color="#e80000"/><stop offset=".145" stop-color="#b20000"/><stop offset=".308" stop-color="#7c0000"/><stop offset=".467" stop-color="#500000"/><stop offset=".619" stop-color="#2d0000"/><stop offset=".762" stop-color="#140000"/><stop offset=".893" stop-color="#050000"/><stop offset="1"/></radialGradient><radialGradient id="prefix__prefix__aeb88743-d48f-496c-a80f-fa49b82620c3" cx="71.347" cy="-185.128" r="5.847" gradientTransform="matrix(.2993 -.9541 .7331 .2299 123.035 124.622)" gradientUnits="userSpaceOnUse"><stop offset="0" stop-color="red"/><stop offset=".096" stop-color="#d30000"/><stop offset=".231" stop-color="#9c0000"/><stop offset=".366" stop-color="#6c0000"/><stop offset=".5" stop-color="#450000"/><stop offset=".632" stop-color="#270000"/><stop offset=".76" stop-color="#100"/><stop offset=".884" stop-color="#040000"/><stop offset="1"/></radialGradient><radialGradient id="prefix__prefix__a8305e13-4231-4ede-9216-433696c1af1b" cx="229.473" cy="207.113" r="8.018" gradientTransform="matrix(-.8122 -1.0178 -.7453 .5946 360.931 125.22)" gradientUnits="userSpaceOnUse"><stop offset="0" stop-color="red"/><stop offset=".031" stop-color="#f20000"/><stop offset=".189" stop-color="#b30000"/><stop offset=".345" stop-color="#7c0000"/><stop offset=".496" stop-color="#500000"/><stop offset=".64" stop-color="#2d0000"/><stop offset=".775" stop-color="#140000"/><stop offset=".899" stop-color="#050000"/><stop offset="1"/></radialGradient><radialGradient id="prefix__prefix__b02527c4-a054-4dbe-974e-da50fae1fff5" cx="230.204" cy="206.474" r="6.621" gradientTransform="matrix(-.8122 -1.0178 -.7453 .5946 360.931 125.22)" xlink:href="#prefix__prefix__b6c4d6b3-6160-4e48-a6f9-118a9cb737c2"/><radialGradient id="prefix__prefix__aead780f-970b-48cc-ab3c-90f84919dfcf" cx="230.708" cy="206.025" r="5.3" gradientTransform="matrix(-.8122 -1.0178 -.7453 .5946 360.931 125.22)" xlink:href="#prefix__prefix__aeb88743-d48f-496c-a80f-fa49b82620c3"/><radialGradient id="prefix__prefix__b2e9d459-f415-452f-a155-7d254c3fcb4c" cx="226.559" cy="202.952" r="5.3" gradientTransform="matrix(-1.7783 -.709 -.4693 1.1768 510.179 -52.171)" gradientUnits="userSpaceOnUse"><stop offset="0" stop-color="#740000"/><stop offset=".169" stop-color="#5c0000"/><stop offset=".549" stop-color="#2a0000"/><stop offset=".838" stop-color="#0c0000"/><stop offset="1"/></radialGradient><radialGradient id="prefix__prefix__fb4d3501-a9a9-4359-8267-3fa21998191b" cx="20.975" cy="24.824" r="20.889" gradientTransform="rotate(-10.585 15.376 11.524)" gradientUnits="userSpaceOnUse"><stop offset="0" stop-color="#fff"/><stop offset="1" stop-color="#c1272d"/></radialGradient><radialGradient id="prefix__prefix__b0fc25fa-3955-414e-a915-3255d0fa0f9e" cx="20.975" cy="24.824" r="20.89" xlink:href="#prefix__prefix__fb4d3501-a9a9-4359-8267-3fa21998191b"/><radialGradient id="prefix__prefix__a00f9ede-f3dc-44e8-b688-77eb6e3e0a57" cx="20.975" cy="24.824" r="20.89" xlink:href="#prefix__prefix__fb4d3501-a9a9-4359-8267-3fa21998191b"/><radialGradient id="prefix__prefix__aafacde3-c6a3-456a-bdf0-5a1bc64fa645" cx="20.975" cy="24.824" r="20.89" xlink:href="#prefix__prefix__fb4d3501-a9a9-4359-8267-3fa21998191b"/><radialGradient id="prefix__prefix__f184f25a-84f2-4e4e-b246-fe93a20b97ca" cx="20.975" cy="24.824" r="20.89" xlink:href="#prefix__prefix__fb4d3501-a9a9-4359-8267-3fa21998191b"/><radialGradient id="prefix__prefix__b7dd9e48-c458-43d4-bff4-195de87a855d" cx="20.975" cy="24.824" r="20.889" xlink:href="#prefix__prefix__fb4d3501-a9a9-4359-8267-3fa21998191b"/><radialGradient id="prefix__prefix__bd8d394c-cf85-4a91-a402-7771238d56e9" cx="20.975" cy="24.824" r="20.89" xlink:href="#prefix__prefix__fb4d3501-a9a9-4359-8267-3fa21998191b"/><radialGradient id="prefix__prefix__ad0d160b-db06-43f0-90bf-d7b3963b3d5c" cx="-318.184" cy="203.391" r="4.741" gradientTransform="scale(1 -1) rotate(77.349 -28.082 290.66)" gradientUnits="userSpaceOnUse"><stop offset="0" stop-color="#cdcdcd"/><stop offset=".247" stop-color="gray"/><stop offset="1" stop-color="#2f2f2f"/></radialGradient><radialGradient id="prefix__prefix__ad73fc03-1326-44ef-995b-c29e8353a969" cx="-292.516" cy="198.326" r="3.949" gradientTransform="scale(-1 1) rotate(-57.65 -308.5 -162.28)" xlink:href="#prefix__prefix__ad0d160b-db06-43f0-90bf-d7b3963b3d5c"/><radialGradient id="prefix__prefix__a8438565-d077-42b6-8388-88a2227d1903" cx="-306.926" cy="142.692" r="4.831" gradientTransform="scale(-1 1) rotate(55.585 -32.627 362.685)" gradientUnits="userSpaceOnUse"><stop offset="0" stop-color="#fefefe"/><stop offset=".127" stop-color="#dfdfdf"/><stop offset=".403" stop-color="#919191"/><stop offset=".462" stop-color="gray"/><stop offset="1" stop-color="#0c0c0c"/></radialGradient><radialGradient id="prefix__prefix__b0b6352f-774e-4be4-bf83-a337073fd3af" cx="-305.7" cy="142.217" r="4.741" gradientTransform="scale(-1 1) rotate(55.585 -32.627 362.685)" xlink:href="#prefix__prefix__ad0d160b-db06-43f0-90bf-d7b3963b3d5c"/><radialGradient id="prefix__prefix__e53077e6-9895-4b71-9776-8a9b8e8a0184" cx="-334.624" cy="160.408" r="3.669" gradientTransform="scale(1 -1) rotate(-34.415 -434.86 -489.525)" xlink:href="#prefix__prefix__a8438565-d077-42b6-8388-88a2227d1903"/><radialGradient id="prefix__prefix__a389b865-2834-4ca8-a9a8-e0b433d6b604" cx="-333.693" cy="160.047" r="3.6" gradientTransform="scale(1 -1) rotate(-34.415 -434.86 -489.525)" xlink:href="#prefix__prefix__ad0d160b-db06-43f0-90bf-d7b3963b3d5c"/><radialGradient id="prefix__prefix__b8ab0793-686e-4bce-8ef9-ae1ad488bb37" cx="-331.035" cy="185.387" r="4.831" gradientTransform="scale(-1 1) rotate(-79.415 -270.199 -87.552)" xlink:href="#prefix__prefix__a8438565-d077-42b6-8388-88a2227d1903"/><radialGradient id="prefix__prefix__b94db984-8bb5-4b72-a862-96979a33907d" cx="-329.809" cy="184.912" r="4.741" gradientTransform="scale(-1 1) rotate(-79.415 -270.199 -87.552)" xlink:href="#prefix__prefix__ad0d160b-db06-43f0-90bf-d7b3963b3d5c"/><radialGradient id="prefix__prefix__b6dc331a-1205-4eec-99c8-389d1734954b" cx="-311.296" cy="178.911" r="4.024" gradientTransform="scale(-1 1) rotate(-34.415 -436.257 -369.51)" xlink:href="#prefix__prefix__a8438565-d077-42b6-8388-88a2227d1903"/><radialGradient id="prefix__prefix__a3eeed59-278b-4e39-8b43-a545e0d25530" cx="-310.274" cy="178.516" r="3.949" gradientTransform="scale(-1 1) rotate(-34.415 -436.257 -369.51)" xlink:href="#prefix__prefix__ad0d160b-db06-43f0-90bf-d7b3963b3d5c"/><radialGradient id="prefix__prefix__b6d51c49-a2ef-4607-bdc6-7001126d8b6f" cx="-301.826" cy="186.762" r="4.024" gradientTransform="scale(-1 1) rotate(-34.415 -436.257 -369.51)" xlink:href="#prefix__prefix__a8438565-d077-42b6-8388-88a2227d1903"/><radialGradient id="prefix__prefix__f59a90ee-eea0-4ce3-8b72-196c9daf22db" cx="-300.804" cy="186.367" r="3.949" gradientTransform="scale(-1 1) rotate(-34.415 -436.257 -369.51)" xlink:href="#prefix__prefix__ad0d160b-db06-43f0-90bf-d7b3963b3d5c"/><radialGradient id="prefix__prefix__a378c34f-a4a1-4910-93e7-7bc3c71d7ecb" cx="-307.344" cy="154.108" r="4.831" gradientTransform="matrix(-.97317 .17642 .18186 .94405 -314.681 -84.2)" xlink:href="#prefix__prefix__a8438565-d077-42b6-8388-88a2227d1903"/><radialGradient id="prefix__prefix__b91cdc0d-4fae-4100-a1ea-a14eaf768e79" cx="-306.118" cy="153.633" r="4.741" gradientTransform="matrix(-.97317 .17642 .18186 .94405 -314.681 -84.2)" xlink:href="#prefix__prefix__ad0d160b-db06-43f0-90bf-d7b3963b3d5c"/><linearGradient id="prefix__prefix__bfc1fa38-ae1d-4b86-b863-f188f794de62" x1="29.699" y1="-8.927" x2="29.699" y2="41.073" gradientUnits="userSpaceOnUse"><stop offset="0" stop-color="#fff"/><stop offset=".565" stop-color="#fafafa"/><stop offset="1" stop-color="#f2f2f2"/></linearGradient><linearGradient id="prefix__prefix__bc72fb4d-4c26-4d45-95dd-04d0085811ea" x1="9.15" y1="4.865" x2="16.322" y2="4.865" gradientTransform="rotate(-.338 119.268 -20.675)" gradientUnits="userSpaceOnUse"><stop offset="0" stop-color="#d30000"/><stop offset=".263" stop-color="#d60000"/><stop offset=".753" stop-color="#d40000"/><stop offset="1" stop-color="#d30000"/></linearGradient><linearGradient id="prefix__prefix__a73183a2-1b79-4ec4-92e0-71981319ecce" x1="9.002" y1="5.863" x2="16.144" y2="5.863" gradientTransform="rotate(-.683 -18.881 -21.057)" gradientUnits="userSpaceOnUse"><stop offset="0" stop-color="#d10000"/><stop offset=".263" stop-color="#d70000"/><stop offset=".753" stop-color="#d20000"/><stop offset="1" stop-color="#cf0000"/></linearGradient><linearGradient id="prefix__prefix__bd375994-0ad4-4172-bde3-5903e8541514" x1="8.873" y1="5.223" x2="15.984" y2="5.223" gradientTransform="matrix(.9984 -.0178 .0178 .9984 .374 .477)" gradientUnits="userSpaceOnUse"><stop offset="0" stop-color="#ce0000"/><stop offset=".057" stop-color="#d10000"/><stop offset=".263" stop-color="#d70000"/><stop offset=".753" stop-color="#d00000"/><stop offset="1" stop-color="#c00"/></linearGradient><linearGradient id="prefix__prefix__b5a8f45a-6118-4b5e-bc58-c9d0b87dabb3" x1="9.55" y1="5.419" x2="16.63" y2="5.419" gradientTransform="rotate(-1.361 15.14 13.588)" gradientUnits="userSpaceOnUse"><stop offset="0" stop-color="#cb0000"/><stop offset=".1" stop-color="#d20000"/><stop offset=".263" stop-color="#d80000"/><stop offset=".753" stop-color="#cd0000"/><stop offset="1" stop-color="#c90000"/></linearGradient><linearGradient id="prefix__prefix__b39a94db-b32c-48b2-86fb-29af987c9add" x1="9.432" y1="4.78" x2="16.48" y2="4.78" gradientTransform="rotate(-1.7 35.86 7.084)" gradientUnits="userSpaceOnUse"><stop offset="0" stop-color="#c90000"/><stop offset=".114" stop-color="#d20000"/><stop offset=".263" stop-color="#d80000"/><stop offset=".753" stop-color="#cb0000"/><stop offset="1" stop-color="#c60000"/></linearGradient><linearGradient id="prefix__prefix__b44e32f1-5cf3-48a1-8f0e-85e7d77bfa11" x1="9.261" y1="5.777" x2="16.277" y2="5.777" gradientTransform="rotate(-2.046 3.8 1.998)" gradientUnits="userSpaceOnUse"><stop offset="0" stop-color="#c60000"/><stop offset=".131" stop-color="#d20000"/><stop offset=".263" stop-color="#d80000"/><stop offset=".753" stop-color="#c90000"/><stop offset="1" stop-color="#c20000"/></linearGradient><linearGradient id="prefix__prefix__eb6f4931-a0b7-4782-ab74-47e03a0e33a7" x1="9.148" y1="5.135" x2="16.131" y2="5.135" gradientTransform="rotate(-2.385 20.214 -.906)" gradientUnits="userSpaceOnUse"><stop offset="0" stop-color="#c30000"/><stop offset=".147" stop-color="#d30000"/><stop offset=".263" stop-color="#d90000"/><stop offset=".698" stop-color="#c90000"/><stop offset=".753" stop-color="#c70000"/><stop offset="1" stop-color="#bf0000"/></linearGradient><linearGradient id="prefix__prefix__bb91eebd-382c-4e5f-a2ff-bdb27f5ee9d0" x1="9.823" y1="5.349" x2="16.773" y2="5.349" gradientTransform="rotate(-2.726 14.955 13.748)" gradientUnits="userSpaceOnUse"><stop offset="0" stop-color="#c10000"/><stop offset=".003" stop-color="#c10000"/><stop offset=".153" stop-color="#d30000"/><stop offset=".263" stop-color="#d90000"/><stop offset=".661" stop-color="#c90000"/><stop offset=".753" stop-color="#c50000"/><stop offset="1" stop-color="#bc0000"/></linearGradient><linearGradient id="prefix__prefix__b33c66f8-d89e-4078-8681-c33bcd246553" x1="9.721" y1="4.708" x2="16.636" y2="4.708" gradientTransform="rotate(-3.066 26.466 10.295)" gradientUnits="userSpaceOnUse"><stop offset="0" stop-color="#be0000"/><stop offset=".022" stop-color="#c10000"/><stop offset=".161" stop-color="#d30000"/><stop offset=".263" stop-color="#d90000"/><stop offset=".631" stop-color="#c90000"/><stop offset=".753" stop-color="#c30000"/><stop offset="1" stop-color="#b90000"/></linearGradient><linearGradient id="prefix__prefix__ad0d202d-274b-4f40-b0fa-7d6ca499959a" x1="9.529" y1="5.704" x2="16.409" y2="5.704" gradientTransform="rotate(-3.412 8.205 6.75)" gradientUnits="userSpaceOnUse"><stop offset="0" stop-color="#b00"/><stop offset=".043" stop-color="#c20000"/><stop offset=".17" stop-color="#d40000"/><stop offset=".263" stop-color="#da0000"/><stop offset=".593" stop-color="#ca0000"/><stop offset=".753" stop-color="#c10000"/><stop offset="1" stop-color="#b50000"/></linearGradient><linearGradient id="prefix__prefix__ea383408-e8a5-459c-af1b-b849dc03d3c8" x1="9.433" y1="5.059" x2="16.277" y2="5.059" gradientTransform="rotate(-3.753 18.242 4.62)" gradientUnits="userSpaceOnUse"><stop offset="0" stop-color="#b90000"/><stop offset=".051" stop-color="#c20000"/><stop offset=".173" stop-color="#d40000"/><stop offset=".263" stop-color="#da0000"/><stop offset=".572" stop-color="#ca0000"/><stop offset=".753" stop-color="#bf0000"/><stop offset="1" stop-color="#b20000"/></linearGradient><linearGradient id="prefix__prefix__f332f689-3333-49e3-8396-665243044b9b" x1="10.104" y1="5.292" x2="16.913" y2="5.292" gradientTransform="matrix(.9934 -.0711 .0711 .9934 -.955 1.09)" gradientUnits="userSpaceOnUse"><stop offset="0" stop-color="#b60000"/><stop offset=".066" stop-color="#c30000"/><stop offset=".18" stop-color="#d50000"/><stop offset=".263" stop-color="#db0000"/><stop offset=".539" stop-color="#cb0000"/><stop offset=".753" stop-color="#bc0000"/><stop offset="1" stop-color="#af0000"/></linearGradient><linearGradient id="prefix__prefix__f6622f37-2bd0-40dc-9978-45bf8fe1b130" x1="10.019" y1="4.649" x2="16.791" y2="4.649" gradientTransform="rotate(-4.434 22.749 11.63)" gradientUnits="userSpaceOnUse"><stop offset="0" stop-color="#b30000"/><stop offset=".076" stop-color="#c30000"/><stop offset=".184" stop-color="#d50000"/><stop offset=".263" stop-color="#db0000"/><stop offset=".524" stop-color="#cb0000"/><stop offset=".753" stop-color="#ba0000"/><stop offset="1" stop-color="#ac0000"/></linearGradient><linearGradient id="prefix__prefix__b6d6bf5d-99d4-4307-85e7-61d49de01191" x1="9.804" y1="5.642" x2="16.539" y2="5.642" gradientTransform="rotate(-4.781 9.99 8.884)" gradientUnits="userSpaceOnUse"><stop offset="0" stop-color="#b10000"/><stop offset=".082" stop-color="#c30000"/><stop offset=".186" stop-color="#d50000"/><stop offset=".263" stop-color="#db0000"/><stop offset=".512" stop-color="#cb0000"/><stop offset=".753" stop-color="#b80000"/><stop offset="1" stop-color="#a80000"/></linearGradient><linearGradient id="prefix__prefix__e0e0ded8-3caa-4bbe-b55e-0ad673ba8cbe" x1="9.725" y1="4.997" x2="16.422" y2="4.997" gradientTransform="rotate(-5.122 17.23 7.286)" gradientUnits="userSpaceOnUse"><stop offset="0" stop-color="#ae0000"/><stop offset=".092" stop-color="#c40000"/><stop offset=".19" stop-color="#d60000"/><stop offset=".263" stop-color="#dc0000"/><stop offset=".496" stop-color="#c00"/><stop offset=".753" stop-color="#b60000"/><stop offset="1" stop-color="#a50000"/></linearGradient><linearGradient id="prefix__prefix__bf3f0cf6-f351-43f4-9532-8bfc4d6f23a5" x1="10.392" y1="5.247" x2="17.051" y2="5.247" gradientTransform="rotate(-5.463 14.594 14.074)" gradientUnits="userSpaceOnUse"><stop offset="0" stop-color="#ab0000"/><stop offset=".098" stop-color="#c40000"/><stop offset=".193" stop-color="#d60000"/><stop offset=".263" stop-color="#dc0000"/><stop offset=".486" stop-color="#c00"/><stop offset=".753" stop-color="#b40000"/><stop offset="1" stop-color="#a20000"/></linearGradient><linearGradient id="prefix__prefix__bd1ef1ae-bab2-44ec-a532-5cfded493823" x1="10.324" y1="4.604" x2="16.944" y2="4.604" gradientTransform="rotate(-5.801 20.701 12.417) scale(.9958)" gradientUnits="userSpaceOnUse"><stop offset="0" stop-color="#a80000"/><stop offset=".003" stop-color="#a90000"/><stop offset=".107" stop-color="#c50000"/><stop offset=".197" stop-color="#d70000"/><stop offset=".263" stop-color="#d00"/><stop offset=".473" stop-color="#cd0000"/><stop offset=".753" stop-color="#b20000"/><stop offset="1" stop-color="#9f0000"/></linearGradient><linearGradient id="prefix__prefix__abc81232-1c0c-44be-9a9c-71f9cb1e2b23" x1="10.086" y1="5.594" x2="16.667" y2="5.594" gradientTransform="rotate(-6.151 10.906 10.144)" gradientUnits="userSpaceOnUse"><stop offset="0" stop-color="#a60000"/><stop offset=".009" stop-color="#a90000"/><stop offset=".11" stop-color="#c50000"/><stop offset=".198" stop-color="#d70000"/><stop offset=".263" stop-color="#d00"/><stop offset=".465" stop-color="#cd0000"/><stop offset=".753" stop-color="#b00000"/><stop offset="1" stop-color="#9b0000"/></linearGradient><linearGradient id="prefix__prefix__f0117044-e151-42a3-8324-651ef5ca0fef" x1="10.024" y1="4.949" x2="16.565" y2="4.949" gradientTransform="rotate(-6.491 16.572 8.901)" gradientUnits="userSpaceOnUse"><stop offset="0" stop-color="#a30000"/><stop offset=".018" stop-color="#a90000"/><stop offset=".115" stop-color="#c50000"/><stop offset=".2" stop-color="#d70000"/><stop offset=".263" stop-color="#d00"/><stop offset=".458" stop-color="#cd0000"/><stop offset=".753" stop-color="#ae0000"/><stop offset="1" stop-color="#980000"/></linearGradient><linearGradient id="prefix__prefix__a2fdea61-70d2-405b-9434-a4176738da80" x1="10.686" y1="5.216" x2="17.187" y2="5.216" gradientTransform="rotate(-6.832 14.421 14.244)" gradientUnits="userSpaceOnUse"><stop offset="0" stop-color="#a00000"/><stop offset=".028" stop-color="#a00"/><stop offset=".121" stop-color="#c60000"/><stop offset=".203" stop-color="#d80000"/><stop offset=".263" stop-color="#de0000"/><stop offset=".445" stop-color="#ce0000"/><stop offset=".753" stop-color="#ab0000"/><stop offset="1" stop-color="#950000"/></linearGradient><linearGradient id="prefix__prefix__a1f0a87b-b378-483d-8c17-e2c2f2a26c43" x1="10.634" y1="4.574" x2="17.094" y2="4.574" gradientTransform="rotate(-7.173 19.372 12.971)" gradientUnits="userSpaceOnUse"><stop offset="0" stop-color="#9e0000"/><stop offset=".033" stop-color="#a00"/><stop offset=".124" stop-color="#c60000"/><stop offset=".204" stop-color="#d80000"/><stop offset=".263" stop-color="#de0000"/><stop offset=".439" stop-color="#ce0000"/><stop offset=".753" stop-color="#a90000"/><stop offset="1" stop-color="#920000"/></linearGradient><linearGradient id="prefix__prefix__e23c8444-2e59-4bb2-8b36-fe4634d5562e" x1="10.374" y1="5.558" x2="16.793" y2="5.558" gradientTransform="rotate(-7.519 11.43 11.01)" gradientUnits="userSpaceOnUse"><stop offset="0" stop-color="#9b0000"/><stop offset=".041" stop-color="#ab0000"/><stop offset=".13" stop-color="#c70000"/><stop offset=".207" stop-color="#d90000"/><stop offset=".263" stop-color="#df0000"/><stop offset=".431" stop-color="#cf0000"/><stop offset=".753" stop-color="#a70000"/><stop offset="1" stop-color="#8e0000"/></linearGradient><linearGradient id="prefix__prefix__add65361-2da1-418d-9b66-5492f70e11b8" x1="10.328" y1="4.913" x2="16.705" y2="4.913" gradientTransform="rotate(-7.859 16.088 10.016)" gradientUnits="userSpaceOnUse"><stop offset="0" stop-color="#980000"/><stop offset=".047" stop-color="#ab0000"/><stop offset=".133" stop-color="#c70000"/><stop offset=".208" stop-color="#d90000"/><stop offset=".263" stop-color="#df0000"/><stop offset=".426" stop-color="#cf0000"/><stop offset=".742" stop-color="#a70000"/><stop offset=".753" stop-color="#a50000"/><stop offset="1" stop-color="#8b0000"/></linearGradient><linearGradient id="prefix__prefix__a8f08c60-1900-4aa3-abd5-9d020cfd7ab7" x1="10.985" y1="5.198" x2="17.319" y2="5.198" gradientTransform="rotate(-8.2 14.252 14.417)" gradientUnits="userSpaceOnUse"><stop offset="0" stop-color="#960000"/><stop offset=".051" stop-color="#ab0000"/><stop offset=".136" stop-color="#c70000"/><stop offset=".209" stop-color="#d90000"/><stop offset=".263" stop-color="#df0000"/><stop offset=".422" stop-color="#cf0000"/><stop offset=".729" stop-color="#a70000"/><stop offset=".753" stop-color="#a30000"/><stop offset="1" stop-color="#800"/></linearGradient><linearGradient id="prefix__prefix__bbfb8000-5406-4464-a623-3738febae540" x1="10.016" y1="5.245" x2="16.307" y2="5.245" gradientTransform="matrix(.9863 -.1482 .1482 .9863 -.969 2.068)" gradientUnits="userSpaceOnUse"><stop offset="0" stop-color="#930000"/><stop offset=".058" stop-color="#ac0000"/><stop offset=".14" stop-color="#c80000"/><stop offset=".211" stop-color="#da0000"/><stop offset=".263" stop-color="#e00000"/><stop offset=".415" stop-color="#d00000"/><stop offset=".71" stop-color="#a80000"/><stop offset=".753" stop-color="#a10000"/><stop offset="1" stop-color="#850000"/></linearGradient><linearGradient id="prefix__prefix__aee226d4-9a1d-47ac-a059-074326e1261e" x1="10.667" y1="5.535" x2="16.915" y2="5.535" gradientTransform="rotate(-8.885 11.742 11.666)" gradientUnits="userSpaceOnUse"><stop offset="0" stop-color="#900000"/><stop offset=".063" stop-color="#ac0000"/><stop offset=".143" stop-color="#c80000"/><stop offset=".212" stop-color="#da0000"/><stop offset=".263" stop-color="#e00000"/><stop offset=".411" stop-color="#d00000"/><stop offset=".698" stop-color="#a80000"/><stop offset=".753" stop-color="#9f0000"/><stop offset="1" stop-color="#810000"/></linearGradient><linearGradient id="prefix__prefix__bf3a4a8a-575f-4eed-a9a3-bdf2b24273d5" x1="10.637" y1="4.892" x2="16.842" y2="4.892" gradientTransform="rotate(-9.225 15.701 10.854)" gradientUnits="userSpaceOnUse"><stop offset="0" stop-color="#8e0000"/><stop offset=".066" stop-color="#ac0000"/><stop offset=".145" stop-color="#c80000"/><stop offset=".213" stop-color="#da0000"/><stop offset=".263" stop-color="#e00000"/><stop offset=".408" stop-color="#d00000"/><stop offset=".688" stop-color="#a80000"/><stop offset=".753" stop-color="#9d0000"/><stop offset="1" stop-color="#7e0000"/></linearGradient><linearGradient id="prefix__prefix__f019b723-eb6d-4e3e-884f-d3030ca71763" x1="11.287" y1="5.193" x2="17.447" y2="5.193" gradientTransform="rotate(-9.564 14.087 14.593)" gradientUnits="userSpaceOnUse"><stop offset="0" stop-color="#8b0000"/><stop offset=".072" stop-color="#ad0000"/><stop offset=".148" stop-color="#c90000"/><stop offset=".214" stop-color="#db0000"/><stop offset=".263" stop-color="#e10000"/><stop offset=".401" stop-color="#d10000"/><stop offset=".667" stop-color="#a90000"/><stop offset=".753" stop-color="#9a0000"/><stop offset="1" stop-color="#7b0000"/></linearGradient><linearGradient id="prefix__prefix__bf34306a-3172-4b34-96db-2af3f12d18f6" x1="10.32" y1="5.219" x2="16.436" y2="5.219" gradientTransform="rotate(-9.908 13.379 8.642)" gradientUnits="userSpaceOnUse"><stop offset="0" stop-color="#800"/><stop offset=".076" stop-color="#ad0000"/><stop offset=".151" stop-color="#c90000"/><stop offset=".215" stop-color="#db0000"/><stop offset=".263" stop-color="#e10000"/><stop offset=".398" stop-color="#d10000"/><stop offset=".658" stop-color="#a90000"/><stop offset=".753" stop-color="#980000"/><stop offset="1" stop-color="#780000"/></linearGradient><linearGradient id="prefix__prefix__a15eb372-0ebf-4df3-98a6-da747323b274" x1="10.964" y1="5.525" x2="17.035" y2="5.525" gradientTransform="rotate(-10.247 11.93 12.196)" gradientUnits="userSpaceOnUse"><stop offset="0" stop-color="#860000"/><stop offset=".08" stop-color="#ae0000"/><stop offset=".153" stop-color="#ca0000"/><stop offset=".217" stop-color="#dc0000"/><stop offset=".263" stop-color="#e20000"/><stop offset=".393" stop-color="#d20000"/><stop offset=".645" stop-color="#a00"/><stop offset=".753" stop-color="#960000"/><stop offset="1" stop-color="#740000"/></linearGradient><linearGradient id="prefix__prefix__bda9afc1-3dde-4811-bb02-4cda50ff09d5" x1="10.95" y1="4.897" x2="16.976" y2="4.897" gradientTransform="rotate(-10.585 15.376 11.524)" gradientUnits="userSpaceOnUse"><stop offset="0" stop-color="#830000"/><stop offset=".006" stop-color="#860000"/><stop offset=".084" stop-color="#ae0000"/><stop offset=".155" stop-color="#ca0000"/><stop offset=".217" stop-color="#dc0000"/><stop offset=".263" stop-color="#e20000"/><stop offset=".39" stop-color="#d20000"/><stop offset=".637" stop-color="#a00"/><stop offset=".753" stop-color="#940000"/><stop offset="1" stop-color="#710000"/></linearGradient><linearGradient id="prefix__prefix__bb855085-d3d3-4d21-bc7e-f1e480398c5b" x1="14.865" y1="12.749" x2="18.053" y2="26.186" gradientTransform="rotate(-10.585 15.376 11.524)" gradientUnits="userSpaceOnUse"><stop offset=".051" stop-color="#fff"/><stop offset=".43" stop-color="#e2e1e1"/><stop offset=".566" stop-color="#c7c7c7"/><stop offset=".695" stop-color="#e6e6e4"/><stop offset="1" stop-color="#fafafa"/></linearGradient><linearGradient id="prefix__prefix__b46efb4e-9221-44a1-8597-4e4cb74cbba4" x1="16.321" y1="12.404" x2="19.509" y2="25.841" xlink:href="#prefix__prefix__bb855085-d3d3-4d21-bc7e-f1e480398c5b"/><linearGradient id="prefix__prefix__bd8380ee-c4d4-47b4-9be2-df9098928223" x1="15.871" y1="12.511" x2="19.058" y2="25.948" xlink:href="#prefix__prefix__bb855085-d3d3-4d21-bc7e-f1e480398c5b"/><linearGradient id="prefix__prefix__fb70cafb-4f63-4784-a2e1-cc23e22f7401" x1="19.131" y1="11.737" x2="22.319" y2="25.174" xlink:href="#prefix__prefix__bb855085-d3d3-4d21-bc7e-f1e480398c5b"/><linearGradient id="prefix__prefix__ed3cc5ea-12e8-4394-957c-bd8fd54b5801" x1="15.527" y1="12.592" x2="18.714" y2="26.029" xlink:href="#prefix__prefix__bb855085-d3d3-4d21-bc7e-f1e480398c5b"/><linearGradient id="prefix__prefix__f5c90a77-46f0-4f29-99e9-5b14720671e8" x1="18.34" y1="11.925" x2="21.528" y2="25.362" xlink:href="#prefix__prefix__bb855085-d3d3-4d21-bc7e-f1e480398c5b"/><linearGradient id="prefix__prefix__a6d14ce0-d82f-4e99-b53f-e674a7eb53c4" x1="17.776" y1="12.059" x2="20.963" y2="25.496" xlink:href="#prefix__prefix__bb855085-d3d3-4d21-bc7e-f1e480398c5b"/><style>.prefix__prefix__ea163408-6d43-4d78-b96a-f4c9c2854b82{isolation:isolate}.prefix__prefix__ee7ddd8e-4bf6-4064-b78c-36fdeddbe46b{fill:#474747}.prefix__prefix__f6d4d28e-991e-4004-9dd3-33218857d7b7{fill:#c2c2c2}.prefix__prefix__fb940bd0-f54e-43c1-aa8e-1a9ea053956c{fill:#fff}</style></defs><g class="prefix__prefix__ea163408-6d43-4d78-b96a-f4c9c2854b82"><g id="prefix__prefix__baf74faa-6090-4f57-ba8b-dbf867461c13" data-name="Layer 8"><path d="M10.122 4.696l4.743-.886.225 1.227a.746.746 0 00.048.161.637.637 0 00.055.103.596.596 0 00.073.102.799.799 0 00.06.064.824.824 0 00.11.09.995.995 0 00.375.153l.182.03.475.077c-.61.101-2.152.395-3.69.69-1.47.281-2.892.554-3.47.674l.227-.136a23.7 23.7 0 00.39-.239 1.043 1.043 0 00.195-.158.916.916 0 00.102-.125.817.817 0 00.099-.2.584.584 0 00.03-.121.708.708 0 00.003-.283z" opacity=".032" fill="url(#prefix__prefix__bc72fb4d-4c26-4d45-95dd-04d0085811ea)"/><path d="M10.122 4.696l4.743-.886.22 1.223a.766.766 0 00.046.16.638.638 0 00.055.103.603.603 0 00.071.102.78.78 0 00.06.064.83.83 0 00.108.09.974.974 0 00.371.155l.181.03.473.077c-.63.093-2.142.38-3.67.673-1.467.28-2.857.547-3.449.683l.225-.136c.009-.006.382-.233.384-.24a1.047 1.047 0 00.191-.159.896.896 0 00.1-.125.811.811 0 00.095-.199.583.583 0 00.03-.12.72.72 0 000-.281z" opacity=".065" fill="url(#prefix__prefix__a73183a2-1b79-4ec4-92e0-71981319ecce)"/><path d="M10.122 4.696l4.743-.886.214 1.219a.79.79 0 00.045.16.64.64 0 00.054.102.597.597 0 00.07.102.787.787 0 00.059.064.814.814 0 00.108.09.951.951 0 00.366.158l.18.03.471.077c-.65.084-2.133.364-3.65.654-1.464.28-2.821.541-3.428.692l.223-.135c.013-.008.375-.23.379-.24a1.047 1.047 0 00.186-.16.898.898 0 00.097-.126.804.804 0 00.093-.198.581.581 0 00.028-.12.731.731 0 00-.001-.278z" opacity=".097" fill="url(#prefix__prefix__bd375994-0ad4-4172-bde3-5903e8541514)"/><path d="M10.122 4.696l4.743-.886.209 1.215a.81.81 0 00.044.159.638.638 0 00.052.102.599.599 0 00.07.101.763.763 0 00.057.065.812.812 0 00.107.09.93.93 0 00.362.16c.005.002.17.03.178.03l.47.078c-.669.074-2.123.348-3.632.636-1.459.279-2.784.534-3.405.7l.22-.134c.018-.01.369-.228.374-.242a1.045 1.045 0 00.182-.16.866.866 0 00.095-.125.798.798 0 00.09-.198.596.596 0 00.026-.12.746.746 0 00-.003-.275z" opacity=".129" fill="url(#prefix__prefix__b5a8f45a-6118-4b5e-bc58-c9d0b87dabb3)"/><path d="M10.122 4.696l4.743-.886.203 1.21a.833.833 0 00.043.159.643.643 0 00.052.101.603.603 0 00.068.102.793.793 0 00.057.065.825.825 0 00.106.091.909.909 0 00.356.161c.007.003.168.03.178.032l.468.077c-.688.065-2.114.332-3.613.618-1.454.278-2.748.527-3.383.708l.219-.133c.02-.013.36-.226.367-.243a1.041 1.041 0 00.178-.161.853.853 0 00.092-.125.79.79 0 00.088-.197.59.59 0 00.025-.12.763.763 0 00-.006-.272z" opacity=".161" fill="url(#prefix__prefix__b39a94db-b32c-48b2-86fb-29af987c9add)"/><path d="M10.122 4.696l4.743-.886.198 1.206a.859.859 0 00.042.158.654.654 0 00.05.101.6.6 0 00.067.102.749.749 0 00.057.065.795.795 0 00.104.091.89.89 0 00.352.164c.008.003.164.029.177.031l.466.077c-.707.057-2.104.317-3.593.6-1.451.278-2.712.521-3.362.718l.216-.133c.026-.016.355-.224.363-.244a1.05 1.05 0 00.173-.162.836.836 0 00.09-.125.785.785 0 00.085-.196.593.593 0 00.023-.119.776.776 0 00-.008-.27z" opacity=".194" fill="url(#prefix__prefix__b44e32f1-5cf3-48a1-8f0e-85e7d77bfa11)"/><path d="M10.122 4.696l4.743-.886.193 1.202a.883.883 0 00.04.157.652.652 0 00.05.101.605.605 0 00.066.102.746.746 0 00.056.065.794.794 0 00.103.092.868.868 0 00.347.165c.009.004.161.03.175.032l.465.077c-.727.047-2.095.3-3.574.583-1.447.275-2.676.513-3.34.725l.214-.132a3.949 3.949 0 00.357-.245 1.05 1.05 0 00.169-.163.831.831 0 00.087-.124.773.773 0 00.083-.196.59.59 0 00.022-.118.799.799 0 00-.01-.269z" opacity=".226" fill="url(#prefix__prefix__eb6f4931-a0b7-4782-ab74-47e03a0e33a7)"/><path d="M10.122 4.696l4.743-.886.188 1.198a.916.916 0 00.038.156.654.654 0 00.049.101.614.614 0 00.065.102.755.755 0 00.055.065.78.78 0 00.102.092.85.85 0 00.343.167c.01.004.158.03.174.033l.463.077a33.61 33.61 0 00-3.555.564 31.645 31.645 0 00-3.318.734l.212-.131a3.36 3.36 0 00.352-.246 1.06 1.06 0 00.164-.164.826.826 0 00.085-.124.768.768 0 00.08-.195.59.59 0 00.02-.118.82.82 0 00-.012-.266z" opacity=".258" fill="url(#prefix__prefix__bb91eebd-382c-4e5f-a2ff-bdb27f5ee9d0)"/><path d="M10.122 4.696l4.743-.886.182 1.193a.945.945 0 00.038.156.66.66 0 00.047.101.604.604 0 00.064.102.73.73 0 00.055.065.777.777 0 00.1.093.831.831 0 00.339.169c.01.004.154.029.173.032l.46.078a29.852 29.852 0 00-3.535.546 27.908 27.908 0 00-3.296.743l.21-.131a2.927 2.927 0 00.346-.247 1.062 1.062 0 00.16-.165.81.81 0 00.083-.124.761.761 0 00.077-.194.589.589 0 00.019-.117.838.838 0 00-.015-.264z" opacity=".29" fill="url(#prefix__prefix__b33c66f8-d89e-4078-8681-c33bcd246553)"/><path d="M10.122 4.696l4.743-.886.177 1.19a.97.97 0 00.036.154.655.655 0 00.047.101.617.617 0 00.063.102.744.744 0 00.054.065.78.78 0 00.099.093.816.816 0 00.333.171c.013.005.152.03.172.033l.46.077a26.803 26.803 0 00-3.517.53 24.922 24.922 0 00-3.274.75l.208-.13a2.57 2.57 0 00.34-.248 1.062 1.062 0 00.156-.165.805.805 0 00.08-.125.761.761 0 00.075-.193.607.607 0 00.017-.117.869.869 0 00-.017-.26z" opacity=".323" fill="url(#prefix__prefix__ad0d202d-274b-4f40-b0fa-7d6ca499959a)"/><path d="M10.122 4.696l4.743-.886.172 1.185a1.02 1.02 0 00.035.155.66.66 0 00.045.1.622.622 0 00.062.101.738.738 0 00.053.066.764.764 0 00.098.094.8.8 0 00.33.173c.013.005.148.029.17.033l.457.077a24.31 24.31 0 00-3.496.511 22.469 22.469 0 00-3.253.76l.206-.13a2.28 2.28 0 00.335-.25 1.09 1.09 0 00.15-.165.781.781 0 00.079-.124.753.753 0 00.072-.192.603.603 0 00.016-.117.899.899 0 00-.02-.259z" opacity=".355" fill="url(#prefix__prefix__ea383408-e8a5-459c-af1b-b849dc03d3c8)"/><path d="M10.122 4.696l4.743-.886.166 1.18a1.062 1.062 0 00.034.155.664.664 0 00.044.1.629.629 0 00.061.101.727.727 0 00.053.066.757.757 0 00.097.094.781.781 0 00.324.175c.015.006.145.029.17.033l.455.078a22.224 22.224 0 00-3.477.493 20.452 20.452 0 00-3.231.767l.203-.128a2.033 2.033 0 00.33-.25 1.094 1.094 0 00.147-.167.771.771 0 00.076-.124.748.748 0 00.069-.191.609.609 0 00.014-.117.925.925 0 00-.021-.256z" opacity=".387" fill="url(#prefix__prefix__f332f689-3333-49e3-8396-665243044b9b)"/><path d="M10.122 4.696l4.743-.886.161 1.176a1.115 1.115 0 00.032.154.663.663 0 00.044.1.612.612 0 00.06.101.696.696 0 00.052.066.743.743 0 00.095.094.767.767 0 00.32.177c.016.007.142.03.168.034l.454.078a20.454 20.454 0 00-3.458.475 18.763 18.763 0 00-3.21.776l.202-.128a1.837 1.837 0 00.325-.251 1.118 1.118 0 00.142-.168.771.771 0 00.073-.124.736.736 0 00.067-.19.602.602 0 00.013-.116.965.965 0 00-.024-.254z" opacity=".419" fill="url(#prefix__prefix__f6622f37-2bd0-40dc-9978-45bf8fe1b130)"/><path d="M10.122 4.696l4.743-.886.156 1.172a1.171 1.171 0 00.03.153.676.676 0 00.043.1.634.634 0 00.059.101.72.72 0 00.051.066.737.737 0 00.095.095.751.751 0 00.314.179c.018.007.14.029.168.034l.452.077a18.945 18.945 0 00-3.439.457 17.298 17.298 0 00-3.188.785l.2-.127a1.657 1.657 0 00.32-.252 1.136 1.136 0 00.137-.169.753.753 0 00.07-.123.73.73 0 00.064-.19.607.607 0 00.012-.116 1.007 1.007 0 00-.026-.251z" opacity=".452" fill="url(#prefix__prefix__b6d6bf5d-99d4-4307-85e7-61d49de01191)"/><path d="M10.122 4.696l4.743-.886.15 1.168a1.215 1.215 0 00.03.152.684.684 0 00.042.1.62.62 0 00.057.1.696.696 0 00.051.067.915.915 0 00.403.276c.019.007.136.029.167.035l.45.077a17.611 17.611 0 00-3.42.44 16.041 16.041 0 00-3.166.792l.198-.126a1.51 1.51 0 00.314-.253 1.16 1.16 0 00.133-.17.736.736 0 00.068-.123.724.724 0 00.061-.19.603.603 0 00.011-.114 1.045 1.045 0 00-.029-.25z" opacity=".484" fill="url(#prefix__prefix__e0e0ded8-3caa-4bbe-b55e-0ad673ba8cbe)"/><path d="M10.122 4.696l4.743-.886.145 1.164a1.261 1.261 0 00.029.151.667.667 0 00.04.1.626.626 0 00.057.1.697.697 0 00.05.067.916.916 0 00.397.278c.02.008.133.03.166.035l.447.078a16.467 16.467 0 00-3.4.421 14.944 14.944 0 00-3.144.801l.196-.125a1.382 1.382 0 00.308-.254 1.194 1.194 0 00.129-.17.879.879 0 00.124-.312.624.624 0 00.01-.115 1.107 1.107 0 00-.032-.246z" opacity=".516" fill="url(#prefix__prefix__bf3f0cf6-f351-43f4-9532-8bfc4d6f23a5)"/><path d="M10.122 4.696l4.743-.886.14 1.16a1.366 1.366 0 00.027.15.679.679 0 00.04.1.635.635 0 00.055.1.704.704 0 00.05.067.917.917 0 00.39.28c.022.01.13.03.165.036l.446.078a15.45 15.45 0 00-3.38.403 13.98 13.98 0 00-3.123.81l.193-.125a1.268 1.268 0 00.303-.255 1.228 1.228 0 00.125-.171.877.877 0 00.12-.311.618.618 0 00.007-.114 1.163 1.163 0 00-.033-.244z" opacity=".548" fill="url(#prefix__prefix__bd1ef1ae-bab2-44ec-a532-5cfded493823)"/><path d="M10.122 4.696l4.743-.886L15 4.965a1.455 1.455 0 00.026.15.678.678 0 00.038.1.626.626 0 00.054.1.682.682 0 00.05.067.921.921 0 00.385.283c.022.01.126.029.163.036l.444.077a14.547 14.547 0 00-3.361.386 13.136 13.136 0 00-3.1.818l.19-.124a1.168 1.168 0 00.298-.257 1.257 1.257 0 00.12-.17.7.7 0 00.061-.124.713.713 0 00.053-.187.623.623 0 00.007-.114 1.229 1.229 0 00-.036-.242z" opacity=".581" fill="url(#prefix__prefix__abc81232-1c0c-44be-9a9c-71f9cb1e2b23)"/><path d="M10.122 4.696l4.743-.886.13 1.15c.004.022.015.13.024.15a.7.7 0 00.037.1.646.646 0 00.054.1.681.681 0 00.048.066.696.696 0 00.088.098.687.687 0 00.291.188c.024.01.124.03.162.036l.443.078a13.733 13.733 0 00-3.342.368 12.361 12.361 0 00-3.079.826l.19-.123a1.08 1.08 0 00.291-.258 1.295 1.295 0 00.115-.172.691.691 0 00.06-.123.708.708 0 00.05-.186.628.628 0 00.005-.113 1.32 1.32 0 00-.038-.24z" opacity=".613" fill="url(#prefix__prefix__f0117044-e151-42a3-8324-651ef5ca0fef)"/><path d="M10.122 4.696l4.743-.886.124 1.147c.004.02.015.13.023.149a.69.69 0 00.037.099.64.64 0 00.052.1.658.658 0 00.047.066.928.928 0 00.374.289 1.588 1.588 0 00.161.036l.44.078a13.013 13.013 0 00-3.322.35 11.683 11.683 0 00-3.057.834l.187-.122a1.003 1.003 0 00.286-.259 1.364 1.364 0 00.111-.172.684.684 0 00.057-.124.702.702 0 00.048-.185.633.633 0 00.004-.113 1.414 1.414 0 00-.04-.237z" opacity=".645" fill="url(#prefix__prefix__a2fdea61-70d2-405b-9434-a4176738da80)"/><path d="M10.122 4.696l4.743-.886.119 1.142c.003.018.015.132.022.149a.708.708 0 00.035.099.642.642 0 00.051.1.652.652 0 00.047.066.668.668 0 00.086.099.665.665 0 00.282.192 1.444 1.444 0 00.16.037l.439.078a12.361 12.361 0 00-3.304.331 11.063 11.063 0 00-3.035.844l.185-.122a.933.933 0 00.28-.26 1.422 1.422 0 00.107-.173.674.674 0 00.055-.123.7.7 0 00.045-.185.618.618 0 00.002-.112 1.527 1.527 0 00-.043-.235z" opacity=".677" fill="url(#prefix__prefix__a1f0a87b-b378-483d-8c17-e2c2f2a26c43)"/><path d="M10.122 4.696l4.743-.886.114 1.138c.003.016.014.133.02.148a.701.701 0 00.034.099.637.637 0 00.05.1 1.02 1.02 0 00.131.165.655.655 0 00.278.194 1.376 1.376 0 00.158.038l.438.077a11.76 11.76 0 00-3.284.314 10.503 10.503 0 00-3.014.852l.182-.12a.872.872 0 00.276-.262 1.52 1.52 0 00.102-.174.667.667 0 00.053-.123.7.7 0 00.042-.184.643.643 0 000-.112 1.69 1.69 0 00-.044-.232z" opacity=".71" fill="url(#prefix__prefix__e23c8444-2e59-4bb2-8b36-fe4634d5562e)"/><path d="M10.122 4.696l4.743-.886.108 1.134c.003.014.014.134.02.147a.725.725 0 00.033.099.654.654 0 00.05.1.643.643 0 00.044.066.655.655 0 00.084.1.645.645 0 00.272.196 1.27 1.27 0 00.158.037l.435.078a11.217 11.217 0 00-3.264.296 9.998 9.998 0 00-2.992.86l.18-.12a.813.813 0 00.27-.262 1.61 1.61 0 00.098-.175.655.655 0 00.05-.123.695.695 0 00.04-.183.638.638 0 000-.111 1.884 1.884 0 00-.048-.23z" opacity=".742" fill="url(#prefix__prefix__add65361-2da1-418d-9b66-5492f70e11b8)"/><path d="M10.122 4.696l4.743-.886.103 1.13c.002.012.013.135.018.146a.71.71 0 00.032.099.652.652 0 00.048.1 1.043 1.043 0 00.127.166.636.636 0 00.268.198 1.208 1.208 0 00.157.038l.433.078a10.72 10.72 0 00-3.245.278 9.527 9.527 0 00-2.97.868l.178-.119a.762.762 0 00.265-.263 1.732 1.732 0 00.093-.176.64.64 0 00.048-.122.691.691 0 00.037-.183.644.644 0 00-.002-.11 2.108 2.108 0 00-.05-.228z" opacity=".774" fill="url(#prefix__prefix__a8f08c60-1900-4aa3-abd5-9d020cfd7ab7)"/><path d="M10.122 4.696l4.743-.886.098 1.125c.002.011.012.136.016.146a.721.721 0 00.031.099.684.684 0 00.092.166.635.635 0 00.08.1.628.628 0 00.264.2 1.128 1.128 0 00.156.039l.431.078a10.263 10.263 0 00-3.226.26A9.103 9.103 0 009.86 6.9l.176-.119a.717.717 0 00.26-.264 1.892 1.892 0 00.088-.176.638.638 0 00.046-.123.691.691 0 00.034-.182.66.66 0 00-.004-.11c.005-.018-.048-.207-.052-.225z" opacity=".806" fill="url(#prefix__prefix__bbfb8000-5406-4464-a623-3738febae540)"/><path d="M10.122 4.696l4.743-.886.093 1.121c.001.01.011.137.015.145a.712.712 0 00.03.098.66.66 0 00.046.1.632.632 0 00.044.067.623.623 0 00.08.1.62.62 0 00.258.203 1.048 1.048 0 00.154.038l.43.078a9.845 9.845 0 00-3.207.242 8.712 8.712 0 00-2.926.886l.174-.118a.672.672 0 00.254-.265c.03-.054.056-.113.084-.177a.63.63 0 00.043-.123.696.696 0 00.031-.18.666.666 0 00-.004-.11c.003-.016-.052-.208-.055-.223z" opacity=".839" fill="url(#prefix__prefix__aee226d4-9a1d-47ac-a059-074326e1261e)"/><path d="M10.122 4.696l4.743-.886.087 1.117c.002.007.011.138.014.145a.747.747 0 00.03.097.676.676 0 00.044.1 1.115 1.115 0 00.122.168.613.613 0 00.253.204 1.004 1.004 0 00.154.04l.428.077a9.458 9.458 0 00-3.188.224 8.344 8.344 0 00-2.904.894l.172-.117a.635.635 0 00.248-.266c.029-.054.053-.113.08-.178a.62.62 0 00.04-.122.688.688 0 00.03-.18.663.663 0 00-.007-.11c.003-.012-.054-.208-.056-.22z" opacity=".871" fill="url(#prefix__prefix__bf3a4a8a-575f-4eed-a9a3-bdf2b24273d5)"/><path d="M10.122 4.696l4.743-.886.082 1.113c.001.005.01.139.013.144a.74.74 0 00.027.097.677.677 0 00.045.1.628.628 0 00.042.067.61.61 0 00.077.101.606.606 0 00.25.207.939.939 0 00.152.039l.426.078a9.095 9.095 0 00-3.168.206 8.011 8.011 0 00-2.883.902l.17-.115a.6.6 0 00.243-.268c.027-.054.049-.114.075-.179a.604.604 0 00.038-.122.69.69 0 00.019-.289 3.507 3.507 0 00-.06-.217z" opacity=".903" fill="url(#prefix__prefix__f019b723-eb6d-4e3e-884f-d3030ca71763)"/><path d="M10.122 4.696l4.743-.886.077 1.108.011.144a.756.756 0 00.027.097.675.675 0 00.043.1.614.614 0 00.042.067.603.603 0 00.075.102.6.6 0 00.245.208.9.9 0 00.151.04l.425.078a8.764 8.764 0 00-3.15.188 7.698 7.698 0 00-2.86.91l.167-.114a.568.568 0 00.238-.27c.025-.054.046-.113.071-.179a.606.606 0 00.036-.122.692.692 0 00.015-.287c0-.006-.06-.21-.062-.215z" opacity=".935" fill="url(#prefix__prefix__bf34306a-3172-4b34-96db-2af3f12d18f6)"/><path d="M10.122 4.696l4.743-.886.071 1.104.01.143a.746.746 0 00.026.097.689.689 0 00.042.1.615.615 0 00.041.067.599.599 0 00.075.102.595.595 0 00.24.21.84.84 0 00.15.04l.423.078a8.455 8.455 0 00-3.13.17 7.408 7.408 0 00-2.84.92l.166-.114a.538.538 0 00.232-.27c.024-.055.043-.115.067-.18a.591.591 0 00.034-.123.693.693 0 00.01-.286l-.064-.213z" opacity=".968" fill="url(#prefix__prefix__a15eb372-0ebf-4df3-98a6-da747323b274)"/><path d="M15.924 5.75a8.163 8.163 0 00-3.11.151 7.137 7.137 0 00-2.818.928l.164-.113a.67.67 0 00.29-.452.58.58 0 00.03-.122.696.696 0 00.007-.285l-.365-1.16 4.743-.887.075 1.242a.694.694 0 00.106.264.583.583 0 00.073.103.508.508 0 00.385.252z" fill="url(#prefix__prefix__bda9afc1-3dde-4811-bb02-4cda50ff09d5)"/><path d="M15.2 5.306c-.639.102-1.134-.13-1.268-.683.078.58-.494 1.013-1.16 1.137-.663.124-1.329-.04-1.465-.608.075.565-.326.928-.96 1.061a.73.73 0 00.004-.286l-.255-1.365 4.742-.887.256 1.366a.732.732 0 00.107.265z" style="mix-blend-mode:multiply" fill="#f2f2f2"/><path d="M11.768.36a1.682 1.682 0 101.966 1.344A1.684 1.684 0 0011.768.36zm.597 3.193a1.564 1.564 0 111.254-1.828 1.57 1.57 0 01-1.254 1.828z" fill="#828282"/><path d="M11.776.405a1.638 1.638 0 101.915 1.307A1.639 1.639 0 0011.776.405zm.589 3.148a1.564 1.564 0 111.254-1.828 1.57 1.57 0 01-1.254 1.828z" fill="#bababa"/><path d="M11.784.441a1.6 1.6 0 101.869 1.277A1.603 1.603 0 0011.784.44zm.582 3.111a1.563 1.563 0 111.252-1.828 1.57 1.57 0 01-1.252 1.828z" fill="#6e6e6e"/><path class="prefix__prefix__ee7ddd8e-4bf6-4064-b78c-36fdeddbe46b" d="M14.992 3.402l.315 1.69-.043.067a1.33 1.33 0 01-1.48-1.02l-.002-.007-.22-1.178.62-.116a.697.697 0 01.81.564zm-5.125.958l.315 1.69.065.047A1.33 1.33 0 0011.26 4.61l-.002-.006-.22-1.178-.62.115a.697.697 0 00-.551.819z"/><path class="prefix__prefix__ee7ddd8e-4bf6-4064-b78c-36fdeddbe46b" d="M13.598 2.926l.224 1.196.001.007a1.325 1.325 0 01-2.604.487l-.001-.007-.224-1.196z"/><path class="prefix__prefix__f6d4d28e-991e-4004-9dd3-33218857d7b7" d="M11.018 3.43l.214 1.144.001.006a1.307 1.307 0 01-1.051 1.466l-.318-1.703a.684.684 0 01.477-.784.432.432 0 01.067-.016z"/><path class="prefix__prefix__fb940bd0-f54e-43c1-aa8e-1a9ea053956c" d="M13.582 2.95l.214 1.144.001.007a1.306 1.306 0 01-2.564.48l-.001-.007-.214-1.145z"/><path d="M14.989 3.385l.318 1.703a1.307 1.307 0 01-1.51-.987v-.007l-.215-1.144.61-.114a.685.685 0 01.797.549z" fill="#858585"/><path class="prefix__prefix__f6d4d28e-991e-4004-9dd3-33218857d7b7" d="M14.318 2.827V2.82a17.256 17.256 0 00-2.018.266 17.75 17.75 0 00-1.959.474.432.432 0 01.067-.016l3.784-.707a.677.677 0 01.083-.01c.014-.001.028.001.043.001z"/><circle cx="14.861" cy="17.076" r="11.385" transform="rotate(-53.127 14.861 17.076)" opacity=".032" fill="url(#prefix__prefix__a04c58ae-adc8-46be-9f2c-cdfefbfaeca8)"/><circle cx="14.861" cy="17.076" r="11.374" transform="rotate(-50.586 14.861 17.076)" opacity=".065" fill="url(#prefix__prefix__a56b8243-72ff-497c-b4bd-922c9de6fea9)"/><circle cx="14.861" cy="17.076" r="11.363" transform="rotate(-47.686 14.861 17.076)" opacity=".097" fill="url(#prefix__prefix__eb80f062-1ebf-422e-a8fb-742e59d71800)"/><circle cx="14.861" cy="17.076" r="11.352" transform="rotate(-45 14.861 17.076)" opacity=".129" fill="url(#prefix__prefix__bfdade68-02f1-4667-b8a2-8eae1f81b233)"/><circle cx="14.861" cy="17.076" r="11.342" transform="rotate(-40.811 14.861 17.076)" opacity=".161" fill="url(#prefix__prefix__a88c0fb4-b58d-4ca7-957b-a4b9de1a1722)"/><circle cx="14.861" cy="17.076" r="11.331" transform="rotate(-36.936 14.861 17.076)" opacity=".194" fill="url(#prefix__prefix__b4b9f47d-2b0a-462f-b40d-f81b78e75d88)"/><circle cx="14.861" cy="17.076" r="11.32" transform="rotate(-32.915 14.861 17.076)" opacity=".226" fill="url(#prefix__prefix__a8f0dbcf-7ba3-40fe-ba0e-c2dbbe8aabea)"/><circle cx="14.861" cy="17.076" r="11.31" transform="rotate(-28.903 14.861 17.076)" opacity=".258" fill="url(#prefix__prefix__ba65c1cd-bb29-4ddb-8aaf-d9a9db9576f3)"/><circle cx="14.861" cy="17.076" r="11.299" transform="rotate(-25.05 14.861 17.076)" opacity=".29" fill="url(#prefix__prefix__e9fe6f20-2d56-4d2d-a241-1dbd404d873f)"/><circle cx="14.861" cy="17.076" r="11.288" transform="rotate(-21.473 14.861 17.076)" opacity=".323" fill="url(#prefix__prefix__f047ca0a-9a2a-4bd2-b659-dedc3b6100a7)"/><circle cx="14.861" cy="17.076" r="11.277" transform="rotate(-18.242 14.861 17.076)" opacity=".355" fill="url(#prefix__prefix__eb984d81-2277-44a8-8a49-51d86276c795)"/><circle cx="14.861" cy="17.076" r="11.267" transform="rotate(-15.379 14.861 17.076)" opacity=".387" fill="url(#prefix__prefix__f99a6a9f-fbbd-46ab-b77a-63155624e24c)"/><circle cx="14.861" cy="17.076" r="11.256" transform="rotate(-12.872 14.861 17.076)" opacity=".419" fill="url(#prefix__prefix__fcfbd49c-e894-476e-a53a-e69fb93e5b60)"/><circle cx="14.861" cy="17.076" r="11.245" transform="rotate(-10.69 14.861 17.076)" opacity=".452" fill="url(#prefix__prefix__b6ce4161-6989-4961-9f46-501f25d5abf9)"/><circle cx="14.861" cy="17.076" r="11.234" transform="rotate(-8.795 14.861 17.076)" opacity=".484" fill="url(#prefix__prefix__a8331046-f39b-4a63-9e87-ab2b5bf338d2)"/><circle cx="14.861" cy="17.076" r="11.224" transform="rotate(-7.147 14.861 17.076)" opacity=".516" fill="url(#prefix__prefix__f3ad1d05-c1f8-485a-916f-5e09c6a897f2)"/><circle cx="14.861" cy="17.076" r="11.213" transform="rotate(-5.711 14.861 17.076)" opacity=".548" fill="url(#prefix__prefix__b947a2bb-be22-4f36-b5eb-011fcf2a72ef)"/><circle cx="14.861" cy="17.076" r="11.202" transform="rotate(-4.453 14.861 17.076)" opacity=".581" fill="url(#prefix__prefix__a0850188-a79d-45ba-863d-b4d8970a3c96)"/><circle cx="14.861" cy="17.076" r="11.191" transform="rotate(-3.346 14.861 17.076)" opacity=".613" fill="url(#prefix__prefix__b722e20c-a6c0-4e55-8684-a29f56669c02)"/><circle cx="14.861" cy="17.076" r="11.181" transform="rotate(-2.368 14.862 17.076)" opacity=".645" fill="url(#prefix__prefix__fbbc35a2-2a45-4a41-8a4f-a12d4a3ab07f)"/><circle cx="14.861" cy="17.076" r="11.17" transform="rotate(-1.499 14.861 17.076)" opacity=".677" fill="url(#prefix__prefix__b8478c19-4b2b-40e2-8fe3-63ab69eed425)"/><circle cx="14.861" cy="17.076" r="11.159" transform="rotate(-.723 14.861 17.076)" opacity=".71" fill="url(#prefix__prefix__abd5a618-863d-4cff-b299-2193507f79c2)"/><circle cx="14.861" cy="17.076" r="11.149" opacity=".742" fill="url(#prefix__prefix__b34eec84-360f-466b-a5e7-4cfdaa2b7b13)"/><circle cx="14.861" cy="17.076" r="11.138" transform="rotate(-89.401 14.861 17.076)" opacity=".774" fill="url(#prefix__prefix__e131a4f8-0ac3-4662-aebc-004f0ce51337)"/><circle cx="14.861" cy="17.076" r="11.127" transform="rotate(-88.834 14.861 17.076)" opacity=".806" fill="url(#prefix__prefix__a3427aaa-d3c2-4f77-a5e2-937aeac8abd2)"/><circle cx="14.861" cy="17.076" r="11.116" transform="rotate(-88.319 14.861 17.076)" opacity=".839" fill="url(#prefix__prefix__b45c93d5-6dc4-49cd-83a3-91ffe3bfabe3)"/><circle cx="14.861" cy="17.076" r="11.106" transform="rotate(-87.849 14.861 17.076)" opacity=".871" fill="url(#prefix__prefix__ac91b2ea-6c6c-4603-b2af-7bcb7a42fa0d)"/><circle cx="14.861" cy="17.076" r="11.095" transform="rotate(-87.419 14.861 17.076)" opacity=".903" fill="url(#prefix__prefix__b7047902-23b2-4d48-b68c-7b08b5a1a5b8)"/><circle cx="14.861" cy="17.076" r="11.084" transform="rotate(-87.025 14.861 17.076)" opacity=".935" fill="url(#prefix__prefix__fb16fdd9-ef1a-4fd1-91b4-f07a4c8bd03d)"/><path d="M25.746 15.042a11.073 11.073 0 11-12.919-8.85 11.074 11.074 0 0112.92 8.85z" opacity=".968" fill="url(#prefix__prefix__b0f2f2eb-c02b-40f8-b12c-b3335b26ee5c)"/><path d="M25.736 15.044a11.063 11.063 0 11-12.907-8.842 11.063 11.063 0 0112.907 8.842z" fill="url(#prefix__prefix__e7024f75-de36-499b-89b0-3878016ce306)"/><path d="M10.387 8.565c2.228.698 3.297 3.615 2.387 6.515-.91 2.9-3.453 4.684-5.68 3.985-2.229-.699-3.298-3.616-2.388-6.515s3.453-4.684 5.68-3.985z" style="mix-blend-mode:screen" fill="url(#prefix__prefix__aeb88743-d48f-496c-a80f-fa49b82620c3)"/><path d="M15.8 7.668c-2.054 1.638-1.904 5.24.333 8.044 2.238 2.805 5.716 3.75 7.77 2.111 2.053-1.638 1.904-5.24-.334-8.044-2.237-2.804-5.716-3.75-7.77-2.11z" style="mix-blend-mode:screen" fill="url(#prefix__prefix__aead780f-970b-48cc-ab3c-90f84919dfcf)"/><g class="prefix__prefix__ea163408-6d43-4d78-b96a-f4c9c2854b82"><path class="prefix__prefix__fb940bd0-f54e-43c1-aa8e-1a9ea053956c" d="M8.563 26.592a9.151 9.151 0 001.131.656 4.994 4.994 0 01-1.131-.656zm3.835 1.632c-.015.044-.1.013-.216-.053.076.02.151.036.216.053z"/></g><path d="M15.852 28.418a9.075 9.075 0 001.043-.134c-.187.035-.383.071-.572.096-.16.01-.32.03-.471.038zM12.71 5.891a9.127 9.127 0 00-1.021.252c.144-.047.3-.086.453-.135.187-.035.381-.082.568-.117z" fill="#ccc"/><path d="M16.275 28.339a3.175 3.175 0 00.62-.055c-.108.02-.216.04-.316.049-.1.008-.203.007-.304.006zM12.71 5.891a2.84 2.84 0 00-.567.172c.073-.027.142-.063.217-.086.02-.003.03-.005.037-.017.107-.03.205-.048.313-.069zm-.567.172l-.051.02.051-.02z" fill="#999"/><path class="prefix__prefix__fb940bd0-f54e-43c1-aa8e-1a9ea053956c" d="M12.397 5.96c-.008.012-.017.014-.037.017a4.386 4.386 0 00-.504.135 5.066 5.066 0 01.541-.152zm.317-.049l-.004-.02c.01-.001.008-.011.004.02z"/><path class="prefix__prefix__fb940bd0-f54e-43c1-aa8e-1a9ea053956c" d="M12.706 5.888a11.395 11.395 0 014.186 22.4 11.394 11.394 0 00-4.186-22.4z"/><path class="prefix__prefix__fb940bd0-f54e-43c1-aa8e-1a9ea053956c" d="M19.012 17.778l.33-.344-.44-.128c-.78-.23-1.042-.307-1.73-.532l-.144-.053-.112.111c-.75.709-.765.722-1.338 1.23l-.348.309.434.169c.943.354 1 .375 1.728.624l.15.052.114-.112a36.31 36.31 0 001.356-1.326zm-1.53 1.121a44.816 44.816 0 01-1.726-.619c.73-.657.825-.741 1.343-1.24.886.289 1 .326 1.73.542-.722.728-.765.772-1.347 1.317zm-.416-2.606l.036.155.149.051c.922.292.997.316 1.727.524l.438.12q-.06-.235-.122-.468a27.727 27.727 0 00-.548-1.789l-.052-.148-.145-.041c-.878-.245-.99-.277-1.63-.48l-.404-.136q.06.216.118.436c.228.903.263 1.042.433 1.776zm1.44-1.336c.194.585.373 1.185.533 1.794a45.377 45.377 0 01-1.716-.518c-.264-1.06-.264-1.06-.457-1.765.88.277.951.3 1.64.49z"/><path class="prefix__prefix__fb940bd0-f54e-43c1-aa8e-1a9ea053956c" d="M24.457 18.424c.293-.468.84-1.34.354-1.528l-.038.02-.05.07a8.08 8.08 0 01-.772 1.221 20.536 20.536 0 00-1.318-.463 11.941 11.941 0 00.889-1.621l.003-.003.026-.08.002-.022.01-.078.003-.017v-.014l-.003-.05-.002-.034-.01-.045-.008-.039-.01-.036-.014-.043-.015-.035-.015-.034-.019-.033-.024-.036-.007-.01-.01-.008-.03-.027-.024-.022-.025-.014-.027-.02-.014-.006a32.121 32.121 0 00-1.466-.428 8.386 8.386 0 00.648-1.556l1.094.022c.312-.134-.112-.721-.268-.765a.159.159 0 00-.022-.003l-.642-.01c.162-1.8-.372-1.625-.539-1.528l-.01.076a4.113 4.113 0 01-.033.974c-.662-1.071-.8-1.294-1.078-1.247-.076.057-.147.111.013.37a11.421 11.421 0 01.911 1.605 7.963 7.963 0 01-.642 1.522 17.162 17.162 0 00-.947-1.828l-.016-.02-.022-.037-.028-.028-.026-.028-.034-.031-.014-.015-.01-.008-.04-.023-.024-.016-.035-.018-.033-.013-.033-.005-.029-.007h-.03l-.03-.001-.027.004-.031.006-.008.004-.004.001-.012.005-.025.017-.025.017-.018.02-.015.026-.006.015a9.131 9.131 0 01-.874 1.368 21.703 21.703 0 00-.878-1.867 3.938 3.938 0 00.291-1.347c-.033-.197-.407-.494-.58-.347a.19.19 0 00-.05.093 9.901 9.901 0 01-.147.74c-.235-.39-.477-.758-.724-1.1-.205-.234-.349-.221-.4-.205-.062.041-.163.111-.035.34.214.351.425.729.63 1.128-1.123-.56-1.326-.66-1.182-.119a.441.441 0 00.196.262c.7.385.773.425 1.413.736.275.599.537 1.235.78 1.897-.787-.227-.999-.288-1.777-.55l-.024-.007-.035-.01-.034-.004h-.032l-.036.003-.02.005-.016.003-.029.013-.033.013-.027.019-.028.018-.02.023-.027.023-.019.03-.013.032-.014.028-.012.039-.008.013v.02l-.005.043-.002.037.003.036.005.042.006.023c.166.705.249 1.059.45 1.98a29.44 29.44 0 01-1.88-.742c-.615-2.016-.615-2.016-.84-1.996a.41.41 0 00-.283.492c.074.329.173.766.253 1.093-1.245-.657-1.245-.657-1.269-.658-.177-.01-.407.27-.32.564a.362.362 0 00.141.2c.74.433.74.433 1.156.643-1.03.55-1.03.55-1.087.63a.44.44 0 00.179.654.464.464 0 00.139.018l.121-.037c.784-.413.905-.477 1.54-.836.803.343.97.415 1.914.765-.703.642-.793.725-1.522 1.35l-.01.014-.031.038-.026.03-.02.035-.018.036-.01.02-.003.014-.011.047-.006.04-.006.04v.04l.007.044.007.038.012.038.02.043.017.03.026.042.008.011.009.012.059.057.022.016.076.048.007-.001c.87.351 1.027.414 1.941.747-.712.62-.84.731-1.635 1.375-.916-.186-1.08-.22-1.843-.413-.508-.047-.503.4-.364.594a.467.467 0 00.262.181c.344.08.803.186 1.148.26-1.12.857-1.12.857-1.135.882-.127.224.078.496.33.542a.384.384 0 00.294-.054c.352-.26.704-.518 1.052-.782.063 1.296.063 1.296.454 1.322.246-.025.346-.112.367-.319q-.02-.807-.03-1.615c.641-.509.881-.699 1.637-1.344.111.623.219 1.247.318 1.873l.003.016.011.035.01.03.017.03.023.033.008.014.007.009.068.05.006.004.071.032.025.006.067.006h.023l.089-.01h.006l.086-.026.022-.016.062-.035.017-.01c.705-.57.873-.706 1.568-1.319a16.965 16.965 0 01.083 1.802 9.273 9.273 0 00-1.285 1.292.216.216 0 00.21.35.5.5 0 00.282-.127c.228-.213.533-.496.758-.712a8.39 8.39 0 01-.134.992c.012.295.34.142.481-.004a.464.464 0 00.113-.179 7.515 7.515 0 00.205-1.014c1.42.73 1.093-.24 1.086-.251a.175.175 0 00-.03-.029 10.252 10.252 0 00-.98-.535 14.072 14.072 0 00-.027-1.82c.659.157.93.222 1.508.371l.01.002.05.001.018.003.07-.023.004-.001.069-.04.018-.013.051-.043.02-.018.051-.07.005-.008.048-.085.005-.013.005-.019.015-.045.01-.037.01-.037.002-.04.004-.018a13.21 13.21 0 00-.096-1.94c.6.184.78.24 1.313.432a8.618 8.618 0 00.096 1.761l.072.038.049-.02a.828.828 0 00.27-.553c.01-.303.02-.708.01-1.012a6.3 6.3 0 01.509.296c.308-.075.222-.79.216-.796a2.918 2.918 0 00-.519-.32zm.455.748l-.051.11-.025.005a2.849 2.849 0 00-.511-.305l-.255-.116.047.51c.005.3.008.702-.007 1.002l-.026.1-.054.084-.012.008-.05-.063a8.268 8.268 0 00-.062-1.604l-.018-.112-.062-.026a20.445 20.445 0 00-1.316-.446l-.342-.107q.039.236.07.467a13.531 13.531 0 01.1 1.928v.033l-.005.014v.011l-.005.013-.005.008v.005l-.014.028-.005.008-.014.017-.01.009-.018.019-.005.002-.024.014-.004.002-.019.003-.004.002-.005.001-.018-.003h-.014c-.715-.186-.715-.186-1.503-.377l-.392-.095q.023.218.04.431a14.887 14.887 0 01.045 1.814l-.005.102.08.036a10.976 10.976 0 01.98.518l.017.058-.045.08-.082.062-.06.002c-.17-.096-.397-.222-.571-.311l-.336-.165q-.016.22-.04.428a7.777 7.777 0 01-.182 1.007c-.07.111-.097.112-.185.113l-.016-.051a8.063 8.063 0 00.157-1q.02-.206.033-.425l-.388.387c-.226.218-.528.507-.757.721l-.075.04-.085-.012-.024-.058.04-.075a35.33 35.33 0 001.215-1.194l.087-.088.003-.102a15.882 15.882 0 00-.064-1.807q-.018-.213-.043-.43l-.355.325c-.709.621-.837.733-1.561 1.316l-.005.007-.017.009-.022.016-.012.003-.017.009-.006.001-.03.002h-.006l-.006.002-.03-.004-.026-.01-.007-.004-.014-.019-.006.002-.002-.011-.007-.01-.007-.009-.002-.01-.007-.01-.003-.02a62.15 62.15 0 00-.306-1.866l-.082-.463-.359.323c-.762.655-.842.723-1.636 1.359l-.092.073v.117c.039 1.703.039 1.703-.057 1.72l-.023.003-.092-.037-.045-.08a106.8 106.8 0 01-.042-.986l-.018-.52-.424.327c-.35.264-.702.528-1.056.788l-.062.022-.126-.053-.044-.087.04-.078c.354-.264.709-.528 1.06-.797l.43-.33-.573-.11a60.342 60.342 0 01-1.147-.268l-.092-.065-.028-.102.11-.102.042.002c.945.23 1.044.254 1.838.408l.122.019.098-.075c.64-.52.88-.713 1.63-1.367l.359-.318-.44-.157a44.167 44.167 0 01-1.947-.74l-.02-.01-.007-.005-.002-.007-.02-.016-.01-.012-.008-.012-.008-.011-.002-.013-.008-.012-.003-.02-.001-.005.002-.02-.002-.013.004-.014.004-.014.004-.013.01-.015.005-.007.01-.015.011-.008.01-.014c.696-.603.861-.746 1.518-1.353l.33-.318-.433-.15c-.8-.3-1.041-.39-1.899-.763l-.109-.047-.1.06a42.96 42.96 0 01-1.527.827l-.038.01-.128-.084-.001-.108.066-.081c.287-.15.668-.352.953-.506l.47-.262-.476-.231c-.788-.419-.788-.419-1.14-.636l-.054-.08.016-.104.094-.074.059.012c.723.423.723.423 1.128.627l.466.229-.148-.555a64.34 64.34 0 01-.27-1.087l.013-.101.063-.067.02-.003c.095.027.1.029.12.095.22.866.248.978.472 1.74l.037.114.104.053c.792.335.957.405 1.89.745l.433.154q-.052-.233-.106-.464a81.43 81.43 0 00-.473-1.963l-.002-.006-.003-.012.001-.018-.003-.012.002-.013.002-.013-.001-.005.003-.007.003-.013.003-.007.007-.014.004-.007.012-.015h.006l.013-.01.004-.007.015-.004.01-.002.011-.002.015-.004.01-.002.012.003.012.004.017.002c.801.267.946.315 1.786.556l.422.114q-.079-.216-.16-.43a24.68 24.68 0 00-.814-1.886l-.05-.104-.103-.046c-.724-.353-.854-.416-1.402-.72l-.06-.066-.014-.087.05-.056.068.01c.255.135.596.314.855.444l.453.216q-.12-.237-.244-.464a17.099 17.099 0 00-.66-1.12l-.024-.076.066-.045a.407.407 0 01.104.076c.237.345.468.716.693 1.11q.13.225.255.46l.125-.394a9.69 9.69 0 00.147-.752l.033-.041.085.014.079.067.024.076a5.254 5.254 0 01-.299 1.245l-.034.089.052.102c.3.592.584 1.22.846 1.877q.085.213.166.428l.254-.322a9.304 9.304 0 00.874-1.376l.008-.003.001-.007.01-.01.004-.009.008-.003.009-.004.005-.008.003.005.012-.005.008-.004.011.002.008-.003.015.007.004-.002.014.008.011.002.01.009.015.007.01.009.01.009.006.01.01.01.01.015.01.016a17.785 17.785 0 01.925 1.824q.094.219.181.44l.198-.347a8.123 8.123 0 00.647-1.53l.02-.092-.05-.11a11.31 11.31 0 00-.927-1.601.178.178 0 01-.019-.125l.01-.006.08.022.076.075c.193.29.447.677.624.977l.272.517.07-.394a4.173 4.173 0 00.034-.988l.01-.033a.218.218 0 01.189.183 4.34 4.34 0 01-.035 1l-.07.398.354.009c.71.011.71.011.769.142v.122l-.021.01a48.467 48.467 0 00-1.085-.02l-.081-.003-.023.087a8.236 8.236 0 01-.647 1.55l-.2.345.374.1c.67.188.873.245 1.464.433l.005.003.009.002.01.003.007.01.009.002.007.01.005.004.002.006.008.01.007.01.003.013.008.01.006.018.003.013v.014l.004.012v.066l-.004.016-.009.026a11.834 11.834 0 01-.89 1.609l-.254.372.34.102c.6.193.782.251 1.32.454l.062.027.062-.076a8.02 8.02 0 00.773-1.215l.074.02.003.01.008.107-.024.1c-.13.232-.305.54-.449.763l-.265.367.257.119c.56.302.56.302.516.474z"/><path class="prefix__prefix__fb940bd0-f54e-43c1-aa8e-1a9ea053956c" d="M19.535 17.638l-.33.353c-.714.723-.773.782-1.36 1.334l-.121.108.03.163c.149.829.189 1.051.293 1.723l.057.408.359-.294a31.48 31.48 0 001.394-1.228l.12-.11a14.934 14.934 0 00-.02-.154q-.076-.57-.188-1.177-.06-.327-.13-.653-.05-.237-.104-.473zm.163 2.38c-.76.701-.806.743-1.394 1.24-.133-.886-.15-1-.282-1.732.71-.676.819-.78 1.357-1.337q.069.326.13.653.111.605.19 1.176zm.537-2.344l-.437-.117q.055.236.106.473.07.326.13.653.112.605.186 1.177l.02.155.135.03c.478.118.957.234 1.434.357l.32.085q0-.21-.008-.423a14.272 14.272 0 00-.172-1.761l-.028-.164-.123-.032c-.746-.214-.842-.242-1.563-.433zm1.676 2.473q-.717-.187-1.437-.368-.072-.572-.183-1.178-.06-.327-.131-.653c.523.142 1.047.286 1.568.436a14.684 14.684 0 01.183 1.763zm1.228-4.216l-.318-.103c-.753-.222-.753-.222-1.38-.391l-.13-.036-.076.121a13.97 13.97 0 01-1.052 1.39l-.31.359.43.11c.823.219.995.264 1.56.427l.125.038.09-.127a12.377 12.377 0 00.881-1.43zm-1.216 1.599q-.775-.217-1.554-.423a13.862 13.862 0 001.05-1.398c.752.207.888.245 1.387.397a12.323 12.323 0 01-.883 1.424zm-.883-2.198l.077-.12-.057-.15a17.705 17.705 0 00-.76-1.675q-.105-.205-.215-.406l-.176.314a10.517 10.517 0 01-.884 1.255l-.09.114.054.147c.207.58.396 1.178.563 1.785q.064.232.124.466l.317-.351a13.65 13.65 0 001.048-1.38zm-1.815-.596a10.493 10.493 0 00.889-1.268c.412.869.465.98.736 1.678a13.616 13.616 0 01-1.047 1.37 24.136 24.136 0 00-.578-1.78z"/><g style="mix-blend-mode:multiply"><path d="M20.363 17.904l-.437-.116q.055.235.106.472.07.326.13.653.112.606.185 1.177l.02.155.136.031c.478.117.957.234 1.434.356l.32.085q0-.209-.008-.423a14.272 14.272 0 00-.172-1.76l-.028-.164-.123-.033a58.823 58.823 0 00-1.563-.433zm1.676 2.474q-.718-.188-1.437-.369-.072-.571-.184-1.177-.06-.327-.13-.653c.523.142 1.046.285 1.568.435a14.66 14.66 0 01.183 1.764z" fill="url(#prefix__prefix__fb4d3501-a9a9-4359-8267-3fa21998191b)"/><path d="M24.585 18.655c.293-.469.84-1.34.354-1.529l-.038.02-.05.07a8.09 8.09 0 01-.773 1.222 20.466 20.466 0 00-1.317-.464 11.914 11.914 0 00.888-1.621l.004-.002.026-.08.002-.023.01-.078.003-.016v-.015l-.003-.049-.003-.034-.009-.045-.008-.04-.011-.036-.013-.043-.015-.034-.015-.035-.019-.032-.024-.037-.007-.01-.011-.008-.029-.026-.024-.023-.025-.013-.027-.02-.015-.007a32.047 32.047 0 00-1.465-.427 8.38 8.38 0 00.648-1.557q.547.01 1.094.023c.312-.135-.112-.722-.268-.766l-.022-.003-.642-.009c.161-1.801-.372-1.625-.54-1.528l-.01.075a4.119 4.119 0 01-.032.975c-.663-1.072-.8-1.295-1.079-1.247-.075.057-.146.11.013.37a11.423 11.423 0 01.912 1.605 7.953 7.953 0 01-.642 1.521 17.168 17.168 0 00-.947-1.828l-.016-.02-.023-.036-.027-.028-.026-.028-.035-.032-.013-.014-.01-.009-.04-.023-.024-.016-.035-.018-.033-.012-.033-.006-.03-.007h-.03l-.03-.001-.027.004-.03.007-.008.003-.004.002-.013.005-.025.016-.024.017-.018.02-.016.026-.005.015a9.143 9.143 0 01-.874 1.368 21.733 21.733 0 00-.878-1.867 3.941 3.941 0 00.291-1.346c-.034-.198-.407-.494-.58-.348a.19.19 0 00-.05.093 9.757 9.757 0 01-.147.741c-.235-.39-.477-.758-.724-1.1-.206-.234-.349-.222-.401-.206-.06.042-.162.111-.034.34.214.352.425.73.63 1.129-1.123-.56-1.326-.661-1.182-.12a.44.44 0 00.196.262c.7.385.773.425 1.412.737.276.598.538 1.234.782 1.896-.788-.227-1-.288-1.779-.55l-.023-.007-.035-.01-.034-.004-.032.001-.037.003-.02.004-.015.004-.029.012-.033.014-.028.018-.027.018-.02.023-.027.024-.02.029-.012.033-.015.027-.011.04-.008.013v.019l-.006.043-.001.037.003.036.005.042.006.023c.165.705.249 1.06.45 1.98-.791-.29-1.03-.378-1.88-.741-.615-2.016-.615-2.016-.84-1.997a.41.41 0 00-.283.493c.074.328.173.766.253 1.092-1.245-.656-1.245-.656-1.269-.658-.177-.01-.407.27-.32.564a.362.362 0 00.14.2c.742.434.742.434 1.157.644-1.03.55-1.03.55-1.087.629a.44.44 0 00.178.655.46.46 0 00.14.018l.121-.037c.784-.414.905-.477 1.54-.837.803.344.97.415 1.914.765-.703.643-.793.725-1.522 1.35l-.01.015-.031.037-.026.03-.02.035-.018.036-.01.02-.003.015-.011.047-.006.04-.006.04v.039l.007.045.007.038.012.037.02.043.017.03.026.042.008.012.008.012.06.056.021.017.077.047h.006c.87.35 1.028.414 1.942.746-.712.62-.84.732-1.635 1.376-.916-.187-1.081-.22-1.843-.413-.508-.048-.503.4-.365.593a.467.467 0 00.263.182c.344.08.803.186 1.148.259-1.12.857-1.12.857-1.135.882-.127.225.078.496.329.543a.383.383 0 00.295-.055c.352-.259.704-.518 1.052-.781.063 1.295.063 1.295.454 1.322.246-.026.345-.112.367-.32q-.02-.807-.03-1.614c.641-.51.88-.7 1.637-1.345.11.624.218 1.248.318 1.873l.002.016.012.036.01.03.017.029.023.033.008.015.007.008.068.05.006.004.07.033.026.005.066.006h.024l.089-.009.005-.001.087-.026.022-.015.061-.036.017-.01c.706-.57.874-.705 1.57-1.318a16.996 16.996 0 01.081 1.802 9.266 9.266 0 00-1.284 1.292.216.216 0 00.21.35.5.5 0 00.282-.128 68.8 68.8 0 00.757-.712 8.365 8.365 0 01-.133.992c.012.296.34.143.481-.003a.465.465 0 00.113-.18 7.5 7.5 0 00.204-1.014c1.42.73 1.094-.24 1.087-.25a.179.179 0 00-.03-.03 10.276 10.276 0 00-.98-.534 14.11 14.11 0 00-.027-1.82c.658.156.93.221 1.508.37l.01.002.05.002.018.003.069-.023.004-.002.07-.04.018-.012.051-.043.019-.019.052-.07.005-.008.048-.085.005-.013.005-.019.015-.044.01-.037.01-.038.002-.039.004-.018a13.225 13.225 0 00-.096-1.94c.599.183.78.239 1.313.432a8.61 8.61 0 00.096 1.76l.072.038.049-.02a.826.826 0 00.27-.552c.01-.304.02-.709.01-1.013.156.082.361.2.509.296.308-.075.222-.79.216-.795a2.914 2.914 0 00-.52-.321zm.455.748l-.051.109-.025.005a2.858 2.858 0 00-.511-.304l-.256-.117.048.51c.005.301.008.702-.007 1.003l-.026.1-.054.084-.012.007-.05-.062a8.253 8.253 0 00-.063-1.605l-.017-.112-.062-.025a20.425 20.425 0 00-1.317-.447l-.341-.106q.038.235.069.466a13.518 13.518 0 01.101 1.929v.033l-.005.013v.012l-.005.013-.005.007v.006l-.015.028-.004.007-.015.017-.009.01-.019.018-.004.002-.024.015-.004.002-.019.002-.005.002-.004.002-.019-.004h-.013c-.715-.186-.715-.186-1.503-.376l-.392-.096q.023.219.04.432a14.904 14.904 0 01.045 1.813l-.005.102.08.037a10.971 10.971 0 01.98.517l.016.058-.044.08-.082.062-.06.003c-.17-.096-.398-.222-.571-.312l-.336-.164q-.016.22-.04.428a7.77 7.77 0 01-.182 1.007c-.07.11-.098.111-.186.113l-.015-.052a8.045 8.045 0 00.157-.999q.02-.207.033-.426l-.388.388a85.78 85.78 0 01-.757.72l-.076.04-.084-.011-.024-.059.04-.075c.59-.562.712-.678 1.215-1.194l.087-.088.003-.101a15.86 15.86 0 00-.064-1.808q-.019-.212-.043-.43l-.355.325c-.71.621-.837.733-1.562 1.316l-.005.007-.016.01-.023.015-.011.003-.017.01h-.006l-.03.002-.006.001-.006.002-.03-.004-.026-.01-.007-.005-.015-.018-.005.001-.002-.01-.007-.01-.007-.01-.002-.01-.007-.01-.003-.02c-.116-.754-.15-.98-.307-1.866l-.082-.462-.358.322c-.763.655-.842.723-1.636 1.36l-.092.072v.118c.039 1.702.039 1.702-.057 1.72l-.023.003-.092-.038-.045-.079a90.09 90.09 0 01-.042-.987l-.018-.52-.424.327c-.35.264-.702.528-1.056.789l-.063.021-.126-.053-.043-.086.04-.079c.354-.264.708-.528 1.06-.797l.43-.33-.573-.11a59.396 59.396 0 01-1.147-.268l-.092-.065-.028-.101.11-.103.042.003c.945.23 1.044.253 1.838.408l.122.018.098-.075c.64-.519.88-.713 1.63-1.367l.359-.317-.44-.157a45.532 45.532 0 01-1.947-.74l-.02-.01-.008-.006v-.006l-.022-.017-.009-.011-.008-.012-.008-.012-.002-.013-.008-.011-.004-.02v-.006l.002-.02-.002-.013.004-.013.004-.014.004-.014.01-.015.005-.007.01-.014.011-.009.01-.014c.696-.603.861-.746 1.518-1.353l.33-.318-.433-.15c-.8-.3-1.041-.39-1.899-.762l-.109-.047-.1.059a42.96 42.96 0 01-1.527.827l-.038.01-.128-.084-.001-.107.066-.082c.287-.15.668-.351.953-.505l.47-.263-.476-.23c-.788-.42-.788-.42-1.14-.636l-.054-.08.015-.105.095-.074.059.013c.723.423.723.423 1.127.627l.466.228-.148-.554a63.16 63.16 0 01-.269-1.087l.013-.102.063-.067.02-.002c.095.027.1.028.12.094.22.867.248.978.472 1.74l.037.114.104.053c.792.335.957.405 1.89.746l.433.153q-.052-.233-.106-.463a80.54 80.54 0 00-.473-1.964l-.002-.006-.003-.011.001-.019-.003-.011.002-.013.002-.013-.001-.006.003-.007.002-.013.004-.006.007-.014.004-.007.012-.015.005-.001.014-.01.004-.007.015-.003.01-.002.01-.003.016-.003.01-.003.012.004.012.003.017.002c.801.267.945.316 1.786.556l.422.115-.16-.43a24.595 24.595 0 00-.814-1.887l-.05-.103-.103-.046a22.887 22.887 0 01-1.402-.72l-.06-.067-.014-.087.05-.055.067.01c.256.135.597.314.855.443l.454.216q-.12-.236-.244-.464a17.099 17.099 0 00-.66-1.12l-.024-.075.066-.045a.403.403 0 01.104.075c.236.345.468.717.693 1.11q.13.226.255.46l.125-.394a9.6 9.6 0 00.147-.752l.033-.04.085.013.078.067.025.077a5.255 5.255 0 01-.299 1.245l-.035.088.053.103c.3.591.584 1.22.846 1.877q.085.212.166.428l.254-.323a9.3 9.3 0 00.874-1.375l.008-.004v-.007l.01-.01.005-.009.008-.003.008-.003.006-.009.003.005.012-.005.008-.003.011.002.008-.004.015.008.003-.002.015.007.011.002.01.009.014.007.011.01.01.008.006.01.01.01.01.016.01.015a17.795 17.795 0 01.925 1.825q.094.218.18.44l.198-.348a8.125 8.125 0 00.648-1.53l.02-.091-.05-.11a11.312 11.312 0 00-.927-1.602.179.179 0 01-.019-.124l.01-.007.08.022.076.075c.192.29.447.678.623.977l.272.517.07-.394a4.177 4.177 0 00.035-.988l.01-.032a.219.219 0 01.189.183 4.332 4.332 0 01-.035.999l-.071.399.355.008c.71.012.71.012.769.143v.122l-.021.01a47.81 47.81 0 00-1.085-.021l-.081-.003-.023.087a8.235 8.235 0 01-.648 1.55l-.2.346.375.1c.67.188.873.244 1.463.432l.006.004.009.002.009.002.007.01.01.002.007.01.005.004.002.007.007.01.008.01.003.012.008.01.005.019.004.012v.014l.004.012v.043l-.001.023-.003.016-.009.027a11.846 11.846 0 01-.89 1.608l-.255.373.341.101c.6.193.782.252 1.32.455l.062.026.062-.075a7.998 7.998 0 00.772-1.216l.075.02.003.01.008.107-.024.1c-.13.232-.305.54-.449.763l-.265.367.257.12c.56.301.56.301.516.474z" fill="url(#prefix__prefix__b0fc25fa-3955-414e-a915-3255d0fa0f9e)"/><path d="M17.194 16.524l.036.155.149.05c.922.292.997.316 1.726.525l.438.119q-.058-.234-.121-.467a27.668 27.668 0 00-.548-1.79l-.052-.148-.145-.04c-.878-.246-.99-.277-1.63-.481l-.404-.135.117.435c.23.903.264 1.042.434 1.777zm1.44-1.336c.194.584.373 1.184.533 1.794-.856-.248-1.035-.3-1.716-.519-.264-1.059-.264-1.059-.457-1.764.88.276.95.299 1.64.489z" fill="url(#prefix__prefix__a00f9ede-f3dc-44e8-b688-77eb6e3e0a57)"/><path d="M19.14 18.008l.33-.344-.44-.128c-.78-.23-1.043-.306-1.73-.531l-.144-.053-.112.11c-.75.71-.765.723-1.339 1.231l-.347.308.433.17c.944.353 1 .374 1.729.624l.15.052.114-.112c.735-.698.83-.787 1.356-1.327zm-1.53 1.121a45.009 45.009 0 01-1.726-.618c.73-.658.825-.742 1.343-1.24.886.288 1 .325 1.73.541-.722.729-.765.772-1.347 1.317z" fill="url(#prefix__prefix__aafacde3-c6a3-456a-bdf0-5a1bc64fa645)"/><path d="M21.168 15.562l.076-.12q-.027-.075-.056-.149a17.71 17.71 0 00-.76-1.676q-.105-.205-.215-.405l-.176.314a10.526 10.526 0 01-.884 1.255l-.09.113.054.148c.206.58.395 1.177.563 1.784q.064.232.124.467l.317-.352a13.679 13.679 0 001.047-1.379zm-1.816-.595a10.483 10.483 0 00.89-1.269c.412.87.465.981.736 1.678a13.61 13.61 0 01-1.047 1.37 24.141 24.141 0 00-.579-1.78z" fill="url(#prefix__prefix__f184f25a-84f2-4e4e-b246-fe93a20b97ca)"/><path d="M19.663 17.868l-.33.353a36.32 36.32 0 01-1.36 1.334l-.121.108.03.163c.149.83.189 1.052.293 1.724q.03.207.057.408l.359-.295c.718-.61.848-.72 1.394-1.228l.12-.109-.02-.155q-.076-.57-.188-1.176-.06-.327-.13-.653-.05-.237-.104-.474zm.163 2.38c-.76.701-.807.743-1.394 1.241-.133-.886-.15-1-.282-1.733.71-.676.819-.78 1.357-1.337q.069.326.13.653.111.606.19 1.176z" fill="url(#prefix__prefix__b7dd9e48-c458-43d4-bff4-195de87a855d)"/><path d="M23.266 16.161l-.317-.102c-.753-.223-.753-.223-1.38-.392l-.13-.036-.076.121a13.953 13.953 0 01-1.052 1.39l-.31.36.429.11c.824.218.996.264 1.562.426l.124.038.09-.126a12.38 12.38 0 00.88-1.43zm-1.215 1.6q-.775-.218-1.555-.423a13.862 13.862 0 001.05-1.399c.753.208.889.245 1.387.397a12.309 12.309 0 01-.882 1.424z" fill="url(#prefix__prefix__bd8d394c-cf85-4a91-a402-7771238d56e9)"/></g><path d="M19.11 17.844l.33-.344-.44-.127c-.78-.23-1.043-.307-1.731-.532l-.144-.053-.112.11c-.75.71-.765.723-1.338 1.231l-.348.309.434.168c.943.354 1 .375 1.728.625l.15.052.115-.112c.734-.697.829-.787 1.355-1.327zm-1.53 1.122a44.864 44.864 0 01-1.727-.62c.731-.656.825-.74 1.343-1.239.886.289 1 .326 1.73.541-.722.729-.765.772-1.346 1.318z" fill="url(#prefix__prefix__bb855085-d3d3-4d21-bc7e-f1e480398c5b)"/><path d="M17.163 16.36l.037.155.148.051c.922.291.997.315 1.727.524l.438.12q-.059-.235-.122-.468a27.728 27.728 0 00-.548-1.79l-.052-.147-.145-.041a33.92 33.92 0 01-1.63-.481l-.404-.135q.06.216.118.435c.228.903.264 1.042.433 1.777zm1.44-1.336c.194.584.373 1.184.533 1.794-.856-.248-1.034-.3-1.716-.519-.263-1.059-.263-1.059-.457-1.764.88.276.951.299 1.64.49z" fill="url(#prefix__prefix__b46efb4e-9221-44a1-8597-4e4cb74cbba4)"/><path d="M24.554 18.49c.294-.467.84-1.339.354-1.527l-.038.02-.05.07a8.076 8.076 0 01-.772 1.22 20.505 20.505 0 00-1.317-.463 11.913 11.913 0 00.888-1.62l.003-.003.026-.08.002-.023.01-.078.003-.016v-.014l-.003-.05-.002-.034-.01-.045-.007-.04-.012-.036-.013-.042-.015-.035-.015-.035-.018-.032-.024-.036-.008-.01-.01-.009-.03-.026-.023-.022-.026-.014-.027-.02-.014-.006a30.868 30.868 0 00-1.466-.428 8.382 8.382 0 00.649-1.557l1.093.023c.312-.135-.112-.722-.268-.765l-.022-.003-.641-.01c.16-1.801-.373-1.625-.54-1.528l-.01.076a4.122 4.122 0 01-.033.974c-.662-1.072-.8-1.295-1.078-1.247-.076.057-.147.11.013.37a11.421 11.421 0 01.911 1.605 7.951 7.951 0 01-.641 1.522 17.151 17.151 0 00-.947-1.829l-.017-.019-.022-.037-.027-.028-.027-.028-.034-.032-.014-.014-.01-.009-.039-.023-.025-.016-.035-.017-.033-.013-.033-.005-.029-.008h-.06l-.027.004-.031.006-.008.003-.004.002-.012.005-.025.017-.025.016-.018.02-.015.026-.006.016a9.162 9.162 0 01-.874 1.368 21.75 21.75 0 00-.877-1.867 3.941 3.941 0 00.29-1.347c-.033-.198-.406-.494-.58-.348a.19.19 0 00-.05.093 9.73 9.73 0 01-.147.741 15.18 15.18 0 00-.724-1.1c-.205-.234-.349-.222-.4-.206-.061.042-.163.112-.035.34.214.352.425.73.63 1.129-1.123-.56-1.325-.66-1.181-.12a.44.44 0 00.195.262c.7.385.773.425 1.413.737.275.598.537 1.234.781 1.896-.788-.226-1-.287-1.778-.55l-.024-.006-.035-.01-.033-.005-.032.001-.037.003-.02.004-.016.004-.028.012-.034.014-.027.018-.028.019-.02.022-.026.024-.02.029-.013.033-.014.027-.012.04-.007.013-.001.019-.005.044-.002.036.003.036.005.042.006.023c.166.705.25 1.06.45 1.981a29.45 29.45 0 01-1.88-.742c-.615-2.016-.615-2.016-.84-1.997a.41.41 0 00-.282.493c.073.328.172.766.253 1.093-1.246-.657-1.246-.657-1.27-.658-.177-.01-.406.27-.32.564a.362.362 0 00.141.2c.741.433.741.433 1.157.643-1.032.55-1.032.55-1.088.629a.44.44 0 00.179.655.46.46 0 00.14.018l.12-.037c.784-.414.905-.477 1.54-.837.803.344.97.415 1.914.765-.702.643-.793.725-1.522 1.35l-.01.015-.03.037-.027.03-.019.036-.019.035-.009.021-.004.014-.01.047-.007.04-.006.04v.04l.008.044.006.038.013.037.02.043.017.03.025.042.008.012.009.012.06.056.02.017.077.047h.007c.87.35 1.027.414 1.942.746-.712.62-.84.732-1.636 1.376a29.544 29.544 0 01-1.842-.413c-.509-.047-.504.4-.365.593a.467.467 0 00.263.182c.343.08.802.186 1.147.26-1.12.856-1.12.856-1.135.882-.126.224.078.495.33.542a.384.384 0 00.294-.055c.352-.259.704-.518 1.052-.781.063 1.296.063 1.296.455 1.322.246-.026.345-.112.366-.32q-.02-.807-.03-1.614c.641-.509.881-.7 1.637-1.345.111.624.219 1.248.319 1.873l.002.016.011.036.01.03.017.03.023.032.008.015.008.009.067.05.006.003.071.033.025.005.067.007h.023l.09-.01.005-.001.087-.026.022-.015.06-.035.018-.01c.705-.57.873-.706 1.568-1.32a16.99 16.99 0 01.083 1.803 9.284 9.284 0 00-1.285 1.292.216.216 0 00.21.35.5.5 0 00.282-.128c.229-.212.533-.496.758-.712a8.373 8.373 0 01-.134.992c.013.296.34.143.482-.003a.465.465 0 00.112-.18 7.487 7.487 0 00.205-1.013c1.42.73 1.093-.24 1.086-.252a.174.174 0 00-.03-.028 10.244 10.244 0 00-.98-.535 14.087 14.087 0 00-.026-1.82c.658.157.93.221 1.507.37l.01.003h.05l.018.004.07-.023.004-.002.07-.04.018-.012.05-.043.02-.019.051-.07.005-.007.048-.086.005-.013.005-.018.015-.045.01-.037.01-.037.002-.04.005-.018a13.223 13.223 0 00-.097-1.94c.6.183.78.24 1.313.432a8.61 8.61 0 00.096 1.76l.072.038.05-.019a.827.827 0 00.27-.553c.01-.304.02-.709.01-1.012.156.081.36.198.508.295.308-.075.222-.789.216-.795a2.926 2.926 0 00-.519-.321zm.456.749l-.052.109-.024.005a2.863 2.863 0 00-.512-.304l-.255-.117.047.51c.005.301.008.703-.007 1.003l-.025.1-.055.084-.012.008-.05-.063a8.251 8.251 0 00-.062-1.605l-.018-.112-.062-.025a20.345 20.345 0 00-1.316-.447l-.342-.106q.039.235.07.466a13.534 13.534 0 01.1 1.929v.034l-.005.013v.01l-.005.014-.005.007v.006l-.014.028-.005.007-.014.017-.01.01-.018.018-.005.002-.023.015-.005.002-.018.002-.005.002-.005.002-.018-.003h-.014c-.715-.187-.715-.187-1.503-.377l-.392-.095q.023.218.04.43a14.886 14.886 0 01.045 1.814 8.395 8.395 0 01-.005.102l.08.037a10.987 10.987 0 01.98.517l.017.058-.044.08-.083.062-.06.003c-.17-.096-.397-.222-.57-.312l-.337-.164q-.016.22-.04.428a7.756 7.756 0 01-.182 1.007c-.07.11-.097.111-.185.113l-.016-.052a8.069 8.069 0 00.158-.999q.02-.207.032-.425l-.387.387c-.226.217-.528.507-.758.72l-.075.04-.084-.01-.025-.06.04-.075c.59-.561.712-.678 1.215-1.194l.087-.088.003-.101a15.857 15.857 0 00-.063-1.808q-.02-.212-.043-.43l-.356.325c-.709.622-.836.734-1.561 1.317l-.005.006-.017.01-.022.015-.012.003-.017.01h-.006l-.03.002-.006.001-.006.002-.03-.004-.026-.01-.006-.005-.015-.018-.006.001-.001-.01-.008-.01-.007-.009-.002-.01-.007-.01-.003-.021c-.115-.753-.15-.98-.306-1.866l-.082-.462-.359.322c-.762.655-.842.724-1.636 1.36l-.091.072v.118c.038 1.703.038 1.703-.058 1.72l-.023.003-.092-.037-.045-.08c-.013-.296-.031-.69-.041-.987l-.019-.52-.424.327c-.35.264-.702.529-1.056.79l-.062.02-.126-.052-.044-.087.04-.079c.354-.264.709-.528 1.06-.797l.43-.33-.573-.109a60.929 60.929 0 01-1.147-.269l-.092-.065-.028-.101.11-.102.042.002c.945.23 1.044.254 1.838.408l.123.018.097-.075c.64-.519.88-.713 1.63-1.366l.36-.318-.44-.157a44.123 44.123 0 01-1.948-.74l-.02-.01-.007-.006-.001-.006-.022-.016-.008-.012-.008-.012-.009-.012-.002-.013-.008-.011-.003-.02-.001-.006.002-.02-.002-.012.004-.014.004-.014.004-.014.01-.014.005-.007.01-.015.012-.009.01-.014c.695-.603.86-.746 1.517-1.352l.33-.319-.433-.15c-.8-.3-1.041-.39-1.899-.762l-.109-.047-.1.059c-.818.456-.867.484-1.527.827l-.038.01-.128-.084-.001-.107.067-.082c.286-.15.668-.351.952-.505l.47-.263-.476-.23c-.788-.419-.788-.419-1.14-.636l-.054-.08.016-.105.094-.074.06.013c.722.423.722.423 1.127.627l.466.228-.148-.554c-.083-.326-.193-.76-.27-1.087l.013-.102.063-.067.02-.002c.095.027.1.028.12.094.22.867.249.978.472 1.741l.037.113.104.053c.792.336.957.405 1.891.746l.433.153-.107-.463c-.21-.902-.253-1.09-.473-1.964l-.001-.006-.003-.011v-.019l-.003-.011.002-.013.003-.013-.002-.006.004-.007.002-.012.003-.007.008-.014.003-.007.013-.015.005-.001.013-.01.004-.006.016-.004.01-.002.01-.003.015-.003.01-.002.013.003.012.003.017.003c.8.267.945.315 1.785.555l.422.115q-.079-.217-.16-.43a24.646 24.646 0 00-.814-1.887l-.05-.103-.103-.046a23.183 23.183 0 01-1.402-.72l-.06-.067-.014-.087.05-.055.068.01c.255.135.596.314.855.443l.453.216q-.12-.236-.243-.464a17.128 17.128 0 00-.661-1.12l-.024-.075.066-.045a.408.408 0 01.105.075c.236.346.468.717.693 1.11q.129.226.255.46l.125-.393a9.71 9.71 0 00.146-.753l.033-.04.085.013.079.067.025.077a5.255 5.255 0 01-.3 1.245l-.034.088.052.103c.3.591.584 1.22.846 1.877q.085.212.167.428l.253-.323a9.31 9.31 0 00.874-1.375l.008-.004.001-.006.01-.011.004-.008.009-.004.008-.003.005-.009.003.005.012-.005.008-.003.011.002.009-.004.014.008.004-.002.014.007.012.002.01.01.014.006.01.01.01.008.007.011.01.009.01.016.008.016a17.797 17.797 0 01.926 1.824q.094.218.181.44l.198-.348a8.126 8.126 0 00.647-1.53l.02-.091-.049-.11a11.297 11.297 0 00-.928-1.601.178.178 0 01-.019-.125l.01-.007.08.022.076.075c.193.29.447.678.624.977l.272.517.07-.394a4.168 4.168 0 00.035-.987l.009-.033a.219.219 0 01.19.183 4.345 4.345 0 01-.036.999l-.07.399.354.008c.71.012.71.012.77.143v.122l-.022.01a47.812 47.812 0 00-1.085-.02l-.081-.004-.023.087a8.235 8.235 0 01-.647 1.551l-.2.345.374.1c.67.188.873.244 1.464.432l.005.004.01.002.008.002.008.01.009.002.007.01.005.005.002.006.008.01.007.01.004.012.007.01.006.02.004.011v.014l.003.013v.028l.001.015-.002.022-.003.016-.009.027a11.864 11.864 0 01-.89 1.609l-.254.372.34.102c.601.193.782.25 1.32.454l.062.026.063-.075a7.995 7.995 0 00.772-1.216l.074.02.004.01.007.107-.023.101c-.13.231-.306.539-.45.762l-.265.367.257.12c.561.301.561.301.517.474z" fill="url(#prefix__prefix__bd8380ee-c4d4-47b4-9be2-df9098928223)"/><path d="M23.236 15.998l-.317-.103c-.754-.223-.754-.223-1.38-.392l-.13-.035-.077.12a13.957 13.957 0 01-1.052 1.39l-.31.36.43.11c.824.218.995.264 1.561.426l.124.039.09-.127a12.366 12.366 0 00.881-1.43zm-1.215 1.599q-.776-.218-1.555-.423a13.85 13.85 0 001.05-1.399c.753.208.888.245 1.387.397a12.33 12.33 0 01-.882 1.425z" fill="url(#prefix__prefix__fb70cafb-4f63-4784-a2e1-cc23e22f7401)"/><path d="M19.632 17.705l-.33.353a36.08 36.08 0 01-1.36 1.333l-.121.108.03.163c.149.83.19 1.052.293 1.724q.03.207.057.408l.36-.294c.718-.612.847-.722 1.393-1.228l.12-.11-.02-.155q-.076-.57-.188-1.176-.06-.327-.13-.653-.05-.237-.104-.473zm.164 2.38c-.762.7-.807.742-1.395 1.24-.133-.886-.15-1-.282-1.733.71-.676.819-.78 1.358-1.337q.068.326.129.653.112.606.19 1.176z" fill="url(#prefix__prefix__ed3cc5ea-12e8-4394-957c-bd8fd54b5801)"/><path d="M21.138 15.398l.076-.12-.057-.149a17.696 17.696 0 00-.76-1.676q-.105-.205-.214-.405l-.176.314a10.531 10.531 0 01-.885 1.255l-.09.113.054.148c.207.58.396 1.177.563 1.785q.064.232.125.466l.317-.352a13.65 13.65 0 001.047-1.379zm-1.816-.595a10.467 10.467 0 00.889-1.269c.412.87.465.981.737 1.679a13.634 13.634 0 01-1.048 1.37 24.184 24.184 0 00-.578-1.78z" fill="url(#prefix__prefix__f5c90a77-46f0-4f29-99e9-5b14720671e8)"/><path d="M20.333 17.74l-.438-.116q.055.236.106.472.07.326.13.653.112.606.186 1.177l.02.155.135.031c.479.117.957.234 1.434.357l.321.084q0-.209-.009-.423a14.272 14.272 0 00-.172-1.76l-.028-.164-.123-.032a59.456 59.456 0 00-1.562-.434zm1.675 2.474q-.717-.188-1.437-.368-.071-.572-.183-1.178-.06-.327-.13-.653c.523.142 1.046.286 1.567.436a14.684 14.684 0 01.183 1.763z" fill="url(#prefix__prefix__a6d14ce0-d82f-4e99-b53f-e674a7eb53c4)"/></g></g></svg>