<svg xmlns="http://www.w3.org/2000/svg" xmlns:xlink="http://www.w3.org/1999/xlink" viewBox="0 0 30 30"><defs><radialGradient id="prefix__a033471d-603b-4818-b78c-dd87a933e740" cx="-370.294" cy="35.847" r="16.092" gradientTransform="rotate(-23.39 -196.905 -810.963) scale(.8945)" gradientUnits="userSpaceOnUse"><stop offset=".308" stop-color="#f7f7f7"/><stop offset=".769" stop-color="#dedede"/><stop offset=".868" stop-color="#e5e5e5"/><stop offset="1" stop-color="#f7f7f7"/></radialGradient><radialGradient id="prefix__ec54f01f-9a7c-41ad-a9b4-2a0cbce96f22" cx="12.325" cy="3.592" r="6.494" gradientTransform="rotate(-23.391 14.79 11.219)" gradientUnits="userSpaceOnUse"><stop offset="0" stop-color="#c7c7c7"/><stop offset="1" stop-color="#f7f7f7"/></radialGradient><radialGradient id="prefix__a0d45e26-335e-435c-b245-688752b50eeb" cx="15.97" cy="14.758" r="18.313" gradientTransform="matrix(.9292 -.4019 .4013 .9277 -3.859 5.51)" gradientUnits="userSpaceOnUse"><stop offset="0" stop-color="#fff"/><stop offset=".092" stop-color="#f9f9f9"/><stop offset=".217" stop-color="#e7e7e7"/><stop offset=".363" stop-color="#cacaca"/><stop offset=".522" stop-color="#a2a2a2"/><stop offset=".694" stop-color="#6f6f6f"/><stop offset=".873" stop-color="#313131"/><stop offset="1"/></radialGradient><radialGradient id="prefix__a4e3e0cb-a81d-4c57-8c95-8402b4088be1" cx="11.065" cy="9.947" r="15.943" gradientTransform="matrix(.9326 -.429 .3699 .9142 -.376 7.696)" gradientUnits="userSpaceOnUse"><stop offset="0" stop-color="#fff"/><stop offset="1"/></radialGradient><radialGradient id="prefix__bdd1b4a1-eaf8-4d57-929d-5b1c83478c71" cx="9.57" cy="13.525" r="16.463" gradientTransform="rotate(-23.391 14.79 11.219)" gradientUnits="userSpaceOnUse"><stop offset="0" stop-color="#fff"/><stop offset="1" stop-color="#171717"/></radialGradient><radialGradient id="prefix__b9a996ab-c87d-4721-9130-32e23e933ae1" cx="17.388" cy="14.355" r="22.85" gradientTransform="rotate(-23.391 14.79 11.219)" gradientUnits="userSpaceOnUse"><stop offset="0" stop-color="#c6c6c6"/><stop offset="1"/></radialGradient><radialGradient id="prefix__ffb33dda-dd38-487f-9dd5-c13acd9b137a" cx="74.091" cy="320.699" r="22.85" gradientTransform="rotate(156.609 73.63 164.515)" xlink:href="#prefix__b9a996ab-c87d-4721-9130-32e23e933ae1"/><radialGradient id="prefix__fb6f2777-2d9d-456b-9f76-1e39fe4ced42" cx="12.304" cy="10.313" r="17.698" gradientTransform="rotate(-23.391 14.79 11.219)" gradientUnits="userSpaceOnUse"><stop offset="0" stop-color="#737475"/><stop offset=".515" stop-color="#585959"/><stop offset="1" stop-color="#3b3b3b"/></radialGradient><radialGradient id="prefix__b183b9ec-5e5c-485b-bdcb-64205afa23d3" cx="-373.061" cy="23.379" r="4.009" gradientTransform="matrix(.7986 -.3454 .3622 .8374 299.002 -143.565)" gradientUnits="userSpaceOnUse"><stop offset="0" stop-color="#919191"/><stop offset=".155" stop-color="#989898"/><stop offset=".385" stop-color="#acacac"/><stop offset=".661" stop-color="#cdcdcd"/><stop offset=".97" stop-color="#fafafa"/><stop offset="1" stop-color="#fff"/></radialGradient><radialGradient id="prefix__bab18092-0f70-4fcb-9266-a9df1d913000" cx="12.453" cy="-129.845" r="10.677" gradientTransform="matrix(.99998 .00002 -.00002 .67682 1.392 102.786)" gradientUnits="userSpaceOnUse"><stop offset="0" stop-color="#fff"/><stop offset=".5" stop-color="#ebebeb"/><stop offset=".579" stop-color="#b9b9b9"/><stop offset=".692" stop-color="#787878"/><stop offset=".795" stop-color="#444"/><stop offset=".883" stop-color="#1f1f1f"/><stop offset=".955" stop-color="#080808"/><stop offset="1"/></radialGradient><radialGradient id="prefix__bf3c78f2-b706-492e-913b-f64ec30accc2" cx="11.793" cy="9.377" r="18.313" gradientTransform="rotate(-23.391 14.79 11.219)" xlink:href="#prefix__a4e3e0cb-a81d-4c57-8c95-8402b4088be1"/><radialGradient id="prefix__b36217ff-ebda-4591-99c1-2009edd3d0fd" cx="11.793" cy="9.378" r="18.313" gradientTransform="rotate(-23.391 14.79 11.219)" xlink:href="#prefix__a4e3e0cb-a81d-4c57-8c95-8402b4088be1"/><radialGradient id="prefix__aed4584c-516d-4af8-94b1-dd7e84b1a2b2" cx="11.793" cy="9.377" r="18.313" gradientTransform="rotate(-23.391 14.79 11.219)" xlink:href="#prefix__a4e3e0cb-a81d-4c57-8c95-8402b4088be1"/><radialGradient id="prefix__ba1a38eb-5883-474c-b7b8-873640295a13" cx="11.793" cy="9.377" r="18.313" gradientTransform="rotate(-23.391 14.79 11.219)" xlink:href="#prefix__a4e3e0cb-a81d-4c57-8c95-8402b4088be1"/><radialGradient id="prefix__b00a7925-c38c-4d7d-94a7-fe88a244654c" cx="297.943" cy="214.695" r="5.3" gradientTransform="matrix(-1.3543 -1.3531 -.8955 .8962 633.644 234.958)" gradientUnits="userSpaceOnUse"><stop offset="0" stop-color="#740000"/><stop offset=".169" stop-color="#5c0000"/><stop offset=".549" stop-color="#2a0000"/><stop offset=".838" stop-color="#0c0000"/><stop offset="1"/></radialGradient><linearGradient id="prefix__eb92f7b6-73ef-4434-9396-6abdd0263b99" x1="88.699" y1="-8.927" x2="88.699" y2="41.073" gradientUnits="userSpaceOnUse"><stop offset="0" stop-color="#fff"/><stop offset=".565" stop-color="#fafafa"/><stop offset="1" stop-color="#f2f2f2"/></linearGradient><linearGradient id="prefix__e1131b3d-bfdd-4010-9edd-e2266641d6d3" x1="-5898.502" y1="13.684" x2="-5911.14" y2="22.278" gradientTransform="scale(-1 1) rotate(23.391 -2959.426 14237.515)" gradientUnits="userSpaceOnUse"><stop offset="0" stop-color="#fff"/><stop offset=".085" stop-color="#f6f6f6"/><stop offset=".225" stop-color="#ddd"/><stop offset=".403" stop-color="#b4b4b4"/><stop offset=".612" stop-color="#7b7b7b"/><stop offset=".845" stop-color="#343434"/><stop offset="1"/></linearGradient><linearGradient id="prefix__be0f9d75-5a5f-4ba0-93af-4ce82899e87e" x1="12.461" y1="5.369" x2="12.461" y2="18.737" gradientTransform="rotate(-23.391 14.79 11.219)" gradientUnits="userSpaceOnUse"><stop offset="0" stop-color="#737373"/><stop offset=".274" stop-color="#696969"/><stop offset=".747" stop-color="#4d4d4d"/><stop offset="1" stop-color="#3b3b3b"/></linearGradient><linearGradient id="prefix__a68578ac-5624-4ae1-8e43-333d0a757eef" x1="8.732" y1="4.784" x2="16.109" y2="4.784" gradientTransform="rotate(-23.391 14.79 11.219)" gradientUnits="userSpaceOnUse"><stop offset=".081" stop-color="#d1d1d1"/><stop offset=".154" stop-color="#e1e1e1"/><stop offset=".26" stop-color="#f2f2f2"/><stop offset=".377" stop-color="#fcfcfc"/><stop offset=".524" stop-color="#fff"/><stop offset=".636" stop-color="#fbfbfb"/><stop offset=".756" stop-color="#eee"/><stop offset=".881" stop-color="#d8d8d8"/><stop offset=".914" stop-color="#d1d1d1"/></linearGradient><style>.prefix__e7d970c8-e9db-47b5-a329-051bce0cc99d{mix-blend-mode:multiply}.prefix__e4746deb-7d5d-4b22-91c9-faabca1bdd74,.prefix__e7d970c8-e9db-47b5-a329-051bce0cc99d{fill:#ccc}.prefix__e29f8b9a-6c7e-4bdf-8e72-73e8bc82019d{fill:#ededed}.prefix__e69a13b2-29c7-4a4d-980c-cbf4178f8033{fill:#474747}.prefix__a014b0e7-2228-40c2-8a3d-12c35579e90f{fill:#c2c2c2}</style></defs><g style="isolation:isolate"><g id="prefix__a63e1908-f1c0-4295-9359-d2a3b8df9ffc" data-name="Layer 6"><path d="M25.265 12.65A11.375 11.375 0 1110.31 6.726a11.375 11.375 0 0114.956 5.924z" style="mix-blend-mode:multiply" fill="url(#prefix__a033471d-603b-4818-b78c-dd87a933e740)"/><path d="M5.465 10.604a14.764 14.764 0 012.63-2.584c-.048.031.168.139.186.143a1.652 1.652 0 00.706-.099 12.594 12.594 0 002.961-1.286c.292-.172.665-.431.513-.73a9.892 9.892 0 012.905-.179 12.589 12.589 0 00-1.485.296.88.88 0 00-.23.085.913.913 0 00-.171.145 9.802 9.802 0 01-4.673 2.282c-.245.058-.488.1-.733.147a6.371 6.371 0 00-2.609 1.78z" style="mix-blend-mode:multiply" fill="url(#prefix__ec54f01f-9a7c-41ad-a9b4-2a0cbce96f22)"/><path d="M19.817 27.147c-.184.093-.376.181-.57.265a11.183 11.183 0 11-8.88-20.527c.194-.084.39-.164.584-.234a11.182 11.182 0 008.866 20.496z" style="mix-blend-mode:screen" fill="url(#prefix__a0d45e26-335e-435c-b245-688752b50eeb)"/><path d="M23.177 22.456c-.12.152-.25.303-.383.45-3.89 4.33-10.337 4.879-14.403 1.226-4.064-3.651-4.205-10.12-.316-14.45.133-.147.269-.292.406-.429-3.49 4.318-3.225 10.473.7 14 3.928 3.528 10.076 3.135 13.996-.797z" style="mix-blend-mode:screen" fill="url(#prefix__a4e3e0cb-a81d-4c57-8c95-8402b4088be1)"/><path d="M25.094 12.746c2.456 5.677.077 12.167-5.309 14.496-.184.08-.37.155-.554.221A10.963 10.963 0 0024 13.219a10.963 10.963 0 00-13.645-6.275 9.35 9.35 0 01.54-.253c5.386-2.33 11.744.38 14.2 6.055z" style="mix-blend-mode:screen" fill="url(#prefix__bdd1b4a1-eaf8-4d57-929d-5b1c83478c71)"/><path d="M14.495 6.886a9.892 9.892 0 013.453.749 10.472 10.472 0 011.576.81 10.798 10.798 0 014.121 13.219 13.356 13.356 0 01-.658 1.366 15.058 15.058 0 01-.816 1.31 7.398 7.398 0 01-4.089 2.953.98.98 0 01.215-.134 8.355 8.355 0 004.316-4.852 12.885 12.885 0 00.505-1.621 11.097 11.097 0 00-3.811-11.557 12.251 12.251 0 00-3.379-1.922 11.513 11.513 0 00-1.433-.32z" style="mix-blend-mode:screen" fill="url(#prefix__e1131b3d-bfdd-4010-9edd-e2266641d6d3)"/><path d="M3.954 19.81c.854 2.133 2.705 6.894 8.272 8.032 5.568 1.137 9.37-1.04 11.314-3.839-1.91 2.274-9.135 7.16-13.306-2.16-1.298.215-3.365.043-6.28-2.034z" style="mix-blend-mode:screen" fill="url(#prefix__b9a996ab-c87d-4721-9130-32e23e933ae1)"/><path d="M25.67 14.612c-.854-2.134-2.705-6.896-8.273-8.033-5.567-1.138-9.369 1.04-11.313 3.839 1.909-2.274 7.805-6.378 13.826-.013 2.26-.45 4.642 1.69 5.76 4.207z" style="mix-blend-mode:screen" fill="url(#prefix__ffb33dda-dd38-487f-9dd5-c13acd9b137a)"/><path d="M24.354 18.193c1.297 2.997-1.079 6.909-5.305 8.737-4.227 1.829-8.704.88-10-2.117-1.297-2.997 1.078-6.909 5.305-8.737s8.703-.88 10 2.117z" style="mix-blend-mode:screen" fill="url(#prefix__fb6f2777-2d9d-456b-9f76-1e39fe4ced42)"/><path d="M21.308 9.406c1.405 3.246-1.168 7.483-5.746 9.464-4.578 1.98-9.427.953-10.832-2.293-1.404-3.247 1.168-7.484 5.746-9.464 4.578-1.98 9.428-.954 10.832 2.293z" style="mix-blend-mode:screen" fill="url(#prefix__be0f9d75-5a5f-4ba0-93af-4ce82899e87e)"/><path d="M10.303 7.844a3.462 3.462 0 01-1.965.402.303.303 0 01-.229-.312.429.429 0 00-.038.057.284.284 0 00-.046.216c.142.63 1.632.072 2-.053a7.975 7.975 0 001.636-.739c.344-.211 1.15-.686 1.135-1.159a.298.298 0 00-.256-.26.26.26 0 01.125.268.638.638 0 01-.254.368 6.816 6.816 0 01-2.1 1.21z" style="mix-blend-mode:multiply" fill="url(#prefix__b183b9ec-5e5c-485b-bdcb-64205afa23d3)"/><ellipse cx="13.847" cy="14.904" rx="10.678" ry="7.226" transform="rotate(-23.392 13.847 14.904)" style="mix-blend-mode:screen" fill="url(#prefix__bab18092-0f70-4fcb-9266-a9df1d913000)"/><g style="mix-blend-mode:screen"><path d="M8.055 9.467c.374-.189.455-.226.981-.466a6.24 6.24 0 00-.97 2.731c-.78.349-.932.423-1.573.736a7.894 7.894 0 011.562-3.001z" fill="url(#prefix__bf3c78f2-b706-492e-913b-f64ec30accc2)"/><path d="M5.252 13.184a10.036 10.036 0 012.136-3.317 2.956 2.956 0 01.445-.283 8.42 8.42 0 00-1.721 3.082 7.82 7.82 0 00-.86.518z" fill="url(#prefix__b36217ff-ebda-4591-99c1-2009edd3d0fd)"/><path d="M7.889 20.734c-1.628-3.453-1.897-5.225-1.51-7.78.65-.323.803-.393 1.65-.774-.018 2.608.67 4.297 2.445 7.265-1.27.596-1.495.715-2.585 1.29z" fill="url(#prefix__aed4584c-516d-4af8-94b1-dd7e84b1a2b2)"/><path d="M7.242 21.1a15.662 15.662 0 00-1.492.995c-1.347-3.711-1.42-5.62-.684-8.382a8.144 8.144 0 01.91-.551C5.423 16.03 5.85 17.87 7.243 21.1z" fill="url(#prefix__ba1a38eb-5883-474c-b7b8-873640295a13)"/></g><path class="prefix__e7d970c8-e9db-47b5-a329-051bce0cc99d" d="M8.012 8.241a11.234 11.234 0 00-3.928 12.19 10.124 10.124 0 013.928-12.19zM19.314 27.458c-.22.114-.443.221-.674.321a10.123 10.123 0 01-11.21-2.166 11.223 11.223 0 0011.854 1.858zM25.463 13.571a11.24 11.24 0 00-.332-.864 11.718 11.718 0 00-9.238-6.805 10.76 10.76 0 019.065 6.208 10.375 10.375 0 01.505 1.461z"/><path d="M13.894 5.826a11.433 11.433 0 00-6.76 2.955l.53-.507a.94.94 0 00.29-.565.587.587 0 00.003-.127.702.702 0 00-.058-.28l-.5-1.158 4.455-1.927.501 1.157a.7.7 0 00.163.235.591.591 0 00.095.084.948.948 0 00.61.176z" style="mix-blend-mode:multiply" fill="url(#prefix__a68578ac-5624-4ae1-8e43-333d0a757eef)"/><path class="prefix__e4746deb-7d5d-4b22-91c9-faabca1bdd74" d="M8.044 10.045l-.026-.009-.008-.006-.012-.026a2.515 2.515 0 01.297-1.546 2.818 2.818 0 00.158-2.481.048.048 0 01.024-.064.048.048 0 01.062.027 2.936 2.936 0 01-.156 2.559 2.448 2.448 0 00-.293 1.487.047.047 0 01-.026.055zM14.25 7.365a.047.047 0 01-.06-.018 2.446 2.446 0 00-1.283-.805 2.937 2.937 0 01-1.973-1.638.047.047 0 11.087-.038 2.819 2.819 0 001.915 1.584 2.514 2.514 0 011.332.843l.006.008.003.028a.048.048 0 01-.02.032z"/><path class="prefix__e29f8b9a-6c7e-4bdf-8e72-73e8bc82019d" d="M8.053 10.018l-.004.001A.024.024 0 018.022 10a2.499 2.499 0 01.296-1.532 2.838 2.838 0 00.157-2.5.023.023 0 11.042-.019 2.915 2.915 0 01-.157 2.54 2.463 2.463 0 00-.294 1.502.023.023 0 01-.013.027zM14.24 7.342a.023.023 0 01-.029-.009 2.464 2.464 0 00-1.296-.815 2.914 2.914 0 01-1.958-1.624.023.023 0 11.041-.018 2.838 2.838 0 001.93 1.597 2.5 2.5 0 011.32.834.024.024 0 01-.005.033z"/><path d="M12.518 5.61a1.004 1.004 0 01-1.398-.388c.206.551-.258 1.104-.884 1.375-.623.27-1.312.257-1.573-.27.2.538-.113.983-.706 1.255a.733.733 0 00-.06-.281l-.554-1.283 4.456-1.928.555 1.284a.736.736 0 00.164.236z" style="mix-blend-mode:multiply" fill="#f2f2f2"/><path d="M8.047 1.522a1.693 1.693 0 102.228.88 1.694 1.694 0 00-2.228-.88zm1.297 3a1.573 1.573 0 11.824-2.073 1.58 1.58 0 01-.824 2.073z" fill="#828282"/><path d="M8.065 1.564a1.648 1.648 0 102.17.856 1.65 1.65 0 00-2.17-.856zm1.28 2.958a1.573 1.573 0 11.823-2.073 1.58 1.58 0 01-.824 2.073z" fill="#bababa"/><path d="M8.08 1.598a1.61 1.61 0 102.119.836 1.612 1.612 0 00-2.118-.836zm1.265 2.923a1.573 1.573 0 11.821-2.073 1.58 1.58 0 01-.82 2.073z" fill="#6e6e6e"/><path class="prefix__e69a13b2-29c7-4a4d-980c-cbf4178f8033" d="M11.888 3.788l.687 1.587-.028.076a1.338 1.338 0 01-1.68-.67l-.003-.007-.479-1.107.583-.252a.702.702 0 01.92.373zM7.073 5.87l.687 1.588.074.032a1.338 1.338 0 00.662-1.684L8.493 5.8l-.479-1.107-.582.252a.701.701 0 00-.359.926z"/><path class="prefix__e69a13b2-29c7-4a4d-980c-cbf4178f8033" d="M10.415 3.632l.486 1.124.003.006a1.333 1.333 0 01-2.447 1.059l-.003-.007-.486-1.124z"/><path class="prefix__a014b0e7-2228-40c2-8a3d-12c35579e90f" d="M7.995 4.701l.465 1.075.003.007a1.315 1.315 0 01-.705 1.672l-.692-1.6a.689.689 0 01.294-.875.456.456 0 01.062-.03z"/><path d="M10.404 3.66l.465 1.074.003.006a1.314 1.314 0 01-2.409 1.043l-.003-.007-.465-1.075z" fill="#fff"/><path d="M11.881 3.772l.692 1.6a1.315 1.315 0 01-1.7-.632l-.004-.006-.465-1.075.573-.248a.689.689 0 01.904.361z" fill="#858585"/><path class="prefix__a014b0e7-2228-40c2-8a3d-12c35579e90f" d="M11.099 3.374l-.001-.008a17.366 17.366 0 00-1.922.711 17.855 17.855 0 00-1.816.903.456.456 0 01.062-.03l3.555-1.539a.677.677 0 01.079-.028c.014-.004.029-.005.043-.009z"/></g></g></svg>